<?xml version="1.0" encoding="utf-8"?>
<!-- Generator: Adobe Illustrator 17.0.0, SVG Export Plug-In . SVG Version: 6.00 Build 0)  -->
<!DOCTYPE svg PUBLIC "-//W3C//DTD SVG 1.1//EN" "http://www.w3.org/Graphics/SVG/1.1/DTD/svg11.dtd">
<svg version="1.1" xmlns="http://www.w3.org/2000/svg" xmlns:xlink="http://www.w3.org/1999/xlink" x="0px" y="0px" width="206px" height="164px" viewBox="0 0 206 164" enable-background="new 0 0 206 164" xml:space="preserve">
	<g id="Layer_1" display="none">
		<g display="inline">
			<path fill="#D6BD76" d="M103.873,0.867c-36.537,0-69.753,13.32-69.753,13.32v73.257c0,26.639,17.439,38.71,36.537,53.278h66.432
				c19.099-14.568,36.537-26.639,36.537-53.278V14.186C173.627,14.186,140.411,0.867,103.873,0.867z"/>
			<path fill="#D6BD76" d="M113.838,163.972h-19.93c-14.676,0-26.573-11.897-26.573-26.573v-26.573h73.075V137.4
				C140.411,152.075,128.514,163.972,113.838,163.972z"/>
			<path fill="#C4A165" d="M103.53,74.29L103.53,74.29c-6.909,0-13.35,3.122-17.161,8.344c-9.547,13.082-26.816,37.477-26.816,42.759
				c0,7.301,14.659,32.852,43.977,18.251c29.318,14.601,43.977-10.951,43.977-18.251c0-5.282-17.268-29.677-26.816-42.759
				C116.88,77.411,110.439,74.29,103.53,74.29z"/>
			<path d="M127.687,110.69c0,11.522-23.47,20.863-23.47,20.863s-23.47-9.34-23.47-20.863c0-11.522,10.508-16.69,23.47-16.69
				S127.687,99.167,127.687,110.69z"/>
			<path fill="#B59857" d="M58.07,33.945l-19.711,84.111c-1.14,4.864-6.857,5.945-9.561,1.809L3.341,80.927
				c-4.1-6.271-4.154-14.68-0.134-20.788l30.702-46.649c2.846-4.324,8.51-4.788,12.073-0.989L55,22.117
				C57.879,25.187,59.057,29.727,58.07,33.945z"/>
			<path fill="#B59857" d="M148.692,33.407l17.807,84.47c1.03,4.885,6.686,6.077,9.461,1.995l26.111-38.429
				c4.205-6.189,4.437-14.595,0.572-20.779L173.126,13.43c-2.736-4.379-8.354-4.953-11.973-1.224l-9.163,9.437
				C149.066,24.655,147.799,29.171,148.692,33.407z"/>
			<circle fill="#FFFFFF" cx="74.294" cy="62.433" r="13.555"/>
			<circle fill="#FFFFFF" cx="132.768" cy="62.433" r="13.554"/>
			<circle fill="#111110" cx="132.875" cy="63.113" r="9.572"/>
			<circle cx="132.767" cy="62.433" r="8.88"/>
			<circle fill="#FFFFFF" cx="135.921" cy="58.056" r="3.474"/>
			<circle fill="#111110" cx="74.771" cy="62.903" r="9.572"/>
			<circle cx="74.663" cy="62.223" r="8.88"/>
			<circle fill="#FFFFFF" cx="77.817" cy="57.846" r="3.474"/>
		</g>
	</g>
	<g id="Layer_2" display="none">
		<g display="inline">
			<path fill="#605554" d="M104.101-0.071c-36.675,0-70.015,13.37-70.015,13.37v73.533c0,26.739,17.504,38.855,36.675,53.478h66.681
				c19.171-14.623,36.675-26.739,36.675-53.478V13.299C174.117,13.299,140.776-0.071,104.101-0.071z"/>
			<path fill="#605554" d="M114.104,163.648H94.099c-14.731,0-26.673-11.942-26.673-26.673v-26.673h73.35v26.673
				C140.776,151.706,128.835,163.648,114.104,163.648z"/>
			<path fill="#8C7873" d="M103.757,73.628L103.757,73.628c-6.935,0-13.4,3.133-17.226,8.375
				c-9.583,13.131-26.916,37.617-26.916,42.919c0,7.328,14.714,32.975,44.142,18.32c29.428,14.656,44.142-10.992,44.142-18.32
				c0-5.302-17.333-29.788-26.916-42.919C117.157,76.761,110.692,73.628,103.757,73.628z"/>
			<path fill="#3F3A3A" d="M128.005,110.165c0,11.565-23.558,20.942-23.558,20.942s-23.558-9.376-23.558-20.942
				c0-11.565,10.548-16.753,23.558-16.753S128.005,98.6,128.005,110.165z"/>
			<path fill="#564D4D" d="M58.125,33.132l-19.785,84.427c-1.144,4.882-6.882,5.967-9.597,1.815L3.191,80.29
				c-4.115-6.295-4.17-14.735-0.135-20.866L33.873,12.6c2.856-4.341,8.542-4.806,12.118-0.993l9.053,9.653
				C57.935,24.341,59.117,28.899,58.125,33.132z"/>
			<path fill="#564D4D" d="M149.088,32.592l17.874,84.788c1.034,4.903,6.711,6.1,9.496,2.002l26.21-38.573
				c4.221-6.212,4.454-14.649,0.574-20.857L173.614,12.54c-2.746-4.395-8.385-4.971-12.018-1.229l-9.197,9.473
				C149.463,23.807,148.192,28.34,149.088,32.592z"/>
			<circle fill="#FFFFFF" cx="74.41" cy="61.727" r="13.606"/>
			<circle fill="#FFFFFF" cx="133.104" cy="61.727" r="13.605"/>
			<circle fill="#A5A225" cx="133.211" cy="62.41" r="9.608"/>
			<circle cx="133.103" cy="61.727" r="8.913"/>
			<circle fill="#FFFFFF" cx="136.269" cy="57.334" r="3.487"/>
			<circle fill="#A5A225" cx="74.89" cy="62.199" r="9.608"/>
			<circle cx="74.782" cy="61.516" r="8.913"/>
			<circle fill="#FFFFFF" cx="77.947" cy="57.123" r="3.487"/>
		</g>
	</g>
	<g id="Layer_3">
		<g>
			<path fill="#2D2D2D" d="M104.22,0C67.545,0,34.204,13.37,34.204,13.37v73.533c0,26.739,17.504,38.855,36.675,53.478h66.681
				c19.171-14.623,36.675-26.739,36.675-53.478V13.37C174.235,13.37,140.895,0,104.22,0z"/>
			<path fill="#2D2D2D" d="M114.222,163.719H94.218c-14.731,0-26.673-11.942-26.673-26.673v-26.673h73.35v26.673
				C140.895,151.777,128.953,163.719,114.222,163.719z"/>
			<path fill="#1E1E1E" d="M103.875,73.699L103.875,73.699c-6.935,0-13.4,3.133-17.226,8.375
				c-9.583,13.131-26.916,37.617-26.916,42.919c0,7.328,14.714,32.975,44.142,18.32c29.428,14.656,44.142-10.992,44.142-18.32
				c0-5.302-17.333-29.788-26.916-42.919C117.275,76.832,110.81,73.699,103.875,73.699z"/>
			<path d="M128.123,110.236c0,11.565-23.558,20.941-23.558,20.941s-23.558-9.376-23.558-20.941
				c0-11.565,10.548-16.753,23.558-16.753S128.123,98.67,128.123,110.236z"/>
			<path d="M58.244,33.203L38.459,117.63c-1.144,4.882-6.882,5.967-9.597,1.815L3.309,80.361c-4.115-6.295-4.17-14.735-0.135-20.866
				L33.991,12.67c2.856-4.341,8.542-4.806,12.118-0.993l9.053,9.653C58.053,24.411,59.235,28.969,58.244,33.203z"/>
			<path d="M149.207,32.662l17.874,84.788c1.034,4.903,6.711,6.1,9.496,2.002l26.21-38.573c4.221-6.212,4.454-14.649,0.574-20.857
				L173.733,12.61c-2.746-4.395-8.385-4.971-12.018-1.229l-9.197,9.473C149.582,23.878,148.311,28.411,149.207,32.662z"/>
			<circle fill="#FFFFFF" cx="74.529" cy="61.798" r="13.606"/>
			<circle fill="#FFFFFF" cx="133.222" cy="61.798" r="13.605"/>
			<circle fill="#D87D07" cx="133.33" cy="62.48" r="9.608"/>
			<circle cx="133.222" cy="61.798" r="8.913"/>
			<circle fill="#FFFFFF" cx="136.387" cy="57.405" r="3.487"/>
			<circle fill="#D87D07" cx="75.008" cy="62.269" r="9.608"/>
			<circle cx="74.9" cy="61.587" r="8.913"/>
			<circle fill="#FFFFFF" cx="78.065" cy="57.194" r="3.487"/>
		</g>
	</g>
</svg>
