<?xml version="1.0" encoding="utf-8"?>
<!-- Generator: Adobe Illustrator 17.0.0, SVG Export Plug-In . SVG Version: 6.00 Build 0)  -->
<!DOCTYPE svg PUBLIC "-//W3C//DTD SVG 1.1//EN" "http://www.w3.org/Graphics/SVG/1.1/DTD/svg11.dtd">
<svg version="1.1" xmlns="http://www.w3.org/2000/svg" xmlns:xlink="http://www.w3.org/1999/xlink" x="0px" y="0px" width="206px" height="164px" viewBox="0 0 206 164" enable-background="new 0 0 206 164" xml:space="preserve">
	<g>
		<g class="lab-head">
			<path fill="#605554" d="M104.137,0.09c-36.603,0-69.878,13.343-69.878,13.343v73.389c0,26.687,17.47,38.779,36.603,53.374h66.551
				c19.133-14.594,36.603-26.687,36.603-53.374V13.433C174.015,13.433,140.74,0.09,104.137,0.09z"/>
			<path fill="#605554" d="M114.12,163.488H94.154c-14.702,0-26.62-11.918-26.62-26.62v-26.62h73.206v26.62
				C140.74,151.57,128.822,163.488,114.12,163.488z"/>
			<ellipse id="lengua_1_" fill="#E04F8A" cx="104.158" cy="150.008" rx="8.858" ry="9.34"/>
			<path fill="#8C7873" d="M103.793,73.644L103.793,73.644c-6.921,0-13.374,3.127-17.192,8.359
				c-9.564,13.106-26.864,37.544-26.864,42.835c0,7.314,14.685,32.911,44.056,18.284c29.37,14.627,44.056-10.971,44.056-18.284
				c0-5.292-17.299-29.73-26.864-42.835C117.167,76.771,110.714,73.644,103.793,73.644z"/>
			<path fill="#3F3A3A" d="M127.993,110.11c0,11.543-23.512,20.901-23.512,20.901s-23.512-9.357-23.512-20.901
				c0-11.543,10.527-16.72,23.512-16.72S127.993,98.567,127.993,110.11z"/>
			<path fill="#564D4D" d="M58.251,33.227l-19.746,84.262c-1.142,4.873-6.869,5.956-9.578,1.812L3.424,80.293
				c-4.107-6.282-4.162-14.707-0.135-20.825l30.757-46.733c2.851-4.332,8.526-4.797,12.095-0.991l9.035,9.634
				C58.06,24.453,59.24,29.002,58.251,33.227z"/>
			<path fill="#564D4D" d="M149.036,32.688l17.839,84.622c1.032,4.894,6.698,6.088,9.478,1.998l26.158-38.498
				c4.213-6.2,4.445-14.621,0.573-20.816l-29.57-47.319c-2.741-4.387-8.369-4.962-11.995-1.227l-9.179,9.454
				C149.41,23.92,148.142,28.445,149.036,32.688z"/>
			<circle fill="#FFFFFF" cx="74.504" cy="61.766" r="13.579"/>
			<circle fill="#FFFFFF" cx="133.083" cy="61.766" r="13.578"/>
			<circle fill="#A5A225" cx="133.19" cy="62.447" r="9.59"/>
			<circle cx="133.082" cy="61.766" r="8.896"/>
			<circle fill="#FFFFFF" cx="136.242" cy="57.382" r="3.48"/>
			<circle fill="#A5A225" cx="74.982" cy="62.237" r="9.59"/>
			<circle cx="74.875" cy="61.556" r="8.896"/>
			<circle fill="#FFFFFF" cx="78.034" cy="57.172" r="3.48"/>
		</g>
		<g class="hidden-eyes-3">
			<g display="inline">
				<circle fill="#564D4D" cx="74.447" cy="61.787" r="13.606"/>
				<circle fill="#564D4D" cx="133.14" cy="61.787" r="13.606"/>
			</g>
		</g>
	</g>
</svg>