<?xml version="1.0" encoding="utf-8"?>
<!-- Generator: Adobe Illustrator 17.0.0, SVG Export Plug-In . SVG Version: 6.00 Build 0)  -->
<!DOCTYPE svg PUBLIC "-//W3C//DTD SVG 1.1//EN" "http://www.w3.org/Graphics/SVG/1.1/DTD/svg11.dtd">
<svg version="1.1" id="Layer_1" xmlns="http://www.w3.org/2000/svg" xmlns:xlink="http://www.w3.org/1999/xlink" x="0px" y="0px"
	 width="156px" height="165px" viewBox="0 0 156 165" enable-background="new 0 0 156 165" xml:space="preserve">
<g>
	<path fill="#8C7873" d="M129.5,153.337c0,0,33.954-14.04,17.498-54.586l-3.664,2.892c0,0-9.432-25.528-30.293-17.869
		l-14.537,26.165l18.421,7.021L129.5,153.337z"/>
	<path fill="#605554" d="M105.345,66.477L50.072,97.611v66.841l46.649,0.38c23.865,0,36.824-4.953,36.824-21.513
		C133.545,120.866,120.535,79.61,105.345,66.477z"/>
	<path fill="#564D4D" d="M56.574,164.832c0.028-0.289,0.046-0.601,0.046-0.956v-42.961c0.424-7.431,6.478-13.327,13.905-13.327
		c7.671,0,13.889,6.284,13.943,14.055v30.055c0,5.35,0.069,9.672,0.201,13.133h25.115V61.995H77.052
		c-25.266,0-45.748,20.482-45.748,45.748v57.089H56.574z"/>
	<path fill="#8C7873" d="M53.969,165.099c2.155,0,3.741-2.077,3.112-4.138c-1.959-6.417-7.851-11.079-14.818-11.079
		c-6.967,0-12.859,4.662-14.818,11.079c-0.629,2.061,0.957,4.138,3.112,4.138H53.969z"/>
	<path fill="#8C7873" d="M115.002,165.099c1.519,0,2.63-1.411,2.306-2.895c-1.541-7.049-7.734-12.322-15.143-12.322
		c-7.409,0-13.603,5.272-15.143,12.322c-0.324,1.484,0.787,2.895,2.306,2.895H115.002z"/>
	<path fill="#605554" d="M76.519,0.304c-21.69,0-41.408,7.907-41.408,7.907v43.488c0,15.814,10.352,22.98,21.69,31.628h39.436
		c11.338-8.648,21.69-15.814,21.69-31.628V8.211C117.927,8.211,98.209,0.304,76.519,0.304z"/>
	<path fill="#605554" d="M82.435,97.13H70.604c-8.712,0-15.775-7.063-15.775-15.775V65.581h43.38v15.775
		C98.209,90.067,91.147,97.13,82.435,97.13z"/>
	<path fill="#564D4D" d="M49.328,19.941L37.627,69.872c-0.677,2.887-4.07,3.529-5.676,1.074L16.839,47.831
		c-2.434-3.723-2.466-8.715-0.08-12.341L34.985,7.798c1.689-2.567,5.052-2.842,7.167-0.587l5.354,5.709
		C49.215,14.741,49.914,17.437,49.328,19.941z"/>
	<path fill="#564D4D" d="M103.125,19.621l10.571,50.145c0.611,2.9,3.969,3.608,5.616,1.184l15.501-22.813
		c2.497-3.674,2.634-8.664,0.34-12.335L117.63,7.762c-1.624-2.599-4.959-2.94-7.108-0.727l-5.44,5.602
		C103.347,14.426,102.595,17.107,103.125,19.621z"/>
	<circle fill="#FFFFFF" cx="58.959" cy="36.852" r="8.047"/>
	<circle fill="#FFFFFF" cx="93.672" cy="36.852" r="8.046"/>
	<circle fill="#A5A225" cx="93.735" cy="37.256" r="5.683"/>
	<circle cx="93.671" cy="36.852" r="5.271"/>
	<circle fill="#FFFFFF" cx="95.543" cy="34.254" r="2.062"/>
	<circle fill="#A5A225" cx="59.243" cy="37.131" r="5.683"/>
	<circle cx="59.179" cy="36.728" r="5.271"/>
	<circle fill="#FFFFFF" cx="61.051" cy="34.129" r="2.062"/>
	<g>
		<g>
			<path fill="#6E8C96" d="M57.469,90.415c0.944,3.463-0.944,13.063-5.036,17.628c-0.149,0.166,15.109,0,22.664-10.073
				L57.469,90.415z"/>
			<path fill="#6E8C96" d="M100.279,103.006c2.204,3.227,2.44,12.67,2.44,12.67c4.092-2.518,7.397-8.971,7.874-10.234
				L100.279,103.006z"/>
			<path fill="#6E8C96" d="M112.87,70.269c0-4.722-3.069-13.85-7.555-17.628c-0.16-0.135,0,7.555-15.109,10.073
				c-13.85,2.308-12.591,7.555-12.591,7.555S66.703,60.196,59.987,60.196c0,0,7.135,6.505,2.518,15.109L112.87,70.269z"/>
			<path fill="#6E8C96" d="M-0.451,60.196c0,0,12.591,18.467,12.591,25.183c0,6.715-12.591,25.183-12.591,25.183
				c10.912-2.309,25.183-22.664,25.183-22.664V82.86C24.732,82.86,10.461,62.504-0.451,60.196z"/>
		</g>
		<path fill="#91D7CD" d="M155.68,82.86c0,0-22.874-17.628-47.847-17.628c-39.87,0-64.842,17.626-83.099,17.628h-0.002
			c-1.391,0-2.518,1.127-2.518,2.518c0,1.391,1.128,2.518,2.518,2.518l0,0c18.257,0,43.23,17.628,83.102,17.628
			c24.972,0,40.922-12.591,47.847-12.591l-7.555-5.036L155.68,82.86z"/>
		<path fill="#B7E6E7" d="M107.834,105.524c5.147,0,9.888-0.553,14.268-1.402l-6.714-8.671
			c-32.737,5.036-27.701-12.591-61.786-0.263C67.992,100.039,85.591,105.524,107.834,105.524z"/>
		<path fill="#73B4C8" d="M126.981,92.438c-1.864-5.093,0.088-9.685,0.733-10.971c0.159-0.317,0.416-0.71,0.649-1.115
			c7.219,1.255,14.766,2.507,27.317,2.507c0,0-22.874-17.628-47.847-17.628c-39.87,0-64.842,17.626-83.099,17.628h-0.003
			c-1.391,0-2.518,1.127-2.518,2.518c12.591,0,52.883-7.555,80.584-7.555c4.774,0,8.739,0.231,12.302,0.584
			c-2.41,5.896-4.469,18.313,3.285,26.335c2.211-0.317,4.355-0.699,6.388-1.165c-0.065-0.052-0.096-0.129-0.168-0.175
			c-11.876-7.572-4.382-24.125-4.294-24.285c0.014-0.026,0.012-0.054,0.025-0.08c0.938,0.135,1.857,0.275,2.762,0.421
			c-0.953,1.983-3.311,7.975-0.845,14.712c1.172,3.198,3.265,6.02,6.187,8.476c2.085-0.579,4.046-1.217,5.922-1.875
			C130.643,98.432,128.157,95.647,126.981,92.438z"/>
		<path fill="#6E8C96" d="M72.578,77.824c-0.138,0.076,17.628,10.073,25.183,12.591c4.482,1.494,10.073,0,10.073,0
			s0-5.036,2.518-7.555C110.352,82.86,81.786,72.787,72.578,77.824z"/>
		<circle fill="#464655" cx="136.794" cy="81.602" r="3.777"/>
	</g>
	<path fill="#8C7873" d="M76.315,43.891L76.315,43.891c-4.101,0-7.925,1.853-10.187,4.953c-5.667,7.766-15.919,22.248-15.919,25.383
		c0,4.334,8.702,19.502,26.106,10.835c17.404,8.668,26.106-6.501,26.106-10.835c0-3.136-10.251-17.617-15.919-25.383
		C84.24,45.744,80.417,43.891,76.315,43.891z"/>
	<path fill="#3F3A3A" d="M90.656,65.499c0,6.84-13.933,12.385-13.933,12.385S62.79,72.34,62.79,65.499
		c0-6.84,6.238-9.908,13.933-9.908S90.656,58.659,90.656,65.499z"/>
</g>
</svg>
