<?xml version="1.0" encoding="utf-8"?>
<!-- Generator: Adobe Illustrator 17.0.0, SVG Export Plug-In . SVG Version: 6.00 Build 0)  -->
<!DOCTYPE svg PUBLIC "-//W3C//DTD SVG 1.1//EN" "http://www.w3.org/Graphics/SVG/1.1/DTD/svg11.dtd">
<svg version="1.1" xmlns="http://www.w3.org/2000/svg" xmlns:xlink="http://www.w3.org/1999/xlink" x="0px" y="0px" width="400px" height="400px" viewBox="0 0 400 400" enable-background="new 0 0 400 400" xml:space="preserve">
	<path id="cola" fill="#8C7873" d="M310.236,371.294c0,0,82.172-34.005,42.347-132.203l-8.868,7.005c0,0-22.825-61.826-73.311-43.279
		l-35.179,63.371l44.579,17.004L310.236,371.294z"/>
	<path fill="#605554" d="M251.78,160.924l-133.765,75.407v161.885l112.894,0.921c57.755,0,89.116-11.997,89.116-52.103
		C320.025,292.653,288.54,192.734,251.78,160.924z"/>
	<path fill="#564D4D" d="M133.751,399.137c0.069-0.7,0.112-1.455,0.112-2.314v-104.05c1.026-17.996,15.677-32.276,33.651-32.276
		c18.564,0,33.612,15.22,33.742,34.041v72.792c0,12.958,0.167,23.425,0.485,31.807h60.78V150.071h-79.214
		c-61.145,0-110.713,49.606-110.713,110.799v138.267H133.751z"/>
	<path fill="#8C7873" d="M131.427,399.783c5.215,0,9.054-5.031,7.531-10.022c-4.742-15.542-19-26.832-35.86-26.832
		c-16.861,0-31.12,11.29-35.861,26.832c-1.523,4.992,2.316,10.022,7.531,10.022H131.427z"/>
	<path fill="#8C7873" d="M262.208,399.783c3.677,0,6.366-3.418,5.581-7.013c-3.728-17.073-18.717-29.842-36.646-29.842
		c-17.931,0-32.919,12.769-36.648,29.842c-0.785,3.595,1.904,7.013,5.581,7.013H262.208z"/>
	<path fill="#605554" d="M182.018,0.658c-52.491,0-100.21,19.15-100.21,19.15v105.326c0,38.301,25.053,55.655,52.491,76.601h95.439
		c27.439-20.946,52.491-38.3,52.491-76.601V19.808C282.229,19.808,234.51,0.658,182.018,0.658z"/>
	<path fill="#605554" d="M196.334,235.165h-28.632c-21.084,0-38.175-17.105-38.175-38.205v-38.205H234.51v38.205
		C234.51,218.06,217.418,235.165,196.334,235.165z"/>
	<g id="lengua">
		<ellipse fill="#EF54A6" cx="182.625" cy="212.355" rx="12.375" ry="15.395"/>
	</g>
	<path fill="#8C7873" d="M181.525,106.223L181.525,106.223c-9.926,0-19.179,4.488-24.654,11.997
		c-13.715,18.809-38.524,53.882-38.524,61.477c0,10.497,21.06,47.233,63.179,26.241c42.119,20.993,63.179-15.745,63.179-26.241
		c0-7.595-24.808-42.668-38.524-61.477C200.704,110.71,191.451,106.223,181.525,106.223z"/>
	<path fill="#3F3A3A" d="M216.23,158.557c0,16.566-33.718,29.996-33.718,29.996s-33.718-13.429-33.718-29.996
		c0-16.566,15.097-23.996,33.718-23.996S216.23,141.991,216.23,158.557z"/>
	<path fill="#564D4D" d="M116.215,48.217L87.898,169.148c-1.638,6.993-9.851,8.548-13.736,2.6l-36.572-55.983
		c-5.89-9.016-5.968-21.107-0.193-29.888l44.107-67.07c4.088-6.217,12.226-6.884,17.345-1.422l12.957,13.827
		C115.942,35.624,117.634,42.153,116.215,48.217z"/>
	<path fill="#564D4D" d="M246.407,47.443l25.582,121.448c1.479,7.023,9.606,8.737,13.592,2.868l37.513-55.251
		c6.042-8.898,6.374-20.983,0.822-29.875L281.51,18.72c-3.93-6.295-12.001-7.121-17.201-1.76l-13.164,13.568
		C246.943,34.86,245.124,41.353,246.407,47.443z"/>
	<ellipse fill="#FFFFFF" cx="139.523" cy="89.176" rx="19.473" ry="19.488"/>
	<ellipse fill="#FFFFFF" cx="223.529" cy="89.176" rx="19.472" ry="19.487"/>
	<ellipse fill="#A5A225" cx="223.682" cy="90.153" rx="13.752" ry="13.763"/>
	<ellipse cx="223.528" cy="89.176" rx="12.757" ry="12.767"/>
	<circle fill="#FFFFFF" cx="228.059" cy="82.883" r="4.994"/>
	<ellipse fill="#A5A225" cx="140.209" cy="89.851" rx="13.752" ry="13.763"/>
	<ellipse cx="140.054" cy="88.874" rx="12.757" ry="12.767"/>
	<circle fill="#FFFFFF" cx="144.585" cy="82.581" r="4.994"/>
	<g id="hidden-eyes" display="none">
		<circle display="inline" fill="#564D4D" cx="139.517" cy="89.154" r="19.696"/>
		<circle display="inline" fill="#564D4D" cx="223.517" cy="89.154" r="19.696"/>
	</g>
</svg>
