<?xml version="1.0" encoding="utf-8"?>
<!-- Generator: Adobe Illustrator 17.0.0, SVG Export Plug-In . SVG Version: 6.00 Build 0)  -->
<!DOCTYPE svg PUBLIC "-//W3C//DTD SVG 1.1//EN" "http://www.w3.org/Graphics/SVG/1.1/DTD/svg11.dtd">
<svg version="1.1" id="Layer_1" xmlns="http://www.w3.org/2000/svg" xmlns:xlink="http://www.w3.org/1999/xlink" x="0px" y="0px"
	 width="50px" height="47px" viewBox="0 0 50 47" enable-background="new 0 0 50 47" xml:space="preserve">
<g>
	<g>
		<path fill="#CF3D22" d="M27.151,26.431c0,0-2.882-24.561-6.842-26.457c-2.073-0.992-4.889,6.044-9.808,10.57
			c-4.486,4.126-11.245,5.634-10.434,7.661C1.77,22.459,27.151,26.431,27.151,26.431z"/>
		<path fill="#E44326" d="M22.516,19.741c-5.746,5.176-5.982,13.891,0.883,20.908c6.866,7.018,20.292,7.824,23.978,4.505
			c3.687-3.321,3.696-16.229-3.169-23.248C37.342,14.889,28.263,14.563,22.516,19.741z"/>
	</g>
	<g>
		<path fill="#FFFFFF" d="M41.7,31.222c-2.032,0.168-3.535,1.885-3.359,3.836c0.177,1.95,1.967,3.395,3.999,3.226
			s3.535-1.886,3.359-3.836C45.522,32.497,43.732,31.054,41.7,31.222z"/>
		<g>
			<path fill="#414042" d="M41.85,32.878c-1.08,0.09-1.877,1.002-1.783,2.037c0.094,1.036,1.043,1.802,2.123,1.713
				c1.079-0.089,1.877-1.001,1.783-2.036C43.88,33.556,42.929,32.789,41.85,32.878z"/>
			<path fill="#FFFFFF" d="M42.16,32.259c-0.639,0.053-1.115,0.595-1.059,1.209c0.056,0.613,0.622,1.069,1.261,1.016
				c0.64-0.053,1.114-0.595,1.058-1.208C43.364,32.662,42.8,32.206,42.16,32.259z"/>
		</g>
	</g>
</g>
</svg>
