<?xml version="1.0" encoding="utf-8"?>
<!-- Generator: Adobe Illustrator 17.0.0, SVG Export Plug-In . SVG Version: 6.00 Build 0)  -->
<!DOCTYPE svg PUBLIC "-//W3C//DTD SVG 1.1//EN" "http://www.w3.org/Graphics/SVG/1.1/DTD/svg11.dtd">
<svg version="1.1" id="Layer_1" xmlns="http://www.w3.org/2000/svg" xmlns:xlink="http://www.w3.org/1999/xlink" x="0px" y="0px"
	 width="50px" height="47px" viewBox="0 0 50 47" enable-background="new 0 0 50 47" xml:space="preserve">
<g>
	<g>
		<path fill="#CF3D22" d="M25.329,23.83c0,0-21.411-8.769-24.758-6.386c-1.751,1.248,2.733,6.74,4.209,12.818
			c1.345,5.542-0.483,11.758,1.544,12.012C10.579,42.807,25.329,23.83,25.329,23.83z"/>
		<path fill="#E44326" d="M17.753,24.593c1.634,7.049,8.661,11.19,17.515,8.75c8.856-2.441,15.598-13.066,14.551-17.587
			c-1.048-4.523-11.611-10.378-20.467-7.939C20.498,10.258,16.118,17.543,17.753,24.593z"/>
	</g>
	<g>
		<path fill="#FFFFFF" d="M35.843,14.091c-0.783,1.74-0.059,3.748,1.618,4.488c1.676,0.739,3.67-0.072,4.453-1.812
			c0.782-1.74,0.058-3.748-1.618-4.488C38.618,11.54,36.626,12.351,35.843,14.091z"/>
		<g>
			<path fill="#414042" d="M37.267,14.718c-0.416,0.925-0.03,1.99,0.86,2.382c0.891,0.392,1.948-0.037,2.364-0.962
				c0.416-0.924,0.031-1.99-0.859-2.382C38.741,13.364,37.683,13.795,37.267,14.718z"/>
			<path fill="#FFFFFF" d="M36.9,14.184c-0.246,0.547-0.018,1.182,0.51,1.415c0.527,0.232,1.157-0.025,1.403-0.572
				c0.247-0.548,0.018-1.181-0.51-1.413C37.776,13.381,37.147,13.636,36.9,14.184z"/>
		</g>
	</g>
</g>
</svg>
