<?xml version="1.0" encoding="utf-8"?>
<!-- Generator: Adobe Illustrator 17.0.0, SVG Export Plug-In . SVG Version: 6.00 Build 0)  -->
<!DOCTYPE svg PUBLIC "-//W3C//DTD SVG 1.1//EN" "http://www.w3.org/Graphics/SVG/1.1/DTD/svg11.dtd">
<svg version="1.1" xmlns="http://www.w3.org/2000/svg" xmlns:xlink="http://www.w3.org/1999/xlink" x="0px" y="0px" width="65px" height="100px" viewBox="0 0 65 100" enable-background="new 0 0 65 100" xml:space="preserve">
	<g>
		<g id="heart-1">
			<path fill="#FC5879" d="M57.187,67.775c-8.315-4.749-15.574,2.967-15.574,9.53c0-6.563-7.259-14.279-15.574-9.53
				c-11.295,6.451-0.124,26.116,15.574,31.881C57.578,93.359,68.483,74.226,57.187,67.775z"/>
			<path opacity="0.3" fill="#B83336" d="M58.349,80.321c0.167,3.736-1.182,7.232-3.424,10.06c7.376-8.073,9.905-18.241,2.262-22.606
				c-2.257-1.289-4.434-1.654-6.411-1.379C55.22,69.427,58.093,74.592,58.349,80.321z"/>
			<path opacity="0.3" fill="#B83336" d="M41.613,97.057c-9.383,0-16.33-7.668-16.736-16.736c-0.256-5.71,3.002-10.879,7.64-13.916
				c-1.995-0.293-4.196,0.067-6.478,1.37c-11.295,6.451-0.124,26.116,15.574,31.881c3.626-1.43,6.986-3.527,9.889-5.982
				C48.636,95.778,45.16,97.057,41.613,97.057z"/>
		</g>
		<g id="heart-2">
			<path fill="#FC5879" d="M16.747,30.799c-3.67-2.096-6.873,1.31-6.873,4.206c0-2.896-3.204-6.302-6.873-4.206
				c-4.985,2.847-0.055,11.526,6.873,14.07C16.919,42.09,21.732,33.646,16.747,30.799z"/>
			<path opacity="0.3" fill="#B83336" d="M17.26,36.336c0.074,1.649-0.522,3.191-1.511,4.44c3.255-3.563,4.371-8.05,0.998-9.977
				c-0.996-0.569-1.957-0.73-2.829-0.608C15.879,31.528,17.146,33.807,17.26,36.336z"/>
			<path opacity="0.3" fill="#B83336" d="M9.874,43.722c-4.141,0-7.207-3.384-7.386-7.386c-0.113-2.52,1.325-4.801,3.372-6.142
				c-0.88-0.129-1.852,0.03-2.859,0.605c-4.985,2.847-0.055,11.526,6.873,14.07c1.6-0.631,3.083-1.556,4.364-2.64
				C12.973,43.158,11.439,43.722,9.874,43.722z"/>
		</g>
		<g id="heart-3">
			<path fill="#FC5879" d="M63.645,0.703c-2.255-1.288-4.223,0.805-4.223,2.584c0-1.78-1.968-3.872-4.223-2.584
				c-3.063,1.749-0.034,7.082,4.223,8.645C63.751,7.64,66.708,2.452,63.645,0.703z"/>
			<path opacity="0.3" fill="#B83336" d="M63.96,4.105c0.045,1.013-0.321,1.961-0.928,2.728c2-2.189,2.686-4.946,0.613-6.13
				c-0.612-0.349-1.202-0.448-1.738-0.374C63.111,1.151,63.89,2.551,63.96,4.105z"/>
			<path opacity="0.3" fill="#B83336" d="M59.422,8.643c-2.544,0-4.428-2.079-4.538-4.538c-0.069-1.548,0.814-2.95,2.072-3.774
				c-0.541-0.079-1.138,0.018-1.757,0.372c-3.063,1.749-0.034,7.082,4.223,8.645c0.983-0.388,1.894-0.956,2.681-1.622
				C61.326,8.296,60.383,8.643,59.422,8.643z"/>
		</g>
	</g>
</svg>
