<?xml version="1.0" encoding="utf-8"?>
<!-- Generator: Adobe Illustrator 17.0.0, SVG Export Plug-In . SVG Version: 6.00 Build 0)  -->
<!DOCTYPE svg PUBLIC "-//W3C//DTD SVG 1.1//EN" "http://www.w3.org/Graphics/SVG/1.1/DTD/svg11.dtd">
<svg version="1.1" id="Layer_1" xmlns="http://www.w3.org/2000/svg" xmlns:xlink="http://www.w3.org/1999/xlink" x="0px" y="0px"
	 width="402px" height="340px" viewBox="0 0 402 340" enable-background="new 0 0 402 340" xml:space="preserve">
<path id="path6188" fill="#FD8469" d="M209.696-0.021l-1.128,0.1l-0.501,0.502l-0.752,1.794l-0.401,0.552l-0.727,0.276l-0.389-0.339
	V2.463l0.514-0.828l0.289-1.066l-0.163-0.338l-0.226-0.175l-1.127,0.778l-0.903,0.1l-1.904-0.075l-0.789,0.715l-0.84-0.113
	l-0.965,0.778l-0.401,0.439l-0.564,0.226l-0.439-0.125l-0.564,0.113l-1.403-0.075l-0.451,0.226l-0.401,0.502l0.113,0.552
	l0.614,0.464l0.664,0.226l0.163,0.339l-0.339,0.339l-1.227-0.013l-0.677-0.238l-1.403-0.063l-0.289,0.276l-0.275,0.502l-0.79,0.376
	l-0.125,0.452l0.451,0.565l0.326,0.677l-0.063,0.502h-0.339l-0.275-0.226l-0.564-0.289h-0.163l-0.288,0.276l0.063,0.338l0.388,0.452
	l0.05,0.401l-0.401,0.602l-0.062,0.401l0.501,0.565l0.05,0.452l-0.401,0.389l-0.677,0.1l-0.325-0.226l-0.339-0.565l-0.389-0.113
	l-0.451,0.1l-0.326-0.339l-0.163-0.452l-0.401-0.289l-0.275,0.063l-0.175,0.215l-0.012,1.467l-0.226,0.326l-0.564,0.276
	l-0.113,0.226l0.1,0.226l0.677,0.464l0.89,0.226l0.339,0.339l-0.012,0.452l-0.226,0.113l-0.89-0.013l-0.564,0.276l-0.388-0.175
	l-0.451-0.452l-0.776-0.012l-0.689,0.339l-0.451,0.552l-0.175,1.016l-0.289,0.1h-0.339l-0.275-0.226l-0.451,0.05l-0.564,0.389
	l-1.416,1.556l0.113,0.452l0.664,0.514l0.451-0.113l0.451-0.665l0.514-0.05l0.213,0.226l-0.113,0.439l-0.451,0.677l-0.012,0.665
	l0.439,0.351l0.451,0.163l0.501,0.401l0.113,0.401l-0.852,0.828l-0.012,0.502l0.288,0.289h0.501l1.918-0.539l1.003-0.1l0.739-0.213
	l0.739-0.778l0.564-0.84l0.338-0.05l0.113,0.113l0.05,0.276l-0.74,1.455l-0.626,0.615l-0.789,0.389l-1.692,0.426l-0.339,0.226
	l-0.401,0.389v0.552l0.777,0.401l0.664,0.577l1.065,0.452l0.401-0.326l0.351-2.132l0.338-0.163l0.289,0.226l0.05,0.452l-0.301,1.229
	l0.113,0.452l0.551,0.565l2.13-0.15l0.677-0.151l0.339-0.338l0.012-0.677l0.175-0.389l0.339-0.113l0.325,0.175l0.163,0.515
	l0.288,0.276l0.614,0.063l1.015-1.004l1.077-0.828l0.739-0.376l0.451-0.728l0.175-0.565l0.289-0.439h0.614l1.015-0.263l0.275,0.226
	l0.05,0.452l-0.288,0.502l-0.626,0.778l-0.903,1.28l-0.414,1.066l-0.275,0.276l-1.416,0.765l-1.128,0.502l-0.564,0.326l0.05,0.903
	l0.1,0.276l0.79,0.565l0.664,0.289l0.338,0.239l0.439,0.677l0.1,1.066l0.664,0.565l0.338,0.401l0.05,0.339l-0.451,0.276
	l-0.614-0.013l-0.339-0.339l-0.715-1.417l-0.388-0.565l-0.664-0.113l-0.501-0.452l-0.664-0.803l-0.677-0.615l-0.89-0.125
	l-2.017-0.025l-0.739,0.213l-0.226,0.226l-0.063,0.502l0.275,1.016l0.389,0.452l0.038,1.467l0.213,0.565l0.388,0.339l1.354,0.351
	l0.275,0.276l0.764,1.192l0.275,0.728l0.339,0.627l0.489,0.677l0.113,0.339l-0.125,0.84l0.162,0.502l0.389,0.289l1.015,0.063
	l0.339,0.125l0.551,0.063l0.564-0.163l0.401-0.389l0.339-0.113l0.551,0.514l0.05,0.389l-0.389,0.502l-0.677,0.276l-0.175,0.339
	l-0.062,0.502l-0.339,0.213l-0.614-0.113l-0.564-0.401l-0.551-0.514l-0.564-0.163l-0.664,0.038l-1.241,0.502l-0.903,0.151
	l-0.626,0.276l-0.451,0.615l-0.012,0.677l0.226,0.904l-0.852,0.715l-0.063,0.226l0.213,0.728l-0.175,1.016l-0.012,1.066l0.275,0.339
	l0.226,0.05l0.339-0.163l0.626-1.003l0.339-0.1l0.275,0.226l0.163,0.502l0.276,0.452l0.514,0.012l0.739-1.117l0.338-0.063
	l0.225,0.175l0.05,0.339l-0.401,0.778l-0.012,0.953l0.489,0.966l0.163,0.727l0.451,0.339l0.326,0.514L195.5,51.7l0.676,0.063
	l0.514-0.439l0.338-0.89l0.351-0.565h0.326l0.275,0.452l0.05,0.452L197.58,52l-0.514,0.565l-0.903,0.439l-1.178,0.038l-0.451,0.113
	l-0.676-0.063l-0.339-0.289l-0.764-1.857l-0.94-1.079l-0.664-0.226l-0.564,0.1l-0.727,0.05l-0.339,0.05l-0.338,0.276l-0.012,0.677
	l0.601,1.242l0.038,1.568l0.175,0.226l0.726,0.012l0.275,0.226l0.05,0.677l-0.401,0.778l-0.451,0.326l-0.739,0.113l-0.677,0.326
	l-1.077,1.844l-0.463,1.166l0.426,1.806l0.326,0.677l1.354,0.075l0.614,0.452l0.84,0.125l0.338-0.226l0.175-0.452l1.003-0.1
	l0.226-0.339l0.351-0.326h0.226l0.601,0.514l0.451,0.289l1.792,0.464l0.551,0.226l0.514,0.063l0.163-0.276l-0.1-0.276l-0.451-0.351
	l-0.05-0.163l0.113-0.452l0.853-0.778l1.516-0.1l0.564-0.376l0.339,0.163l-0.012,0.74l0.163,0.163l0.451,0.063l0.564-0.552
	l0.012-0.84l0.401-0.389l0.388-0.063l0.451,0.125l1.516-0.264l0.226,0.113l0.213,0.389l-0.289,1.179l-0.012,0.904l0.226,0.226
	l0.339,0.05l0.339-0.163l0.564-0.715l1.479-1.455l0.915-1.393l0.903-0.376l0.463-1.568l-0.05-0.79l-0.715-1.179l-0.388-0.351
	l-0.401,0.063l-0.226,0.439l-0.113,0.677l-0.225,0.213l-0.451-0.05l-0.952-0.69l-0.1-0.452l0.339-0.84l-0.05-0.502L205.7,52.54
	h-0.325l-0.289,0.213l-0.739,0.452l-0.777-0.012l-0.501-0.175l-1.077-0.012l-0.275,0.276l-0.175,0.289l-0.501-0.012l-0.275-0.289
	l-0.113-0.326l0.063-0.401l0.175-0.389l-0.113-0.389l-0.275-0.452l-0.1-0.74l0.226-0.276l0.451,0.063l1.053,1.417l0.501,0.226
	l0.727,0.125l1.065-0.389l1.241-0.602l0.903-0.665l0.514-0.276l0.401-0.615l-0.05-0.339l-0.727-0.953l-0.163-0.401l-0.601-1.129
	v-0.502l1.128-0.552l0.952,0.175l0.514-0.552l1.416-0.766l0.163-0.289l-0.1-0.339l-0.501-0.389l-1.178-0.013l-0.175-0.175
	l0.012-0.339l0.564-0.326l1.127-0.326l0.226-0.452l-0.05-0.502l-0.501-0.565l-0.777-0.238l-0.401-0.339l0.238-0.226l0.727-0.1
	l0.401-0.552l0.113-0.565l-0.489-1.129l-1.341-0.401l-0.338-0.289l-0.213-0.452l-0.626-0.013l-0.839,0.339l-0.275-0.063
	l-0.226-0.289l0.401-0.778l0.062-0.565l0.451-0.1h0.338l0.953,0.175l1.341,0.012l0.175-0.163l-0.05-0.452l-0.564-0.615l-0.551-0.175
	l-0.79-0.013l-1.968,0.816l-0.626,0.113l-0.326-0.175l-0.175-0.163l0.063-0.226l0.451-0.502l0.739-0.502l0.514-0.552l0.839-0.05
	l0.501-0.213l1.416-1.342l0.514-0.163l0.225-0.213l0.063-0.452l-0.501-0.627l-0.05-0.615l0.113-0.226l0.339-0.05l0.564,0.401h0.614
	l0.853-0.715l0.401-0.615l0.05-0.502l-0.326-0.514l-0.05-0.276l0.727-0.389l-0.1-0.677l-0.163-0.163l-0.451-0.012l-1.128,0.84
	l-0.451-0.125l-0.113-0.113l0.063-0.276l1.466-1.216l0.288-0.502l0.063-0.514l-0.389-0.452v-0.389l0.903-0.213l0.175-0.615
	l0.539-3.475l0.301-1.292l0.401-0.953l0.025-2.246l0.865-1.556l0.113-0.677l-0.05-0.565l-0.439-0.452h-0.627l-0.501,0.389
	l-0.401,0.665l-0.626,1.229l-0.238,0.728l-1.429,2.058l-0.501,0.163l-0.275-0.05l-0.226-0.289v-0.452l0.626-0.941l1.479-1.669
	l-0.1-0.514l-0.226-0.113l-1.303,0.778l-0.388-0.063l-0.226-0.338l0.235-0.338l1.227-0.552l0.965-0.715l0.401-0.778l1.303-1.229
	l0.639-1.166l0.226-0.953l0.125-1.117l-0.05-0.853l-0.15-0.727l-0.1-1.066l-0.389-0.953l-0.439-0.289l-0.739,0.163l-1.341-0.238
	l-0.439-0.565l-0.564-0.063l-0.275-0.289L209.696-0.021L209.696-0.021L209.696-0.021z M178.267,20.814l-0.451,0.276v0.615
	l0.163,0.339l0.564,0.012l0.388,0.389l0.05,0.514l-0.289,0.276l-0.676,0.276l-0.401,0.502l-0.213-0.063l-0.226-0.452l-0.226-0.113
	l-0.451,0.05l-0.275,0.276l0.1,0.903l-0.125,0.665l0.789,0.402l0.389,0.452l0.213,0.74l-0.063,0.389l-1.353,0.439l-0.614,0.276
	l-0.113,0.326l0.038,0.904l-0.789,0.778l-0.063,0.389l0.163,0.226h0.288l0.113-0.1l0.338-0.063l0.213,0.175v0.565l1.115,0.464
	l0.501,0.565l0.113,0.389l-0.238,0.163h-0.551l-0.84-0.79l-0.614-0.401l-0.551-0.012l-0.125,0.339l0.275,1.016l-0.062,0.665
	l-0.125,0.452l0.275,0.452l0.163,0.615l0.389,0.289l0.676,0.013l0.226,0.276l-0.063,0.289l-0.514,0.665l-0.113,0.452v0.276
	l0.439,0.401l0.213,0.677l0.451,0.452l0.226,0.05l0.225-0.163l0.012-0.891l0.113-0.338l0.338-0.05l0.213,0.226l0.163,0.565
	l0.338,0.05l0.965-0.264l0.275-0.276l0.289-0.502l0.275-0.063l0.677,0.238l0.163,0.226l-0.226,0.502l-0.063,0.452l0.275,0.677
	l0.05,0.439l-0.175,0.289l-0.564-0.013l-0.614-0.289l-0.676,0.276l-1.128,0.941v0.514l0.439,0.502l0.715,1.694l0.664,0.677
	l1.341,0.125l0.338,0.238l0.05,0.326l-0.388,0.226l-0.464,0.439v0.452l1.83,1.43l1.403,0.402l0.614-0.163l0.012-1.004l0.289-0.226
	l0.439,0.338h0.225l0.226-0.163l0.301-0.891l0.226-0.05l0.326,0.163l0.05,0.904l0.276,0.338h0.275l0.401-0.778l-0.088-1.518
	l0.226-0.339l0.501,0.125l0.226-0.389l-0.101-0.904l0.063-0.339l0.739-0.828l0.576-1.568l1.19-1.392l1.253-1.166l0.288-0.502
	l-0.062-0.113l-0.101-0.615l-0.889-1.417l-0.552-0.226l-0.839-0.125l-0.226-0.113h-0.225l-0.175,0.326l-0.05,0.401l-0.225,0.163
	l-0.226-0.113l-0.338-0.338l-0.1-0.565l0.288-0.677l-0.163-0.84l0.012-1.455l-0.889-0.627l-0.213-0.452l0.175-0.904l-0.275-0.677
	l-0.05-0.891l-0.113-0.113l-0.952-0.125l-0.226,0.226l0.05,0.778l0.439,1.016l-0.113,0.452l-0.289,0.276l-0.388-0.108l-0.276-0.226
	l-0.702-2.484l-0.226-0.226l-0.903-0.125l-0.326-0.113l-0.388-0.338l-0.326-1.581l-0.777-1.016l-0.764-1.581l-0.326-0.903
	l-0.501-0.79l-0.952-0.452l-0.952-0.125l0,0L178.267,20.814z M170.357,31.228l-0.676,0.163l-0.276,0.226l-0.188,0.84v0.615
	l0.339,0.175l0.326,0.276l0.163,0.74l0.275,0.339h0.451l0.175-0.389l-0.038-2.534l-0.05-0.05L170.357,31.228L170.357,31.228
	L170.357,31.228z M162.386,36.925l-0.965,0.276l-0.903,0.439l-0.401,0.665l-0.063,0.904l0.163,0.339l0.514,0.113l0.326,0.289
	l-0.012,0.79l0.288,0.05l0.113-0.1l0.388-0.063l0.338,0.125l0.113,0.338l-0.351,0.389v0.226l0.89,0.727l-0.275,0.452l0.163,0.389
	l0.05,0.565l-0.175,0.339l-0.339,0.05l-0.451-0.401l-0.389-0.05l-0.789,0.213l-0.275,0.276l-0.125,0.389l0.275,0.452l0.339,0.853
	l0.326,0.05l0.903-0.326l0.626-0.05l2.005,0.978l0.79-0.05l0.764,0.966l0.389,1.016l0.038,1.292l0.175,0.226l1.504,0.966l0.439-0.05
	l0.351-0.213l0.163-0.452l-0.15-1.467l0.013-1.004l-0.439-1.016l0.012-0.953l0.527-1.518l-0.339-0.89l-0.99-1.142l-0.564-0.289
	l-0.501-0.113l-0.163-0.904l-0.827-1.242l-0.213-0.163l-0.226-0.013l-0.351,1.129l-0.339,0.163l-0.388-0.175v-0.565l0.288-0.89
	l-0.1-0.565l-0.226-0.452l-0.388-0.401l-0.226-0.05l-0.489-0.565L162.386,36.925L162.386,36.925L162.386,36.925z M192.599,39.208
	l-0.727,0.163l-0.79,0.778l0.664,0.063l0.226-0.163l0.338-0.113l0.401-0.389L192.599,39.208L192.599,39.208z M151.347,40.35
	l-1.918,0.765l-1.178,0.326l-0.501,0.226l-1.291-0.012l-0.338,0.1l-0.062,0.677l0.213,0.226l1.354,0.075l0.388,0.163l0.501,0.627
	l0.275,0.113l0.451-0.615l0.338-0.1l0.827,1.016l0.514,0.113l0.251,0.15l0.413,0.251l0.501,0.063l0.677-0.552l0.351-0.502
	l-0.05-0.565l-0.715-1.857l-0.326-0.426l-0.175-0.201L151.347,40.35L151.347,40.35L151.347,40.35z M171.41,42.533l-0.113,0.163
	v0.389l0.439,0.966l-0.012,0.552l-0.401,0.615l-0.05,0.452l0.15,0.677l0.501,0.74l0.451,0.339l0.614,0.289l0.326,0.452l-0.175,0.326
	h-0.727l-0.338,0.213l-0.063,0.452l0.451,0.452l0.163,0.677l0.326,0.565l0.275,0.063l0.514-0.552l1.354-0.05l0.789-0.376l0.79-0.502
	l0.226-0.565l-0.05-0.552l-0.275-0.401l-0.226-0.452l-0.15-0.953l0.351-0.84l-0.339-0.452l-0.564-0.289h-0.552l-0.226-0.289
	l-0.163-0.565l-0.326-0.389l-1.178-0.301l-0.677-0.339l-0.601-0.514L171.41,42.533L171.41,42.533L171.41,42.533z M142.452,43.912
	l-0.238,0.552l0.276,1.016l0.213,0.502v0.565l0.326,0.339l0.339-0.05l0.238-0.389l0.338-0.439l-0.275-1.129l-0.601-0.966
	L142.452,43.912L142.452,43.912z M147.039,45.418l-1.466,0.539l-0.401,0.226l-0.288,0.276l-0.063,1.179l-0.576,0.778l-0.05,0.452
	l0.827,0.853l0.05,0.891l0.213,0.226l0.564,0.238l1.404-0.15l1.015,0.113l0.451-0.213l0.289-0.565l0.062-0.891l0.175-0.904
	l-0.05-0.389l-0.163-0.389l0.163-0.226l1.291-0.426l0.514-0.175l0.339-0.339l-0.05-0.615l-0.463-0.289l-0.764-0.175L147.039,45.418
	L147.039,45.418L147.039,45.418L147.039,45.418z M138.093,46.948l-0.451,0.276l-0.451,0.728l-0.677-0.063l-1.566-0.916l-1.003-0.012
	l-0.677,0.226l-0.903,0.765l-1.817,1.216l-1.127,0.941l-0.501,0.175l-1.303,0.038l-0.451,0.276l-0.225,0.84l-0.289,0.439
	l-0.225,0.226l-0.501-0.063l-0.339-0.226l-0.451-0.113l-1.178,0.489l-0.677,0.163l-0.113,0.339l0.1,0.615l-0.113,0.452l-0.012,0.953
	l0.388,0.276l0.952-0.213l0.338,0.226l0.276,0.677l0.388,0.063l0.338-0.439l0.401-0.05l0.389,0.452l0.05,0.389l-0.113,0.339
	l-0.012,0.615l0.226,0.226l0.777,0.175l0.614,0.063l0.627-0.615l0.012-0.615l0.225-0.439l1.291-0.05l0.852-1.004l2.105-2.785
	l0.451-0.276l0.339,0.175v0.339l-0.802,1.28l-0.351,1.117l0.275,0.514l0.101,0.677l0.175,0.338l0.275,0.113l0.739-1.117l1.127-0.665
	l0.903-0.1l0.401-0.389l0.063-1.229l0.175-0.339l0.676-0.1l0.226-0.452l-0.376-1.016l0.113-0.338l0.564-0.49l0.451-0.063
	l0.339-0.439l-0.05-1.016l-0.201-1.116l-0.339-0.402L138.093,46.948L138.093,46.948L138.093,46.948z M164.096,49.746l-0.389,0.226
	l-0.175,0.502l0.163,0.502l0.777,0.627l0.614,0.013l0.225-0.113h0.401l0.163-0.163l-0.05-0.565l-0.388-0.502l-0.664-0.351
	L164.096,49.746L164.096,49.746L164.096,49.746z M157.307,50.298l-0.226,0.439l-0.012,0.677l0.376,1.292l0.05,1.179l0.388,0.903
	l0.276,0.289l0.727,0.175l0.226-0.339l0.062-0.276l-0.05-0.84l-0.602-1.016l-0.313-2.258l-0.289-0.226L157.307,50.298
	L157.307,50.298L157.307,50.298z M177.832,51.076l-0.953,0.439l-1.24-0.188l-0.439,0.113l-0.627,0.778l-0.288,0.502l0.1,0.452
	l0.451,0.289l1.115,0.175l1.855-0.088l0.677,0.338l0.501,0.063l0.401-0.452l0.063-0.953l0.401-0.552l-0.05-0.389l-0.339-0.239
	l-1.065-0.063l-0.564-0.226l0,0L177.832,51.076z M184.333,52.204l-0.225,0.113l-0.351,0.615l-0.063,0.778l0.1,0.677l0.89,0.966
	l0.564,0.289l0.789-0.1l0.163-0.289l-0.038-1.292l-0.389-0.677l-0.777-0.565L184.333,52.204L184.333,52.204L184.333,52.204z
	 M139.985,53.71l-0.226,0.163v0.339l0.163,0.389l0.275,0.289l1.629-0.151l0.226-0.226l-0.163-0.226l-1.228-0.514L139.985,53.71
	L139.985,53.71z M138.444,56.331l-1.679,0.038l-0.401,0.389l-0.125,0.953l-1.015,0.038l-1.353,1.618l0.1,0.339l0.501,0.339
	l0.564,0.577l0.05,0.213l-0.226,0.113l-0.501-0.063l-0.953-0.627l-0.338,0.163l-0.451,0.565l-0.739,0.439l-0.175,0.389l0.338,0.339
	l1.792,0.414l-0.062,0.452l-0.339,0.163l-0.79-0.063l-0.501-0.175l-0.889-0.012l-0.451-0.113l-0.514,0.276l-0.451,0.326l0.05,0.452
	l0.94,1.079l0.564,0.514h0.664l0.614,0.577l0.213,1.342l0.451,0.289l0.163-0.163l0.338-0.063l0.439,0.464l1.404,0.012l0.338-0.113
	l0.288-0.439l0.125-0.677l0.338-0.226l0.439,0.125l0.175,0.339l-0.175,0.727l-0.012,0.502l0.275,0.289l0.401-0.113l1.403-0.1
	l0.339-0.163l0.339-0.05l1.115,0.577h0.501l0.627-0.326l0.388-0.05l0.338,0.226l0.05,0.615l-0.401,0.615l-0.564,0.389l-0.965-0.012
	l-0.777-0.125l-2.13-0.075l-0.401,0.05l-1.065,0.552l-1.065,0.05l-0.225,0.326l-0.012,0.728l0.601,1.242l1.892,1.204l0.953,0.063
	l3.659-1.192l0.902-0.439l1.077-0.251l1.454-0.338l0.463-0.389l0.677-0.452l0.664,0.238l0.213,0.84l0.451,0.339l1.516-0.426
	l1.178,0.74l0.614,0.063l0.676-0.163l0.614-0.276l1.027-0.991l0.401-0.84l0.401-1.568l0.802-0.84l0.288-1.393l-0.1-0.953
	l-0.275-0.565l-0.764-1.192l-0.564-0.175h-0.676l-0.677,0.439l-0.677,0.552l-0.339-0.063l-0.388-0.338l-0.376-0.953l-0.288-0.226
	l-0.439-0.063l-0.275-0.289v-0.339l0.451-0.439l0.338-0.226l0.175-0.502l-0.1-0.727l-0.614-1.079l0.063-0.339l0.514-1.229
	l0.012-0.778l-0.275-0.565l-0.389-0.289l-0.564,0.276l-1.077,1.166l-0.226,0.452l-0.225,0.213l-0.464,0.289l-0.162,0.1l-0.564,0.452
	l-0.175,0.326l0.05,0.452l0.275,0.401l0.138,0.113l1.09,1.129l0.1,0.565l-0.225,0.339l-0.389,0.163l-0.739,0.1l-0.163,0.338
	l0.05,0.452l0.601,0.677l0.05,0.677l0.84,0.84l0.05,0.565l-0.288,0.338l-0.727-0.012l-1.015-0.175l-0.627-0.188l-1.331-0.39
	l-0.776-0.351l-0.175-0.276l-0.15-1.242l0.062-0.452l-0.113-0.389l-0.777-0.69l0.063-0.276l0.401-0.276v-0.452l-0.94-0.966
	l-0.113-0.84l-0.388-0.389l-0.84-0.188l-0.727-0.289l-0.213-0.226l0.062-0.389l0.289-0.84l-0.275-0.452l-0.564-0.514l-0.89-0.226
	l0,0V56.331z M132.088,57.385l-0.339,0.113l-0.289,0.276l-0.388,0.276l-1.918,1.041l-1.077,0.389l-0.388,0.326l0.439,1.079
	l0.213,0.338l0.451,0.063l0.852-0.565l0.727-0.602l0.689-0.778l1.303-1.342l-0.05-0.439L132.088,57.385L132.088,57.385
	L132.088,57.385z M174.331,57.598l-0.113,0.175l-0.952,0.602l-0.012,0.452l0.338,0.339l0.05,0.226l-0.514,0.502l-0.05,0.389
	l0.213,0.175h0.514l0.275,0.289l0.163,0.677l0.389,0.389l0.1,0.79l0.225,0.226l0.501-0.1l0.389,0.163l0.063,0.175l-0.238,0.552
	v0.565l0.501,0.113l0.501-0.326l1.516,0.125l0.853-0.15l0.839-0.615h0.451l0.275,0.289l0.101,1.129l0.501,1.066l0.602,0.677
	l0.388,0.565l-0.012,1.242l0.275,1.016l0.101,0.615l-0.752,2.522l0.1,0.439l0.727,0.351l0.439,0.452l-0.125,2.02l0.163,0.339
	l0.614,0.125l0.551,0.727l0.389,0.401l0.451,0.063l0.339-0.226l0.339-0.113l0.564,0.125l1.227,0.514l0.727,0.063l0.564-0.213
	l0.401-0.565l0.063-0.502l0.163-0.389l0.339-0.226l0.338-0.05l0.451,0.113l0.275,0.401l-0.113,0.677l-0.012,0.615l0.338,0.226
	l1.617,0.012l1.241-0.213l2.694-0.075l0.676-0.113l1.855-0.653l1.968-0.201l0.338-0.339l0.689-1.054l0.401-0.389h0.338l0.601,0.577
	l0.339,0.163l0.89,0.238l0.965,0.125l0.677-0.891l0.401-0.226l0.953,0.012l0.339-0.226l0.175-0.439l0.225-1.016l0.012-0.452
	l-0.275-0.565l0.113-0.213l0.226-0.063l0.664,0.175l0.339-0.1l0.351-0.677l-0.05-0.452l-0.339-0.226l-0.839,0.213l-0.388-0.05
	l-0.175-0.175l0.012-0.615l0.564-1.004l0.301-1.405l-0.388-0.502l-0.339-0.125l-1.403,0.213l-0.213-0.289l0.163-0.326l0.125-0.452
	l-0.289-0.226l-0.439-0.063l-1.466-0.012l-0.326-0.401l-0.339-0.565l-0.664,0.05l-1.98,0.539l-0.501,0.339l-0.739,0.263h-0.727
	l-0.627,0.502l-0.726,0.778l-0.339,0.163l-0.626,0.05l-0.275,0.439l-0.853,0.213l-0.451,0.389l-0.451,0.615l0.489,0.565l0.063,0.339
	l-0.401,0.226l-0.614-0.063l-1.115-0.966l-0.664-0.239l-1.403,0.1l-0.626,0.439h-0.451l-0.1-0.339l0.113-0.502l-0.225-0.175
	l-0.389-0.163l-0.288,0.276l-0.012,1.518l-0.113,0.1l-0.389-0.05l-0.226-0.289l-0.213-0.79l0.012-1.342l-0.388-0.627l-0.439-0.339
	l-0.564-0.175l-1.34-0.175l-0.853,0.263l-0.388-0.05l-0.226-0.238l0.463-0.665l0.614-0.163l0.175-1.066l0.401-0.276L187,64.246
	l0.288-0.276l-0.113-0.339l-0.551-0.401l-1.566-0.803l-0.1-0.953l-0.564-0.452l-0.94-0.577h-0.903l-0.677,0.439l-0.451,0.439
	l-0.514,0.163l-0.389-0.113l-0.439-0.452l-0.827-1.643l-0.275-0.226l-0.389-0.113l-0.677-0.012l-0.726-0.677l-2.23-0.64
	L174.331,57.598L174.331,57.598L174.331,57.598L174.331,57.598z M186.046,58.79l-0.338,0.05l-0.163,0.402l-0.012,1.116l0.276,0.565
	l0.1,0.904l0.275,0.276l0.339-0.05l0.163-0.163l-0.038-1.016l-0.325-1.856L186.046,58.79L186.046,58.79L186.046,58.79z
	 M166.236,59.204l-0.789,0.389l-0.677,0.552l-0.401,0.615l0.05,0.226l0.401,0.163l0.389-0.1l0.564-0.389l0.401-0.452l0.451-0.213
	l0.113-0.175l-0.05-0.213L166.236,59.204L166.236,59.204z M158.878,59.907l-0.389,0.113l-0.288,0.276l-0.113,0.339l0.501,0.677
	l0.101,0.84l0.225,0.226l1.278,0.125l0.226-0.163l0.288-0.439l-0.05-0.627l-0.275-0.276l-0.451-0.239l-0.163-0.163l-0.163-0.339
	l-0.225-0.226L158.878,59.907L158.878,59.907L158.878,59.907z M169.918,60.873l-0.339,0.326l-0.514,0.89l-0.339,0.339l-0.451-0.063
	l-0.325-0.339l-0.276-0.84l-0.338-0.226l-0.552-0.012l-0.789,0.389l-0.514,0.439l-0.012,0.565l0.676,0.514l0.276,0.452l-0.075,0.953
	l0.501,0.953l0.276,0.74l0.05,0.552l-0.175,0.175l-0.339-0.125l-0.601-0.727l-0.339-0.514l-0.263-1.016l-0.715-1.405l-0.275-0.452
	l-0.839-0.239l-0.288,0.276l-0.289,0.727l0.339,0.402l0.05,0.565l-0.175,0.552l0.05,0.565l0.539,1.192l0.501,0.677l0.05,0.276
	l-0.275,0.226l-0.389-0.063l-0.564-0.627l-0.388-0.05l-0.739,1.004l-0.339,0.1l-0.564,0.338l-0.226,0.326l-0.062,0.728l0.439,0.125
	l1.127-0.502l1.968-0.138l0.79-0.113l0.839-0.439l0.852,0.012l0.439,0.339l0.05,0.452l-0.501,0.439l-0.463,0.615l-0.79,0.727
	l-0.401,0.439l-0.113,0.452l0.326,0.452l0.05,0.276l-0.339,0.452l0.226,0.615l0.376,0.627l0.388,0.389l1.191-0.539l1.905,0.238
	l1.24-0.878l0.339-0.339l0.238-0.338l0.05-0.389l-0.101-1.016l0.125-0.389l0.388-0.389l0.351-0.439l-0.05-0.677l-0.439-1.355
	l0.075-1.229l0.225-0.728l0.125-0.79l0.113-0.728l-0.05-0.677l-0.439-0.565l-0.05-0.778l-0.664-0.916l-0.389-0.163l-0.1-0.677
	L169.918,60.873L169.918,60.873L169.918,60.873z M159.239,63.119l-0.903,0.213l0.1,0.452l0.339,0.79l0.275,0.113l0.727-0.326h0.676
	l0.677-0.163l0.401-0.389l-0.05-0.439l-0.288-0.125l-0.501,0.163l-0.501-0.163l-0.451,0.1L159.239,63.119L159.239,63.119
	L159.239,63.119z M113.539,65l-0.339,0.326l-0.125,1.179l-0.564,1.004l-0.125,0.677l0.1,1.004l-0.125,0.904l-0.451,0.727
	l-0.739,0.778l-1.416,1.041l-1.077,1.229l-0.338,0.615l-0.626,0.615l-0.677,0.326l-1.767,2.283l-0.677,0.502l-0.451,0.552
	l-1.529,1.216l-0.288,0.677l0.163,0.452l1.541,2.709l0.977,2.371l0.226,0.665l-0.125,1.016l-0.351,0.552l-0.338,0.84l-0.063,0.339
	l0.113,0.452l0.213,0.452l1.854,0.013l0.952-0.264l0.564-0.226l0.451-0.389l0.339-0.163l0.614,0.351v0.389l0.226,0.226l0.451-0.113
	l1.453,0.025l0.614-0.113l0.226-0.113l1.892-3.513l0.451-0.439l0.514-0.339l1.065-0.15l0.852-0.389l0.388-0.276l0.338-0.389
	l0.414-0.953l0.614-0.439l2.03-0.816l2.08-0.715l2.268-1.154l0.89-0.276l1.077-0.038l0.389,0.113l0.451-0.1l0.501-0.502l0.564-0.113
	l0.401-0.389l-0.05-0.953l-0.263-1.292l-0.1-0.84l-0.777-1.192l-0.05-0.728l-0.927-1.581l-1.065-0.74l-0.952-0.289l-1.291,0.038
	l-0.715-0.565l-0.626-0.239l-0.601-0.452l-0.777-0.74l-0.338-0.79l-0.527-2.246l-0.338-0.514l-0.501-0.175l-1.353,0.213
	l-0.727-0.063l-0.839-0.289l-0.89-0.063l-1.178-0.527l-1.178-0.226l0,0L113.539,65z M161.896,65.728l-0.501,0.1l-0.952,0.326
	l-0.463,0.904v0.163l1.403,0.012l0.451-0.665l0.451-0.339l-0.05-0.226L161.896,65.728L161.896,65.728L161.896,65.728z
	 M177.208,66.781l-0.226,0.113l-0.113,0.339l0.163,0.452l0.489,0.502l0.401,0.125l0.275-0.276l-0.1-0.677l-0.439-0.514
	L177.208,66.781L177.208,66.781z M176.844,69.303l-0.79,0.439l-0.564,0.452l-0.125,0.338l-0.401,1.004l-0.576,1.054l-1.015,0.891
	l-0.062,0.728l0.163,0.338l1.003,0.74l0.614,0.627l0.501,0.289l0.501,0.452l0.326,0.452l0.551,0.565l0.79,0.012l0.564-0.05
	l0.275-0.113l1.015-0.1l0.175-0.339l0.125-1.229l-0.188-3.537l-0.326-0.74l-0.827-1.129l-1.003-1.016L176.844,69.303L176.844,69.303
	L176.844,69.303L176.844,69.303z M156.922,69.491l-0.226,0.276l-0.125,0.677l-0.226,0.665l-0.288,0.276l-0.175,0.452l0.113,0.452
	l0.388,0.401l0.501,0.276l0.903,0.012l0.226-0.226l0.175-0.439l-0.163-1.179l0.063-0.79l-0.213-0.565l-0.501-0.289L156.922,69.491
	L156.922,69.491L156.922,69.491z M173.703,69.504l-0.451,0.1l-0.626,0.778l-0.012,0.904l0.401,0.063l0.614-0.615l1.19-0.602
	l-0.05-0.289l-0.514-0.113l-0.213-0.175L173.703,69.504L173.703,69.504L173.703,69.504z M57.344,73.505L48.32,83.728l-21.352,24.221
	L7.259,130.305l1.065,1.857l0.739-0.226l0.677,1.907l1.566-0.088l1.98,1.431l-1.429,1.066l-0.1,1.154v0.038l0.012,0.728l0.313,0.69
	l-0.351,0.941l0.401,4.315l0.125,1.367l-0.752,2.195l-0.426,0.565l-0.038,0.301l0.514,0.05l0.263-0.201h0.915l0.639-0.012
	l0.439,0.113l0.388-0.012l0.702,0.389l0.313,0.05l0.376-0.038l0.514-0.263l0.463-0.351l0.326-0.477l0.326-0.251l0.589,0.301
	l0.301-0.1l0.188-0.314l0.025-0.452l0.226-0.05l0.99,0.452l0.752,0.163l0.388-0.038l1.228,0.226l0.125,0.389l0.163,0.589
	l0.125,1.656l-0.1,0.314l-0.539,0.138l-0.038,0.539l-0.15,0.351l0.025,0.69l0.251,0.389l0.012,0.376l-0.063,0.552l0.113,0.188
	l0.25,0.552v0.64l-0.426,0.251l0.138,2.07l0.439,1.292l0.163,1.732l0.15,0.665l0.138,0.426l-0.025,0.238l-0.263,0.151l-0.226,0.276
	l0.113,0.627l-0.451,2.446l-0.05,2.434l-0.326,2.497l-0.063,2.258l-1.04,0.766l0.063,0.364l0.551,0.74l0.1,0.225l-0.827,0.816
	l-0.038,0.539l0.451,0.64l-0.15,0.275l-0.15,0.376l-0.275,0.289l0.012,0.502l0.576,0.502l0.414,0.314l0.601,1.694l0.664,1.004
	l0.376,0.451l0.363,0.239l0.088,1.066l0.476,0.326l0.138,0.263l-0.288,0.201l-0.05,0.351l0.238,0.464l0.263,0.151l0.627,0.314
	l0.088,0.477l-0.113,0.464l-0.2,0.502l-0.063,0.188l-0.063,0.113l-0.175,0.1l-0.226,0.113l-0.338,0.151l-0.301,0.151l-0.213,0.138
	l-0.15,0.137l-0.1,0.226l-0.088,0.188l-0.063,0.188l-0.1,0.175l-0.138,0.188L22.197,189l-0.05,0.213l-0.1,0.264l-0.088,0.188
	l-0.075,0.263l-0.063,0.251l-0.025,0.175l-0.075,0.175l-0.088,0.213l-0.063,0.151l-0.025,0.188l-0.038,0.263l-0.05,0.189
	l-0.038,0.088l-0.088,0.05l-0.125,0.025l-0.213,0.051l-0.213,0.112v0.012l-0.125,0.088l-1.353,0.965l0.226,0.138l0.551,0.514
	l0.05,0.565l-0.226,0.163l-0.839-0.012l-0.965,0.727l-1.291,0.263l-1.592,1.669v0.502l0.326,0.74l0.163,0.677l-0.013,0.552
	l-0.626,0.891l0.05,0.853l0.213,0.728l0.1,1.015l-0.012,1.179l0.376,1.957l0.05,0.112l0.288,0.125l0.226-0.677l0.852-0.715
	l0.677-0.276l2.468-0.038l0.226,0.125l0.05,0.389l-0.514,0.615l-0.626,0.326l-0.338,0.451l-0.401,0.778l-0.614-0.125l-0.276,0.062
	l-0.463,0.778l-0.063,0.451l0.213,0.954l0.1,0.904l0.276,0.614l0.05,0.502l-0.401,0.791l-0.113,0.84l0.163,0.502l0.388,0.225
	l0.213,0.402l-0.677,0.891l-0.401,0.389l-0.451,0.275l-0.226,0.339l-0.012,0.778l0.451,0.627l0.213,0.904l0.213,0.339l0.401,0.05
	l0.501-0.326l1.178-0.1l1.19-0.377h0.614l0.113,0.339l-0.238,0.677l-0.063,0.778l-0.627,0.564l-0.727,0.213l-0.739,0.101
	l-0.789,0.389l-1.566,0.264l-1.128,0.439l-0.175,0.326l-0.063,0.853l-0.175,0.39l0.05,0.225l0.401,0.276l0.439,0.012l0.113,0.225
	l-0.063,0.339l-0.564,0.552l-0.501,0.05l-0.063,0.39l-0.514,0.777l-0.514,0.502l-0.175,0.452l0.764,2.471l0.326,0.853l0.388,0.452
	l0.388,0.062l0.576-0.665l0.326,0.163l0.451,0.627l1.717,1.53l0.275,0.677l0.05,0.339l-0.802,1.228v0.728l0.326,0.339l0.501,0.175
	l0.677,0.451l0.777,0.966l0.839,0.062l0.664,0.239l0.839,0.84l-0.012,0.339l0.113,0.401l0.614,0.502l0.501,0.69l-0.012,0.727
	l-0.451,0.502l-0.626,0.376l-0.063,0.627l0.388,0.903l0.489,1.406l0.163,0.339l0.388,0.112l0.677-0.275l0.564,0.012l0.439,0.614
	l0.113,0.627l-1.14,1.054l0.05,0.565l0.827,1.178l0.163,0.339l0.401,0.063l0.501-0.163l0.451-0.339l0.451-0.051l0.226,0.175
	l0.05,0.39l-0.288,1.128l-0.075,0.727l0.226,0.727l0.601,0.627l-0.226,0.439h-0.952l-0.288,0.214v0.339l0.827,0.389l0.125-0.038
	l0.376,0.275l4.524,2.082l5.012,2.221l5.05,2.145l5.075,2.057l5.113,1.982l5.138,1.907l5.163,1.819l5.2,1.731l2.995,0.954
	l1.579,0.514l0.539,0.201l0.188,0.05l2.331,0.703l2.732,0.816l5.275,1.492l5.288,1.405l5.325,1.33l0.188,0.038l5.15,1.192
	l5.351,1.166l5.375,1.066l5.388,0.992l5.401,0.89l5.426,0.816l5.425,0.739l5.439,0.64l3.659,0.376l0.062,0.012l0.213,0.012
	l1.754,0.163l5.451,0.477l5.464,0.376l5.476,0.314l5.476,0.213l5.477,0.125l4.749,0.038l0.063-3.462l0.351-0.026l0.226,0.076
	l0.238-0.025l0.326,0.075l0.376,0.175l0.201,0.175l0.025,0.188l-0.075,0.703v0.025l0.439,2.208l0.05,0.514l0.275,0.965l0.226,0.276
	l0.664,0.564l1.24,0.076l0.564,0.175h0.853l0.764,0.251l0.614,0.452h1.065l1.19-0.727l1.14-0.175l0.739-0.025l0.551,0.1l1.429,0.728
	l0.326,0.05l0.301,0.615l0.589,0.301l0.351,0.39l0.05,0.451l0.225,0.49l0.439,0.075l0.501-0.564l0.464-0.326h0.526l0.2,0.201
	l0.138,0.402l0.326,0.288l0.326,0.226l0.2,0.025l0.263-0.051l0.2,0.026l0.05,0.05l0.075,0.175l0.05,0.175l0.075,0.125l0.125,0.075
	l0.251,0.062l0.025,0.051l0.138,0.1l0.2,0.05l0.201,0.051l0.225,0.025h0.175l0.238,0.025l0.1,0.025l0.376-0.025l0.301-0.075
	l0.238-0.076l0.275-0.264l0.225-0.351l0.226-0.275l0.363-0.201l0.226-0.163l0.2-0.125l0.201-0.101l0.225-0.125l0.289-0.051
	l0.15,0.251v0.151l0.251,0.163l0.815,0.502l0.376-0.026l0.339,0.151l0.201-0.05l0.652,0.025l0.664-0.1l0.814-0.026l0.301,0.026
	l0.075,0.125l0.075,0.025l0.075,0.051l0.075,0.1v0.025l0.025,0.076l0.075,0.038l0.363,0.251l0.125,0.051l0.226-0.025l0.226-0.125
	l0.414-0.125l0.301-0.05l0.301,0.075l0.075,0.076l0.075,0.025l0.113-0.05l0.125-0.076l0.075-0.05l0.351-0.113h0.05l0.326-0.401
	l0.689-2.358l0.614-0.615l0.702-0.325l0.539,0.715l0.351-0.038l0.439-0.677l0.175-0.49l0.351-1.743l0.351-0.49l0.339-0.05
	l0.401,0.389l-0.125,0.853l-0.301,0.665v0.539l0.226,0.125l0.275-0.213l0.288-0.577l0.702-1.656l-0.05-0.677l-0.401-0.79l0.075-0.44
	l0.676,0.038l1.328,0.301l1.742,0.74l1.015,0.251l1.379-0.05l1.541-0.364h1.291l0.715,0.163l1.165,0.602l0.289,0.439l-0.025,0.553
	l0.125,0.79l1.04,1.317l1.667,1.681l0.614,0.527l1.466,0.076l1.504-0.276l1.065-0.376l0.526-0.101l0.363,0.402v1.216l0.05,0.565
	l0.325,0.527l1.692,1.292l0.489,0.564l-0.025,1.192l-0.514,1.066v0.54l0.389,0.225l1.241,0.201l0.275,0.276l-0.025,1.505
	l-0.226,0.891l0.1,0.402l0.614,0.125l0.676-0.151l0.79,0.051l1.391,0.965l1.103,0.427l1.918,0.075l0.79-0.452l0.514,0.125
	l1.215,0.125l3.32,0.025l1.015-0.225l1.115-0.025l0.789-0.125l0.501,0.025l0.79-0.125l0.664,0.251l0.401,0.275l0.564,0.076
	l0.551-0.175l1.19-0.101l1.015-0.326l0.839-0.715l0.301-0.05l0.225,0.175l0.489,0.84l0.764,0.527l0.501,0.665l1.115,1.142
	l0.439,0.276l0.551,0.74l0.89,0.301l0.351,0.163l0.489,0.941l2.156,2.208l0.501,0.803v0.389l-0.275,0.125l-0.451-0.076l-0.388-0.175
	l-0.226,0.05l-0.125,0.352l0.1,0.564l0.489,1.242l-0.162,0.452l-0.276,0.276l-0.526,0.137l-0.514-0.025l-0.426-0.025l-0.664-0.289
	l-0.839-0.577l-0.501-0.175l-0.839,0.326l-1.366-0.49l-0.313-0.351v-0.965l-0.2-0.226l-0.915-0.125l-0.727-0.741l-0.313-0.225
	l-0.275-0.715l-0.125-0.125l-1.166-0.125l-0.339,0.125l-0.351,0.276v0.389l1.78,1.367l0.764,0.84l0.501,1.016l0.05,1.066
	l-0.226,0.891l-0.689,1.392l-0.476,1.242l-0.075,1.116l0.275,1.756l0.275,1.117l0.201,1.806l0.05,1.956l-0.301,0.677l-1.091,0.991
	l-0.676,1.067l-0.614,0.439v0.276l-0.251,0.665l-0.1,0.653l-0.313,1.756l0.339,0.075l0.226,0.402l-0.175,0.489l-0.025,0.452
	l0.175,0.175l0.05,0.615l-0.351,0.451l-0.664,0.364l-0.965,0.275h-0.326l-0.965,0.665l-0.226,0.577l0.201,1.067l0.401,0.05
	l0.614,0.389l1.291,0.025l0.664-0.339l0.451-0.1l0.401,0.175h0.389l0.225-0.502l0.201-0.665l1.115-0.627l1.14-1.43l0.89-0.326
	l1.215-2.183l1.015-1.217l0.614-0.339l1.015-0.151l0.451-0.225l0.514-0.175h3.909l0.977-0.275l0.213-0.214l-0.05-0.275l-1.328-0.076
	l-0.275-0.301v-0.364l0.351-0.451l0.664-0.402l0.965-0.15l2.256-1.154l0.689-0.251l1.792-0.677l1.153-0.038l0.752-0.225
	l-0.101-0.841l-0.401-0.275l-0.439-0.251l-0.276-0.451l-0.05-0.791l-0.551-0.614l-2.055,1.342l-1.554,0.088l-0.714-0.339
	l-0.401-0.401l0.05-0.351l0.564-0.715l0.326-0.565l0.376-0.677l0.388-0.439l0.627-0.941l0.363-0.376l1.391-1.342l1.09-0.665
	l2.356-1.041l0.339-0.05l0.401-0.151l0.714-0.301l1.98-1.204l0.226-0.05l0.401,0.125l0.514,0.213l0.94,0.075l0.852-0.389
	l0.664,0.163l0.614-0.49l0.476-0.765l-0.1-0.402l-0.175-0.225l-1.404-0.075l0.163-0.514l0.225-0.201l1.241-0.175l0.301-0.275
	l0.263-0.615l1.416-0.765l0.626-0.553l1.077-0.439l1.19-1.217l0.576-0.577l0.125-0.54l0.313-0.79l0.965-1.116l1.04-2.283
	l0.652-0.716l0.263-0.251l0.025-0.012l0.175-0.062l5.691-1.882l5.675-2.007l5.614-2.082l2.431-0.954l0.025-0.076l0.075-0.213
	l0.075-0.602l0.125-0.264l-0.025-0.527l-0.15-0.175l-0.1-0.075l0.125-0.289l0.125-0.275l0.05-0.326l0.15-0.125l0.564,0.125
	l0.275,0.025l0.339-0.615l0.2-0.527l0.226-0.125c0.004,0.002,0.009-0.002,0.012,0l0.2,0.026l0.025,0.025l0.213,0.251l0.125,0.376
	l0.251,0.101l0.15-0.025l0.15-0.226l0.075-0.275v-0.05l-0.025-0.076l-0.05-0.339l-0.175-0.225l-0.2-0.376l0.025-0.151l0.151-0.138
	h0.275l0.288,0.113l0.2-0.051l0.075-0.112l-0.05-0.151l-0.201-0.175l-0.489-0.401l-0.1-0.151l0.05-0.289l0.15-0.351l0.263-0.539
	l0.401-0.376l0.301-0.251l0.025-0.225v-0.125l-0.075-0.238l-0.25-0.251l0.15-0.376l0.175-0.49l0.125-0.527l0.025-0.263l-0.175-0.125
	l-0.251-0.025l-0.226-1.016l-0.15-0.125l-0.125-0.1l-0.113-0.276l-0.025-0.275l-0.05-0.051l-0.125-0.79l0.125-0.665l0.439-0.627
	l-0.363-1.68l-0.2-0.891l0.025-0.151l0.251-1.318l0.213-0.941l0.827-3.763l0.188-1.116l0.226-0.025l0.476-0.101l0.151,0.025
	l0.138,0.125l0.15,0.201l0.025,0.138l0.151,0.351l0.038,0.076l0.125,0.201l0.138,0.125l0.251,0.1l0.802,0.213l0.088-0.225
	l0.627-0.602l0.175-0.276l1.641-1.116l0.789-0.326l0.727,0.012l1.842,0.966l0.664,0.514l0.363,0.589l0.426,1.004l1.679,3.939
	l1.19,2.446l0.038,0.101l0.1,0.125l0.063,0.125l-0.075,0.151v0.113l0.063,0.1l0.175,0.088l0.075,0.062l0.025,0.188l0.05,0.175
	l0.012,0.189l0.038,0.175l0.088,0.188l0.1,0.175l0.125,0.088l0.1,0.012l0.15-0.163l0.113-0.038h0.188l0.088,0.113l0.125,0.125
	l0.163,0.138l0.226,0.038l0.288-0.05l0.213-0.101l0.225-0.112l0.175-0.025h0.138l0.125,0.038l0.038,0.062l0.075,0.188l0.025,0.301
	l-0.088,0.264l0.012,0.175l0.138,0.151l0.376,0.301l0.1,0.125l0.101,0.188l0.025,0.251l-0.038,0.162l0.025,0.239l0.075,0.112
	l0.138,0.051l0.025,0.062l0.414,0.289l0.301,0.188l0.213,0.062l0.263-0.038l0.088-0.088l-0.012-0.101l-0.088-0.151v-0.151
	l0.075-0.088h0.138l0.263,0.05l0.15-0.05l0.113-0.025l0.113,0.062l0.238,0.225l0.2,0.175l0.038,0.038l-0.038-0.401l0.288-0.339
	l0.501-0.163l0.79,0.239h0.451l0.853-0.778l0.727-0.163l0.451-0.275l0.514-0.665l0.238-0.841l0.339-0.552h0.839l0.451-0.276
	l0.689-0.777l0.564-1.117l0.238-0.552l0.915-1.455l0.501-0.389l0.451-0.44l0.576-1.004l0.526-1.405l0.175-0.841l0.903-0.376
	l0.389-0.05h0.062l0.101,0.339l-0.514,1.004l-0.125,0.777l-0.626,1.631l-0.012,0.777l0.275,0.175l0.226-0.112l0.288-0.552
	l0.626-0.615l2.707-1.543l0.677-0.163l1.579-0.602l0.614,0.012l0.275,0.225l0.063,0.276l-0.226,0.275l-1.303,0.553l-0.677,0.552
	l-0.514,0.777l-0.576,1.292l-0.338,0.213l-0.226-0.113l-0.263-1.066l-0.339-0.339l-0.451,0.051l-0.275,0.275l-0.639,1.292
	l-1.14,1.442l-0.401,0.665l-0.915,2.183l-0.977,1.568l-0.339,0.325l-0.175,0.728l-0.451,0.564l-0.626,1.167l-0.175,0.564
	l0.163,0.276l0.727-0.213l0.226,0.275v0.565l-0.289,0.614l-0.012,0.728l0.213,0.74l0.664,0.677l0.501,0.79l0.776,0.677l0.564,0.012
	l0.113-0.113l0.339-0.05l0.564,0.113l0.94,0.351l0.614,0.953l0.276,0.063l0.739-0.778l0.388-0.213l0.401-0.502l0.125-1.066
	l0.351-0.677l0.564-0.275l0.514-1.342l0.764-2.572l0.401-1.619l0.288-0.84l-0.05-0.615l-0.602-0.69l-0.113-0.452v-0.275l0.576-0.502
	l0.226-0.615l0.338-0.1l1.404,0.288l0.614-0.326l0.451-0.451l0.025-1.342l1.93-2.007l0.839-0.49l0.739-0.777l0.576-1.004
	l1.479-1.957l1.767-2.497l0.677-0.451l0.626-0.716l0.451-0.84l0.464-0.339l0.551-0.163l0.351-0.44l-0.05-0.451l-0.338-0.175
	l-1.241,0.552l-0.839,0.163l-0.451-0.289l0.175-0.564l-0.163-0.226l-1.178-0.451l-0.451-0.012l-0.677,0.439l-0.514,0.502
	l-0.275-0.05l-0.777-0.803h-0.501l-0.225,0.339l-0.175,0.665l-0.965,0.941l-0.175,0.452l-0.289,0.275l-1.065,0.326l-0.903-0.125
	l-0.777,0.051l-0.852,0.389l-0.627,0.891l-0.727-0.063l-0.677-0.351l-0.677,0.276l-0.614,0.389l-0.677-0.062l-0.89-0.175
	l-0.05-0.076l-0.125-0.151l0.125-0.275l0.388-0.389l-0.1-0.289l-0.903-0.012l-1.015,0.326h-0.789l-0.389-0.239l-0.839,0.051
	l-0.839,0.389l-0.451-0.062l-0.727-0.741l-0.275-0.451l-0.664-0.627l-0.451-0.275l-0.05-0.175l-0.339-0.113l-0.839,0.101
	l-0.439-0.339l-0.163-0.677l-0.05-0.954l-0.338-0.175l-1.115-0.012l-0.739,0.564l-0.339-0.125l-0.163-0.39l0.576-1.341l-0.1-1.179
	l-0.163-0.401l0.012-0.39l0.113-0.677l-0.1-0.777l-0.439-1.016l-0.439-0.451l-0.626,0.213l-0.564,0.439l-0.739,0.452l-0.339,0.44
	l-0.226,0.727l-0.351,0.665l-0.451,0.275l-0.564-0.163l-1.053-1.028l-0.664-0.113l-1.641,0.426l-1.453,0.214l-0.201-0.214
	l-0.15-0.125l0.175-0.339l0.689-0.553l0.853-0.564l0.789-0.715l0.614-0.101l0.576,0.213l0.363,0.076l1.19-0.163l0.576-0.276
	l0.739-0.991l0.614-1.342l0.175-0.665l0.301-0.677l1.09-1.455l0.175-0.777l-0.05-0.966l-0.15-0.941v-0.69l-0.451-0.452l-1.015-0.514
	l-0.99-0.225l-2.795-0.251l-3.095,0.752l-1.015,0.539l-1.14,1.117l-1.015,0.715l-2.055,1.882l-2.995,2.96l-1.717,2.497l-0.915,1.066
	l-1.253,2.158l-0.326,0.301l-1.391,2.108l-0.514,1.016l-1.215,3.349l-0.426,2.521l-0.814,3.073l-0.865,2.91l-0.401,0.615
	l-0.564,0.715l-0.79,0.627l-1.667,2.157l-0.439,1.016l-0.702,0.615l-0.889,0.101l-0.664,0.502l-0.752,0.941l-1.353,1.43l-2.055,3.5
	c-0.004,0-0.008,0.001-0.012,0l-1.04,1.756l-0.175,0.225l0.05,0.276l-0.401,0.213l-0.088,0.351l-0.2,1.217v1.066l-0.1,0.74
	l-0.025,0.226v0.615l-0.251,0.627l-0.865,0.841l-0.251,0.251l-0.689,0.514l-1.065,0.477l0.614-0.941l0.727-0.502l0.463-0.326
	l0.301-0.389l0.225-0.677l-0.075-0.716l-0.125-1.141l0.175-0.175l0.05-0.138l0.113-0.803l0.401-1.556l0.689-1.292l0.476-1.041
	c0.004,0.002,0.009-0.002,0.012,0v-0.025l1.065-1.38l3.759-4.692l1.241-0.715l0.564-0.602l0.702-1.016l0.439-0.991l0.476-0.74
	l0.965-1.041l0.351-0.891l0.05-0.891l0.289-1.292l0.702-0.89l0.288-0.891l0.226-1.468l0.325-2.747l0.125-0.727l0.639-3.813
	l0.251-0.665l0.514-2.02l0.301-0.84l0.401-0.841l0.79-1.957l0.865-1.116l0.05-0.351l0.526-1.041l0.689-0.615l1.629-0.64l0.552-0.577
	l0.125-1.116l-0.15-0.841l0.075-1.856l0.539-3.299l0.739-1.292l1.027-0.816l0.689-0.451l0.789-1.016l1.855-1.092l2.531-1.167
	l2.945-1.405l1.19-0.715l2.256-1.167l0.839-0.275l0.715-0.151l2.782-1.656l1.304-0.553l1.291-0.715l1.19-0.552l0.715-0.213
	l0.576,0.112l0.439-0.112l1.817-1.543l1.479-0.991l1.466-0.766l1.404-1.066l1.191-1.041l0.301-0.577l-0.1-1.016v-0.439l0.839-1.443
	l0.075-0.74l0.251-1.342l0.401-1.166v-0.69l-0.376-0.452l-0.175-0.313l0.125-0.477l0.614-0.866l0.025-1.318l0.175-0.539l1.015-0.891
	l0.451-0.175l0.439-0.552l0.251-0.941l0.351-1.016l0.839-0.941l0.915-0.276l0.627-0.275l0.188-0.138l-0.188-0.326l0.2,0.326
	l1.09-0.74l0.226-0.339l0.063-0.841l1.328-3.298l0.238-0.891l-0.15-2.585l-0.602-0.74l-0.727-0.627l0.012-0.565l0.389-0.49
	l-0.275-0.288l-0.501,0.05l-0.677,0.326l-0.79-0.063l-0.439-0.727l-0.501-0.514l0.012-0.84l-1.003-1.029l-0.376-0.903l-0.727-0.677
	l-0.664-0.339l-1.015-0.289l-0.664-0.289l-0.953-0.238l-0.727,0.163l-1.127-0.125l-0.79,0.665l-0.288,0.665l-0.075,1.794
	l-0.339,0.339l-0.953-0.464l0.012-0.954l0.289-0.552l-0.05-0.401l-0.288-0.276l-1.003-0.627l-0.777-0.689l-0.727-0.175l-1.918,0.765
	l-1.065,0.841l-0.464,0.602l0.163,0.289l0.339,0.112l0.163,0.339l-0.05,0.339l-0.576,0.778l-0.288,0.564l-0.677,0.777l-0.238,0.553
	l-0.175,1.016l-0.063,1.178l-0.401,0.389l-0.451,0.276l-0.125,0.954l-0.175,0.439l-0.626,0.727l-0.351,1.179l-0.514,0.777
	l-0.389,0.44l-0.225-0.565l0.125-1.054l-0.326-0.401l-0.275-1.355l0.351-1.004l0.576-1.167l1.529-1.843l1.09-1.556l0.012-0.79
	l-0.288-0.339l0.012-0.452l1.19-1.731l2.331-2.723l-0.15-1.178l-0.339-0.339l-0.614-0.012l-0.564,0.225l-0.953-0.125l-0.551-0.677
	l-0.564-0.112l-0.501,0.263l-0.351,0.502l-0.288,1.016l-0.451,0.552l-0.451,0.226l-0.727-0.063l-0.953-0.414l-0.614-0.113
	l-0.79-0.401l-0.551,0.05l-0.351,0.339l-0.275,0.44l-0.339,0.163l-0.501-0.175l-0.627,0.339l-0.614-0.627h-0.389l-0.451,0.276
	l-0.401,0.614l-0.339,0.39l-1.416,0.653l-0.325-0.226l0.012-1.242l-0.163-0.44l-0.777-1.028l-0.163-0.452v-0.389l-0.275-0.175
	l-0.903,0.502l-0.451,0.326l-0.451,0.112h-0.564l-0.339,0.276l-0.952-0.351l-0.501,0.05l-0.626,0.326l-0.226-0.05l-0.163-0.339
	l0.012-0.565l-0.501-0.288l-0.339-0.339h-0.564l-0.451,0.501l-0.501-0.012l-1.003-0.564l-0.626-0.012l-0.564,0.213l-0.213-0.225
	l0.062-0.389l0.79-0.941l0.113-0.339l-0.551-0.966l-0.376-0.502v-1.016l0.188-1.681l-0.163-0.451l-0.552-0.226l-0.401-0.012
	l-0.79,0.339l-0.606-0.062l-0.389-0.514l-0.213-0.452l-0.389-0.175l-0.677,0.113l-0.614-0.175l-0.175-0.175l0.012-0.452l0.626-0.715
	l-0.063-0.401l-0.325-0.226l-0.451-0.564l-0.326-0.904h-0.664l-1.253,0.941l-0.226-0.062l-0.1-0.225l-0.05-0.791l-0.338-0.338
	l-0.552-0.226l-0.614-0.125l-0.226-0.225l-0.113-0.564l-0.439-0.728l-0.389-0.062l-0.903,0.778l-1.416,0.552l-0.388-0.402
	l0.238-0.502l0.564-0.665l-0.1-0.627L306,173.951l-0.225-0.225l-0.439-0.113l-0.564,0.05l-0.777-1.079l-0.89-0.401l-0.664-0.903
	l-0.451,0.05l-0.401,0.276l-0.275-0.063l-0.439-0.79l-1.404-0.401l-1.165-0.628l-0.614-0.514l-0.551-0.74l-0.439-0.727l-0.902-0.351
	l-0.765-1.405l-0.275-0.226l-0.288,0.1l-0.589,0.175l-0.138,0.05l-0.301,0.539l-0.075,0.904l0.175,0.74v0.79l-0.125,0.991
	l-0.125,0.452v0.84l0.151,0.565l0.226,0.351l0.439,1.342l-0.025,1.856l-0.075,0.615l0.626,0.677l0.05,0.841l-0.251,1.015
	l0.225,0.891l-0.626,0.665l-0.739-0.213l-0.275,0.264l-0.075,2.132l-0.464,0.803l-0.626,0.765l-0.739,1.556l-0.426,1.016
	l-0.313,0.101l-0.226-0.125l-0.664-0.891l-0.94-0.464l-1.14-0.175l-0.501-0.05l-0.489-0.564l-1.24-0.653l-0.552-0.101l-0.664,0.101
	l-1.704,0.991l-0.853,0.627l-0.213,0.665l-0.125,0.941l-0.351,0.175l-0.489-0.025l-0.626-0.84l-0.276-0.727l0.175-0.339l0.101-0.051
	l0.576,0.39l0.213-0.101l0.175-0.44l-0.226-0.915l0.175-0.326l0.351-0.175l0.351-0.314v-0.351l-0.501-0.351l-0.175-0.84
	l-0.489-0.402h-0.451l-0.226,0.402l-0.175,0.15l-0.339-0.15l-0.551-1.142l0.175-0.565l-0.101-0.326l-0.439-0.564l-0.175-0.276
	l-0.2-0.965l-0.226-0.276l-0.664-0.301l-0.351-0.288v-0.377l0.526-0.527l-0.225-0.539l-0.552-0.69l-0.889-0.903l-0.263-0.564
	l-0.1-0.891l-0.401-0.627l0.401-0.966l0.025-0.84l-0.451-0.84l-0.351-0.276l-0.363,0.05l-0.175,0.276l0.1,0.351l0.351,0.263
	l0.313,0.401l0.05,0.352l-0.175,0.137l-1.453-0.038l-0.376-0.351l-0.401-0.627l-0.263-0.113l-1.241,0.665l-0.401,0.539h-0.564
	l-0.677-0.113l-1.729-0.025l-0.79,0.163l-0.739-0.389l-0.225-0.225l-0.201-0.84l-0.351-0.402l0.075-0.74l0.175-0.402l-0.225-0.439
	l-0.213-0.1l-0.852,0.314l-0.94-0.389l-0.564-0.351l-1.015-0.301l-0.777-0.063l-0.664-0.577l-0.226-0.439l-0.489-0.351l-1.955-0.527
	l-1.366-0.514l-0.539-0.351l-0.527,0.301l-0.275,0.276l-0.689,0.991l-0.715,0.715l-0.702,0.351l-0.839,1.117l-0.351-0.075
	l-0.664-0.276l-0.489-0.025l-1.466,0.665l-0.351-0.125l-0.313-0.213h-1.19l-2.406-0.276l-2.506,0.125l-0.414,0.414l-0.351,0.452
	l-0.839,0.59l-0.476,0.904v1.016l0.426,0.966l0.564,0.966l0.652,0.941l0.89,0.965l0.501,0.74l0.163,0.502l-0.125,0.74l0.552,1.907
	l-0.025,1.066l-0.564,1.242v0.589l0.138,0.301l0.451,0.351l0.564-0.226l0.351,0.226l0.15,1.116l0.489,0.339l0.225,0.351l0.226,1.417
	l0.689,1.33l0.226,0.225l0.351,0.125l0.489,0.351l0.401,1.192l-0.125,0.364l-0.351,0.226l-0.213,0.225l-0.226,0.615l-0.025,1.342
	l-0.226,0.665v0.351l0.326,0.514l0.05,0.275l-0.451,0.991l-0.075,1.066l-0.251,0.577l-0.94,0.991l-0.113,0.339l0.539,0.803
	l0.1,0.665l0.226,0.665l0.489,0.577l0.94,0.74l1.98,0.427l0.501,0.175l1.73,1.128l1.491,1.066l2.544,2.635l1.792,2.647l0.639,1.342
	l0.501,1.467l0.138,0.966l0.125,1.116l0.15,0.565l0.15,1.694l-0.05,0.439l-0.125,1.292l-0.414,1.016l-0.301,2.571l-1.215,2.108
	l-0.664,1.016l-1.667,3.173l-1.09,1.066l-0.79,0.677l-0.965,1.431l-2.331,1.167l-0.94,0.15l-0.225,0.226v0.225l0.325,0.339
	l0.839,0.225l0.501,0.477l0.715,1.116l0.226,0.514l0.489,0.502l0.903,0.125l0.439,0.44l0.326,1.467l0.326,1.355l0.489,1.116
	l0.1,0.966l0.789,0.965l0.702,1.242l0.339,1.016l0.652,0.677l0.439,0.916v0.765l0.652,1.468l0.839,0.238l0.614,1.016l0.05,1.116
	l-0.125,0.577l-0.413,0.991l-0.251,2.132l0.125,0.564l0.489,0.577l0.551,0.263l0.05,0.402l0.125,1.192l-0.125,0.401l-0.576,0.49
	l-0.226-0.076l-0.113-0.1l-0.426-1.292l-0.275-0.289h-1.015l-0.489-0.627l-0.401,0.1l-0.301,1.117l0.012,0.038l-0.175,1.606
	l-0.025,0.841l-0.263,0.539l-0.301,0.225h-1.115l-0.89-0.251l-1.291-0.665l-0.351-0.251l-0.313-0.439l-0.275-0.502l-0.889-0.966
	l-1.516-1.367l-0.589-0.464l-1.241-0.402l-0.614-0.439l-0.501-0.79l-0.589-0.753l-0.852-1.016l-1.88-1.531l-1.065-1.016
	l-0.664-0.527l-0.501-0.05l-0.175-0.226l0.075-0.915l0.025-2.057l-0.163-0.69l-0.426-0.891l-0.551-2.358l-0.313-0.564l-0.175-0.527
	l-0.614-0.841l-0.526-1.643l-0.226-1.016l0.2-2.271l0.351-0.966l-0.125-0.627l-0.426-1.167l-0.1-0.841l-0.288-0.301h-0.376
	l-0.639,0.677l-0.94-0.026l-0.451,0.125l-0.401-0.075l-0.564-0.326l-1.115-0.025l-1.466,0.326l-1.165-0.251l-1.754,0.225
	l-1.241,0.314l-0.79,0.101l-1.729-0.125l-1.065,0.201l-0.84-0.339l-1.34-0.853l-1.88-0.965l-0.965-0.289l-0.05,0.05l-0.576,0.213
	l-0.439-0.05l-1.566-0.915l-1.341-0.59l-0.89-0.175l-0.739,0.175h-0.401l-0.439-0.251l-0.451-0.05l-0.664-0.402l-0.05-0.564
	l-0.325-0.665l-1.78-1.932l-1.165-0.627l-0.764-0.565l-0.965-0.802l-1.04-0.59l-0.526-0.175h-0.251l-0.012,0.012l-0.79-0.012
	l-0.903-0.125h-0.614l-0.952-0.239l-0.664-0.401l-1.341-1.016l-0.777-0.401l-1.178-0.188l-2.306-0.026l-0.903,0.276l-1.742,0.941
	l-0.739,0.49l-0.564,0.163l-0.664-0.062l-0.614-0.452l-0.451,0.101l-0.451-0.051l0.351-1.467l-0.1-1.116l-1.015-4.115l-0.601-1.681
	l-0.715-1.531l-0.664-1.066l-0.163-0.79l0.125-0.565l0.225-0.552l-0.05-0.339l-0.339-0.175l-0.614-0.012l-0.74,0.502l-0.325-0.063
	l-0.727-0.564l-0.889-0.289l-0.903,0.326l-0.451,0.163l-0.903,0.389l-0.288-0.062l-0.1-0.565l-0.05-0.677l-0.439-0.904l-0.664-0.502
	l-0.113-0.451l0.125-1.016l0.175-0.502l0.125-1.117l-0.213-1.63l-0.088-1.631l0.05-0.452l0.113-1.041l0.025-0.138l0.188-0.589
	l0.614-1.806l-0.1-0.903l-0.226-0.339l0.464-0.728l0.789-0.89l0.363-1.568l0.752-2.408l0.514-1.054l0.012-1.242l0.238-0.502
	l0.564-0.439l1.303-1.342l0.063-0.326l-0.113-0.226l-0.288-0.012l-0.439-0.225l-0.05-0.225l0.163-0.226l0.789-0.602l0.74-0.84
	l0.238-0.941l0.677-0.276l0.802-0.954l0.677-0.275l0.451-0.326v-0.339l-0.501-0.175l-0.05-0.339l0.388-0.326l1.466-0.038
	l0.163-0.289l-0.05-0.439l-0.213-0.239l-0.614-0.275l-0.739-0.063l-0.275-0.238l0.125-0.552l0.226-0.226l0.677-0.05l2.682,0.088
	l0.451-0.113l0.401-0.777l0.564-0.276l0.739-0.777l0.401-0.778l-0.05-0.74l-0.162-0.552l-0.489-0.627l-0.677-0.452l-0.777-0.351
	l-1.278-0.916l-0.839-0.175l-0.626,0.05l-0.664,0.163l-0.514-0.062l-0.715-0.677l-0.677-0.239l-0.889-0.627l-0.89-0.452
	l-0.903-0.238h-0.551l-0.451,0.213h-0.339l-0.113-0.339l0.113-0.452l0.627-0.151l0.451-0.389l0.389-0.063l0.676,0.239l3.847,1.831
	l1.918-0.038l0.664,0.627l1.115,0.289l0.501,0.402l1.516,0.025l0.451-0.565l0.903-0.439l0.288-0.439l0.188-1.518l0.289-0.615
	l0.789-0.502l2.582,0.025l0.614-0.263l0.789-0.727l0.903-0.389l0.626-0.602l0.238-0.565l0.289-1.179l0.175-1.004l0.513-0.213
	l0.514-0.565l0.175-1.003l0.175-0.339l0.526-1.957l-0.05-0.565l-0.451-0.615l-0.552-0.238l-1.065-0.125l-3.033-0.025l-1.516-0.301
	l-1.103-0.79l-0.677-0.74l-1.103-1.029l-0.953-0.452l-2.005-0.702l-0.226-0.226v-0.502l0.339-0.163l0.401-0.113l0.84,0.288
	l1.403,0.075l0.827,0.175l0.839,0.514l1.454,0.69l1.115,1.129l0.827,0.514l1.466,0.251l1.227,0.125l0.839-0.163l0.853-0.552
	l0.113-0.339l0.852-0.89l0.739-1.166l0.289-0.904l0.075-0.778l0.614-0.665l0.514-0.79l-0.038-0.778l-0.389-0.452l-0.952-0.188
	l-1.228-0.514l-0.388-0.401l-0.113-0.615l0.238-0.452l0.213-0.1l0.965,0.013l0.94,0.289l1.354-0.389l0.564,0.175l0.501,0.514
	l0.05,0.502l0.213,0.339l0.965,0.012l0.89,0.238l0.225-0.113l0.063-0.452l0.113-0.326l0.339-0.226l0.839,0.351l0.614,0.615
	l0.564,0.012l0.388-0.276l-0.05-0.401l-0.827-0.84l-0.339-0.904l0.175-0.339l0.339-0.113l0.339,0.063l0.552,0.853l0.501-0.05
	l1.304-1.004l0.626-0.665l0.689-1.004l1.379-2.91l0.275-0.389l0.514-0.1l0.389-0.389l-0.038-1.694l-0.313-2.07l-0.714-0.69
	l-0.903-0.514l-0.94-0.966l-0.777-1.066l-0.263-0.853l-0.839-0.728l-0.263-1.079l-0.225-0.226l-0.226-0.113h-0.225l-0.326-0.226
	l-0.113-0.339l0.288-0.565l0.388-0.1l0.339,0.163l0.79,0.012l0.326,0.113l0.225-0.05l0.289-0.452l0.639-1.781l0.175-0.79l-0.1-0.389
	l-0.289-0.226l-0.551-0.289l-0.163-0.514l0.175-0.778v-0.615l-0.388-0.351l-0.389-0.163l-1.629-0.075l-0.501-0.289l-1.053-0.853
	l-0.113-0.338l0.175-0.552l-0.05-0.339l-0.281-0.226l-2.807-0.038l-1.291-0.238l-1.115-0.289h-0.388l-1.015,0.439l-1.128-0.188
	l-0.339,0.163l-0.05,0.289l0.363,1.744l0.038,1.731l0.163,0.853l0.389,0.389l0.89,0.464l0.789,0.514l0.05,0.389l-0.464,1.179
	l0.163,0.338l0.339,0.339l0.05,0.452l-0.289,0.213l-0.451-0.05l-0.439-0.239l-0.288,0.063l-0.289,0.439l-0.175,1.066l0.15,1.97
	l-0.075,2.132l-0.576,1.342l-0.463,0.665l-0.125,0.891l-0.075,2.584l-0.514,0.615l-0.952-0.012l-0.226,0.226l0.05,0.389l0.163,0.339
	l-0.113,0.339l-0.514,0.276l-0.276,0.351l-0.125,0.15h-0.389l-0.15-1.192l-0.827-1.467l-1.391-1.531l-0.652-1.743l-0.552-0.728
	l-0.05-0.74l-0.163-0.84l0.012-1.066l0.238-0.665l0.275-0.226l0.225,0.113l0.101,1.355l0.325,0.389h0.339l0.226-0.326l0.238-0.953
	l-0.1-0.677l-0.552-1.129l-0.551-1.292l-0.877-1.029l-1.554-1.467l-0.451-0.226l-0.226-0.289l-0.1-0.565l-0.451-0.113l-0.275,0.163
	l-0.238,0.615l-0.79,0.89l0.038,0.79l0.225,0.891l-0.012,0.953l-0.626,0.953l-0.088,2.408l-0.339,0.452h-0.451l-0.275-0.289
	l-0.163-0.953l-0.326-0.452l-0.113-0.677l-0.088-1.681l-0.865-2.597l-0.664-0.853h-0.113l-0.113-0.163v-0.627l0.338-0.163
	l0.401-0.439l0.226-0.615l-0.1-0.452l-0.275-0.226l-1.403,0.1l-0.614-0.464l-0.288,0.05l-0.614,0.677l-0.226,0.05l-1.504-1.079
	l-0.501-0.464v-0.326v-0.226l0.689-0.778l0.338-0.565l-0.05-0.565l-0.776-0.84l0.012-0.627l0.275-0.213h0.288l0.94,0.79l0.389,0.012
	l0.238-0.389l-0.063-0.452l-0.439-0.452l-0.552-0.402l-0.339-0.514l-0.263-0.84l-0.451-0.565l-0.715-0.74l-0.776-1.192l-0.101-1.631
	l-0.526-2.296l-0.439-1.192l-1.115-1.192l-0.603-1.067l-0.388-0.401l-0.564,0.163l-0.226,0.163h-0.451l-0.326-0.338l-0.05-0.953
	l-0.275-0.289l-0.79-0.012l-0.275,0.289l-0.012,0.84l-1.19,1.216l-0.401,0.226v0.226l0.389,0.276l0.451,0.125l0.163,0.339
	l-0.063,0.213l-0.789,1.292l-0.401-0.125l-0.213-0.552l-0.338-0.012l-0.175,0.226l-0.338,0.778l-0.238,0.728l0.163,0.677l0.05,0.677
	l-0.527,1.393l0.163,0.79l0.226,0.339l0.664,0.175l0.288,0.289l0.101,0.389l-0.627,0.615l-0.225,0.05l-0.451,0.452l-0.401,0.615
	l-0.113,0.502l0.1,0.89l0.275,0.966l0.601,1.242l1.391,1.355l0.776,0.577l0.664,0.677l0.451,0.113l0.339-0.1l0.225-0.339
	l0.339-0.113l0.275,0.338l0.439,1.129l0.326,0.514l0.564,0.063l0.564-0.276h0.075h0.602l0.213,0.226l0.05,0.677l-0.276,0.389
	l-0.288-0.063l-0.551-0.339l-0.339,0.05l-0.451,0.339l-0.062,0.276l-0.012,0.79l-0.113,0.665l-0.739,1.179l-0.075,0.778l0.275,0.565
	l0.451,0.238h0.727l0.288-0.276l0.125-1.179l0.339-0.326h0.339l0.275,0.565l0.125,3.036l-0.451,0.439l-0.677,0.276l-0.401,0.552
	l-0.226,0.953l-0.689,1.229l-0.451,0.452l-0.339,0.1l-1.466,0.1l-0.501,0.276l-0.288,0.276l-0.025,2.082l0.326,0.84l0.213,1.568
	l-0.025,1.694l-0.05,0.439h-0.739l-0.15-0.728l-0.339-0.351h-0.501l-0.739,0.501l-0.275-0.063l-0.175-0.175l0.012-0.439l0.226-0.565
	l-0.552-0.966l0.125-0.665l0.451-0.727l0.125-0.339l-0.325-1.016v-0.439l0.451-0.502l-0.038-1.179l0.564-0.89l-0.162-0.401
	l-0.339-0.113l-0.439,0.113l-0.464,0.276l-0.213-0.063l-0.389-0.338l-0.965-0.075l-0.326-0.226l-0.551-0.727l-0.614-0.577
	l-0.839-0.401h-0.275l-0.351,0.89l-0.451,0.226l-0.564-0.063l-0.552-0.175h-0.288l-0.226,0.163l-0.063,0.502l0.727,0.916
	l-0.012,0.728l0.113,0.452l0.501,0.502l0.388,0.125l0.84-0.163l0.614,0.113l1.441,1.53l0.163,0.452l-0.163,0.452l-0.288,0.389
	l-0.514,0.163l-0.439-0.063l-0.288-0.113l-1.053-0.69l-0.727-0.79l-0.439-0.677l-0.614-0.677l-0.326-0.113l-0.226,0.163
	l-0.012,0.615l0.113,0.565l-0.288,0.276l-0.501,0.163l-1.127-0.063l-0.84-0.351l-0.664-0.514l-1.127-0.125l-0.664,0.113
	l-2.318,0.653l-0.501-0.063l-1.178,0.151l-0.501-0.113l-0.388-0.175l-0.376,0.063l-0.188,0.038l-0.451-0.276l-0.664-0.69
	l-1.892-1.756l-0.326-0.452l-0.325-0.677l-0.226-0.113l-0.338,0.113l-0.79,0.439l-0.451-0.012l-1.003-0.514l-0.388-0.339
	l-0.05-0.903l-0.339-0.226l-1.003-0.514l-0.388-0.389l-0.389-0.627l0.063-0.452l0.288-0.552l-0.15-1.016l-0.715-1.856l-0.439-0.565
	l-0.564-0.125l-1.015,0.163l-1.24,0.552l-1.065,0.264l-2.87,0.364l-0.564,0.213l-0.339,0.276l-1.416,1.505l-0.062,0.338l1.003,1.016
	l1.227,0.238l0.451-0.213l0.225-0.289l-0.1-0.326l0.226-0.339l0.501-0.05l0.564,0.514l0.276,0.05l0.903-0.376l1.516-0.15l0.74-0.778
	l0.564-0.276h0.889l0.289,0.289l0.1,0.502l-0.338,0.677l-3.383,1.706l-0.739,0.151l-0.89,0.113l-1.354,0.602l-0.915,0.602
	l-0.614,0.615l-0.062,0.276l0.764,1.581l0.05,0.615l-0.175,0.452l-0.063,1.016l0.552,1.129l-0.125,1.166l0.263,0.904l0.05,0.565
	l-0.275,0.339l-0.226-0.063l-0.614-0.853h-0.389l-0.113,0.339l-0.063,0.665l-0.226,0.226h-0.401l-0.439-0.452l-0.439-0.79
	l0.276-0.276l0.288-0.615l0.063-0.677l0.175-0.339l-0.038-1.342l-0.776-1.242l-0.05-0.953l-0.326-0.402l-0.839-0.012l-0.113-0.226
	l-0.05-0.565l-0.388-0.728l-0.727-0.351l-0.714-0.904l-0.213-0.84l-0.388-0.339l-0.401,0.05l-0.614,0.276l-1.403,0.376l-0.74-0.125
	l-1.115-0.338l-1.855,0.088l-2.294-0.477l-1.504-0.69l-1.904-0.627l-1.279-0.916l-1.454-0.69l-0.451-0.063l-0.339-0.05l-0.1-0.514
	l-0.163-0.502l-0.05-0.452l0.903-0.615l0.401-0.727l0.226-0.05l0.677,0.238l0.551,0.339l0.514-0.276l0.388,0.175h0.677l0.388-0.502
	l0.238-0.728l-0.038-1.292l-0.777-1.857L119,116.084l-0.889-1.192l-0.777-0.401l-0.727-0.226l-1.291,0.151l-1.003-0.175l-2.068-1.43
	l-1.554-1.355l-0.827-1.643l-1.328-1.305l-2.005-1.593l-0.664-0.853l-0.526-0.803l0.012-0.012l-0.251-0.653l-1.667-2.308
	l-1.103-0.966l-1.341-0.753l-0.727-0.175l-0.564,0.113l-0.339,0.213l-0.238,0.728l-0.288,0.502l-0.501,0.615l-0.401,0.163
	l-0.677,0.113l-0.551-0.239l-0.451-0.276l-0.727-0.012l-0.1-0.677l0.226-0.84l0.226-0.326l0.451-0.226l0.351-0.778l-0.05-0.627
	l-0.1-0.452l0.05-0.326l1.429-1.894l0.063-0.565l-0.339-0.175l-0.339,0.05l-0.614,0.502l-0.689,0.778l-0.739,0.665L94.4,97.807
	l-0.739,0.665l-0.226,0.452l-0.564,0.489l-0.288,0.452h-0.514l-0.276-0.289l-0.263-0.677l-0.163-0.728l-0.1-1.355l0.2-2.408
	l0.075-1.794l-0.2-2.647l-0.276-0.891l-0.326-0.401l-0.677,0.326l-0.175,0.339l0.05,0.677l0.275,0.565l-0.012,0.502l-0.339,0.226
	l-0.727-0.289l-1.291,0.602v0.339l0.163,0.389l-0.012,0.226l-0.163,0.163l-0.727-0.175l-0.401,0.113l-0.451,0.439l-0.664-0.175
	l0.564-0.728l-0.163-0.226l-1.629-0.063l-1.341-0.301l-0.677-0.289l-0.902,0.213l-1.291,0.715h-0.614l-0.339-0.289l-0.05-0.502
	l-0.275-0.226l-0.339,0.05l-0.451,0.226l-0.789-0.075l-0.839-0.175l-0.389,0.05l-0.564,0.276l-1.015,0.1l-1.403,0.602l-0.514,0.389
	l-0.226,0.452l-0.226,0.113l-0.451-0.063l-0.664-0.79V92l0.175-0.502l0.451-0.439l1.128,0.012l1.065-0.439l2.644-0.364l0.79-0.226
	l1.065,0.013l1.003,0.514l0.952,0.012l4.048-0.401l0.677-0.113l0.451-0.213l0.226-0.276l-0.05-0.289l-0.451-0.502l-0.439-0.125
	l-1.178,0.1l-0.389-0.389l-0.275-0.565l-0.226-0.113l-0.501-0.012l-0.514,0.389l-0.903,0.552l-0.501-0.063l-0.389-0.401L79.3,88.049
	l-0.902,0.1l-1.679-0.125l-0.839-0.289l-0.839-0.012l-0.226,0.226l-0.238,0.615l-0.339,0.163l-2.005-0.464l-2.594,0.866
	l-1.015,0.276l-0.952,0.038l-0.339,0.05h-0.564l-0.715-0.677l-0.339,0.05l-0.175,0.339l-0.226,0.276l-0.339-0.063l-0.501-0.452
	l0.175-0.226l-0.113-0.677l-0.439-0.79l-0.514-0.464l-1.091-1.016l-1.103-1.694l-0.339-0.953l0.025-1.907l-0.601-0.79l-0.063-0.452
	l0.238-1.016l-0.05-0.439l-1.215-1.932l-1.103-1.919l-0.94-1.179l0,0L57.344,73.505z M214.798,80.595l-0.965,0.213l-0.952,0.552
	l-0.677,0.05l-1.679-0.301l-0.677,0.05l-0.113,0.063l-0.339,0.389l0.1,1.117l0.439,0.904l0.275,1.066l1.279,0.64l0.551,0.904
	l0.326,1.405l0.263,0.84l0.389,0.339l1.015-0.1l0.789-0.326l0.226-0.226l0.238-0.941l0.451-0.452l0.677-0.389l1.804-0.314
	l2.807,0.025l0.552-0.163l0.288-0.326l-0.05-0.502l-0.664-0.916l-0.614-0.565l-2.393-1.882l-1.053-0.677l-1.227-0.464
	L214.798,80.595L214.798,80.595L214.798,80.595z M130.976,81.234l-2.757,0.928l-1.241,0.539l-0.789-0.452l-2.644,0.816l-0.677,0.326
	l-0.677,0.502l-1.754,0.941l-0.564,0.602l-0.013,0.84l0.113,0.565l-0.125,0.339l-0.226,0.163l-0.664,0.113l-0.639,0.941
	l-0.501,0.452l-0.789,0.263l-0.564,0.389l-0.288,0.452l-0.012,0.615l0.338,0.339l0.839,0.012l0.338,0.113l0.05,0.452l0.339,0.389
	l0.05,0.401l-0.514,0.615l0.1,0.502l1.015,0.514l0.889-0.163l0.627,0.012l1.341,0.577l2.569,0.075l0.401,0.289l0.05,0.289
	l-0.226,0.213l-1.178-0.063l-0.739,0.326l-0.777-0.063l-0.451-0.113l-1.968-0.138l-1.065,0.163l-1.466,0.489l-0.852,0.778
	l-0.063,0.665l0.338,0.514l0.426,1.681l0.551,0.464l0.677,0.113l0.889,0.514l1.241,0.351l1.604,1.029l2.356,0.477l2.08-0.1
	l0.451,0.125l0.664,0.565l0.213,0.401l0.288,0.276l0.777,0.577l1.554,0.74l1.554,1.869l0.05,0.502l-0.338,0.452l-0.952-0.012
	l-0.677,0.1l-0.614-0.063l-1.842-1.079l-0.839-0.175l-1.065-0.627l-0.213-0.565l-4.31-1.004l-1.566-0.125l-1.679-0.025l-1.128,0.213
	l-0.564,0.389l-0.238,0.452l-0.063,1.004l0.213,1.016l0.263,0.765l0.451,1.154l0.927,2.195l0.551,0.514l2.794,1.43l0.952,0.401
	l0.777,0.464l0.614,0.502l0.1,0.677l-0.238,1.518l0.702,2.534l0.326,0.79l0.777,0.452l2.744,0.539l0.451,0.175h0.275l0.514,0.175
	l1.504,0.063l1.015,0.238l2.018,0.138l0.614-0.05l1.867-0.828l1.354-0.715l0.952-0.15l1.629,0.238l1.115,0.063l2.156-1.881
	l0.175-0.728l0.339-0.339l0.677-0.05l0.551,0.175l0.113,0.289l-0.175,0.326v0.627l0.275,0.389l0.552,0.289l0.564,0.113l0.664,0.514
	l0.614,0.627l0.339,0.063l0.339-0.163l0.451-0.05l0.226,0.113l0.05,0.389l-0.339,0.339l-0.739,0.1l-0.226,0.226l-0.063,0.389
	l0.289,0.289l0.551,0.226l1.178,0.012l0.839-0.1l0.677,0.175l1.617,1.016l1.015-0.326l0.727,0.125l0.564-0.1l0.451-0.339
	l1.015-0.151l0.564-0.502l0.225-0.565l-0.05-0.728l-0.376-0.904l0.05-0.226l0.351-0.276l-0.113-0.389l-0.339-0.402l-0.827-0.289
	h-0.401l-0.113,0.615l-0.626,0.05l-0.339,0.502l-0.225-0.063l-0.213-0.289l-0.1-1.179l-0.551-0.79v-0.728l0.514,0.012l0.764,0.904
	l0.514,0.175l0.275-0.113l0.175-0.338v-0.84l0.288-0.163l0.726,0.013l0.175-0.677l0.338-0.339l0.339-0.05l0.226,0.339l-0.012,0.627
	l0.113,0.778l0.326,0.226l0.401-0.1l0.113-0.615l0.175-0.401l0.514-0.326l0.388,0.452l0.213,0.953l0.225,0.063l0.338-0.163
	l0.226-0.339l0.012-1.907l0.175-0.665l-0.163-0.514l-0.439-0.226l-0.677,0.326l-0.451-0.113l-0.113-0.113l-0.1-0.514l-0.225-0.226
	l-0.727-0.175l-0.225-0.276l-0.263-0.853l-1.278-1.806h-0.564l-0.451,0.326l-0.339-0.063l-0.326-0.389l-0.714-1.467l-0.614-0.627
	l-0.275-0.565l-0.2-1.229l-0.552-0.916l-0.164-0.665l0.113-0.677l0.802-1.117l-0.201-1.794l-0.339-0.565l-0.251-2.082v-0.904
	l-0.1-0.665l-0.075-3.374l-0.1-1.292l0.125-1.179l-0.601-1.016l-0.727-0.904l-0.877-1.305l-0.501-1.016l-0.326-0.226l-0.451,0.05
	l-0.401,0.163l-0.326-0.276l-0.275-0.452l-0.275-0.289l-0.339-0.113l-0.401,0.389l-0.539,3.073l-0.062,1.016l-0.188,1.342
	l-0.075,2.195l-0.288,0.728l0.038,1.229l0.326,1.242l0.05,0.84l-0.351,0.665l-0.501,0.339l-0.238,0.552h-0.614l-0.389-0.289
	l-0.113-0.339l0.125-0.439l-0.05-0.74l-0.275-0.452v-0.552l0.238-0.727l-0.05-0.402l-0.275-0.452l0.2-2.697l-0.05-0.778
	l-0.501-0.452v-0.79l-1.366-2.822l-0.301-0.314l-0.138-0.138l-0.288-0.113l-0.614-0.012l-0.451,0.338l-0.113,0.439l0.275,0.452
	l0.601,0.577l0.326,0.125l-0.238,1.029l0.251-1.029l0.113,0.038l0.275,0.351l-0.063,0.276l-0.501,0.326l-0.075,0.038l-0.326,0.125
	l0.063,0.339l0.113,0.151l0.101,0.138l-0.05,0.226l-0.15,0.038l-0.188,0.063l-0.451-0.226l-0.163-0.175h-0.626l-0.451,0.326
	l-0.564,0.84h-0.614l-0.451-0.175l-0.514,0.276l-0.226-0.063l-0.163-0.389l0.125-0.401l0.339-0.213l0.564-0.05l0.339-0.339
	l0.113-0.452l-0.05-0.665l-0.326-0.677l-0.89-1.192l-0.439-0.953l-0.326-0.401l-0.727-0.514h-0.614l-0.451,0.439l-0.865,1.229
	l-0.626,0.665l-0.339,0.163l-1.454-0.012l-0.339,0.113l-0.225-0.125l0.012-0.439l0.451-0.565l1.241-0.653l0.677-0.502l0.401-0.565
	l-0.05-1.066l-0.426-1.857l-0.389-0.565l-0.439-0.113l0,0L130.976,81.234z M180.171,81.586l-0.339,0.05l-0.839,0.715l-0.514-0.063
	l-0.439-0.226l-0.451,0.226l-1.077,1.054l-0.125,0.339l0.175,0.389l0.389,0.401l-0.012,0.552h-0.839l-0.903,0.326l-0.012,0.615
	l0.388,0.565l-0.063,1.342l-0.188,1.292l0.038,2.246l-0.125,1.016l0.05,0.728l0.163,0.338l0.275,0.339l1.09,2.484l-0.063,0.89
	l-0.175,0.677l-0.012,0.79l0.339,0.226l0.79,0.063l0.439,0.338h0.288l0.501-0.276l0.752-2.459l0.464-1.004l-0.05-0.728l-0.489-1.129
	v-0.175l0.113-0.439l0.677-0.339l1.178,0.188l0.726,0.514l0.501,0.063l0.401-0.226l0.739-0.727l0.626-1.054l0.564-0.615l0.238-1.568
	l0.476-1.393l0.627-1.004l0.689-1.342l0.125-1.292l0.338-0.565l-0.05-0.326l-0.226-0.175l-1.516-0.301l-2.017,0.038l-0.451,0.226
	l-0.451,0.1l-0.551-0.565l-0.677-0.289l-0.827-0.565l-0.676-0.289L180.171,81.586L180.171,81.586z M206.99,81.862l-1.353,0.715
	l-0.839-0.012l-0.727-0.113l-0.401,0.213l-1.077,2.02l-0.965,0.653l-0.289,0.289l-0.677,0.326l-0.175,0.552l-0.062,1.016
	l-0.226,0.665l-0.514,0.79l-0.038,3.023l0.15,1.129l0.339,0.615l0.501,0.464l0.777,0.175l0.226,0.452l-0.576,0.778l-0.389,0.163
	l-0.238,0.389l0.388,0.79l-0.05,0.175l-0.915,0.489v0.339l0.664,0.514l0.451,0.84l0.389,0.401l0.439,0.113l0.339-0.113l0.727,0.012
	l0.501,0.514l0.226,0.677l0.1,0.89l-0.175,0.677l0.1,0.452l0.05,0.615l-0.501,0.502l-1.077-0.063l-0.101-0.339l0.226-0.338
	l0.226-0.113l0.288-0.389l-0.05-0.389l-0.501-0.565l-0.727-0.514l-0.776-0.69l-0.439-0.565l-1.667-1.643l-0.388-0.903l-0.263-1.342
	l0.025-2.471l-0.489-1.581l-0.313-1.467l0.113-0.665l0.238-0.79l0.125-1.844l0.238-0.79l0.677-0.602l0.175-1.016l0.401-0.778
	l0.514-0.728l-0.05-0.502l-0.213-0.226l-0.451-0.125l-0.739,0.276l-1.403,0.038l-0.664,0.226l-0.852,0.05l-0.79,0.376l-1.077,0.89
	l-0.614,0.728l-1.378,1.944l-0.627,1.455l-0.413,1.957l0.15,1.242l-0.339,0.89l-0.012,0.84l-0.401,0.502l-0.063,0.904l-0.288,0.728
	l-0.012,0.552l0.501,1.016l-0.125,1.292l0.301,2.421l0.038,2.471l0.213,0.615l0.339,0.339l1.178,0.125l0.839-0.439l0.79,0.402
	l1.053,0.351l0.401-0.276l0.339-0.05l0.326,0.276l0.225,0.565l0.439,0.401l0.451,0.063l0.451,0.338l0.05,0.339l-0.289,0.276
	l-1.679,0.1l-0.839-0.301l-0.388-0.276l-0.677-0.351l-0.777-0.063l-0.463,0.452l-0.05,0.502l0.263,0.677l0.163,1.066l0.614,0.627
	l0.275,0.502l0.601,0.853l0.451,0.339l0.501,0.063l0.163,0.175l0.326,0.89l0.339,0.351l0.501,0.05l0.288-0.326l0.339-0.113
	l0.439,0.289l0.501,0.113l0.514-0.163l0.175-0.326l-0.163-0.565l-0.05-0.452l0.113-0.226h0.501l0.338,0.351l0.163,0.452l0.551,0.339
	l1.278,1.53l0.501,0.113l0.439,0.565l0.339,0.113l0.564-0.1l0.852-1.004l0.739-0.502l0.389,0.012l0.388,0.502l0.439,0.238l1.015-0.1
	l0.739-0.276l0.89-0.05l1.128-0.376l0.614,0.113l1.566,0.69l0.676,0.175l0.451-0.326l0.339-0.565l0.451-0.05l0.501,0.175
	l0.952,0.627l0.439,0.063l0.289-0.452v-0.276l-0.163-0.226l-0.614-0.401l-0.05-0.276l0.175-0.565l0.288-0.276h0.614l0.676,0.125
	l0.439-0.113l0.514-0.276l0.564,0.012l0.889,0.677l0.275,0.063l1.466-0.552l0.451-0.439l-0.05-0.452l-1.441-1.806l-0.439-0.339
	l-1.065-0.012l-0.225-0.226v-0.565l0.514-0.339l0.789,0.013l1.504,0.351l0.677,0.627l0.501,0.175l0.501-0.226l0.564,0.012
	l0.275,0.226l0.275,0.84l0.827,1.242l0.213,0.74l0.113,0.113l0.339,0.063l0.339-0.175l0.063-0.389l0.226-0.226l1.178,0.301
	l0.213,0.163l0.05,0.339l-0.276,0.452l-0.062,0.389l0.275,0.289h0.501l0.401-0.163l0.564,0.012l0.389,0.452l0.389,0.339l1.617,0.966
	l0.439,0.514l0.05,1.004l-0.289,0.565l-1.416,0.552l-0.162,0.213l0.325,0.514l-0.012,1.292l0.226,0.276l0.614,0.063l0.614-0.439
	l0.576-1.004l0.238-1.004l0.739-0.778l0.276-0.063l0.501,0.238l1.291,0.239l1.78,1.694l0.388-0.1l0.564-0.276l0.564-0.113
	l0.226,0.289l0.038,0.953l0.677,0.74l0.664,0.289l0.777,0.565l0.677,0.012l0.501,0.175l0.501,0.502l1.215,1.806l0.94,0.853
	l0.388,0.966l1.103,1.192l0.389,0.565l0.05,0.502l-0.339,0.452l-0.288,0.276l-0.238,1.794l-0.012,1.066l0.113,0.452l-0.526,1.505
	l-0.514,1.229l-1.253,1.731l-0.351,0.615l-0.175,0.615l0.163,0.727l0.275,0.339l1.278,0.916l1.516,0.627l0.439,0.452l0.602,1.029
	l0.113,0.502l-0.226,0.339l-1.403,0.038l-0.351,0.615l-0.401,0.953l-0.275,0.213l-1.291,0.05l-0.288,0.439l-0.125,0.502
	l-0.226,0.289l-1.453,0.038l-0.853,0.602l-1.065-0.125l-0.614-0.226l-1.454-0.188l-1.015,0.05l-0.727,0.389l-0.351,0.439v0.84
	l0.388,0.565l0.213,0.514l-0.113,0.339l-1.241,0.653l-0.289,0.276l-0.288,0.452v0.677l0.764,1.405l0.275,0.853l0.389,0.502
	l0.99,0.966l1.791,0.803l1.178,0.125l0.339-0.276l0.739-1.004l0.677-0.213l0.677-0.665l1.077-0.552l-0.113-0.514l-0.439-0.502
	l-0.05-0.226l0.226-0.452l0.339-0.05l0.501-0.213l0.401-0.063l1.003,0.351l0.79,0.351h0.664l0.564-0.389l0.063-0.326l-0.275-0.452
	l0.012-0.627l0.339-0.213l0.339-0.677l0.288-0.276l0.501-0.1l0.451,0.389l-0.012,1.016l0.1,0.677l0.226,0.226l0.339-0.226
	l0.175-0.891l0.339-0.175l2.118,1.267l0.903,0.339l0.827,0.853l1.003,0.577l0.664,0.677l0.952,0.125l0.389,0.502l0.275,0.063
	l1.416-0.602h0.564l0.551,0.125l0.501,0.401l0.05,0.439l-0.113,0.565l-0.012,1.292l0.163,0.728l0.326,0.351l0.677,0.163l0.501,0.627
	h0.388l1.015-0.602l3.584,0.765l0.727-0.163l1.027-0.765l0.839,0.175l0.275,0.226l0.163,0.677l0.275,0.276l0.614,0.125l0.551,0.226
	l0.677,0.514l0.451-0.276h0.564l0.501,0.402l0.326,0.062l2.757-0.753l1.691-0.1l1.403-0.151l2.068,0.301l1.127,0.239l0.89-0.213
	l0.463-0.615l-0.05-0.728l-0.827-1.142l-0.564-0.565l-1.115-0.239l-0.162-0.113l-1.003-1.016l-1.053-0.514l-1.065-0.125
	l-1.629-0.803l-1.341-0.188l-0.953-0.565l-0.952-0.012l-0.389-0.175l-2.619-1.819l-0.839-0.464l-1.003-0.402l-0.113-0.163
	l0.063-0.402l0.288-0.213l0.677-0.226l1.065,0.125l1.003,0.289l1.115,0.577l0.163,0.175l0.339,0.05l0.125-0.389l0.614-0.213h0.677
	l0.501,0.175l0.839,0.464h0.163l1.003,0.401l0.664,0.677l0.903,0.012l0.564-0.1h0.677l0.79-0.439l1.404,0.125l0.451-0.213
	l0.439,0.113l0.339,0.226l0.163,0.728l0.275,0.226l0.79-0.1l0.113-0.113l0.175-0.84l-0.05-0.339l-0.677-0.276l-0.213-0.239
	l0.113-0.276l0.451-0.326l-0.05-0.452l-0.275-0.452l-0.275-0.289l-0.903-0.226l-0.225-0.238l-0.05-0.389l-0.489-0.677l-0.777-0.74
	l-0.162-0.615l0.113-0.452l0.677,0.012l0.664,0.677l0.489,1.016l0.401,0.063l0.226-0.339l-0.276-0.79l-0.388-0.728l-0.777-0.916
	l-1.278-0.402l-0.275-0.289l-0.275-0.677l-0.113-0.552l-0.213-0.226l-0.953-0.125l-0.664-0.627l-0.514-0.175l-0.501,0.276
	l-0.389-0.226l-0.113-0.339l0.175-0.276l0.727-0.276l-0.439-1.129l-0.213-0.226l-0.401,0.113l-0.677,0.891l-0.514-0.063
	l-0.213-0.677l-0.05-0.452l-0.275-0.452l-0.777-0.966l-0.564-0.063l-0.501,0.677l-0.626-0.063l-0.777-0.402l-0.501-0.012
	l-0.564,0.113l-0.564-0.238l-0.827-0.79l-1.115-0.74l-0.339-0.339l0.012-0.677l-0.339-0.288l-0.451,0.113l-0.213-0.113l-0.05-0.677
	l-0.226-0.113l-0.225,0.05l-0.226,0.276l-0.501-0.05l-0.175,0.213l-0.125,0.565l-0.275,0.339l-0.289-0.063l-0.213-0.565l-0.1-0.677
	l-0.664-0.677l-0.79-0.351l-0.501-0.502l0.063-0.627l0.351-0.502l0.326,0.012l0.113,0.113l0.226,0.452l0.275,0.389l0.388,0.125
	l1.077-0.502l0.275-0.276l-0.05-0.502l-0.326-0.452l-0.952-0.239l-0.839-0.401l-0.552-0.401l-0.226-0.452l0.063-0.389l0.339-0.163
	l0.339,0.063l0.439,0.226l0.401,0.113l0.226-0.226l-0.163-0.502l-0.389-0.402l-0.79-0.339l-0.1-0.338l0.275-0.276h0.677l0.564-0.489
	l0.677-0.05l0.501,0.389l0.213,0.452l0.389,0.401l0.514,0.175l0.89,0.125l0.839,0.401l0.664,0.452l0.614,0.289h0.226l0.564-0.326
	l1.14-1.117h0.339l0.05,0.339l-0.576,1.117l-0.012,0.79l0.226,0.226l0.727,0.063l0.339,0.113l0.389,0.79l0.501,0.175l0.113,0.113
	l0.1,0.339l0.226,0.289l0.614,0.339l0.501,0.113l0.339,0.175l0.501,0.677l0.275,0.226l0.451-0.1l0.627-0.953l0.388-0.05l0.614,0.74
	l0.389-0.05l0.226-0.175l0.339-0.1l0.388,0.339l0.288,0.063l0.226-0.339l-0.163-1.242l-0.439-0.904l-0.877-1.292l-0.376-1.355
	l-0.339-0.452l0.012-0.565l0.501,0.012l0.388,0.389l0.275-0.05l0.401-0.552l0.238-1.405l0.401-0.389l-0.1-0.84l-0.163-0.339v-0.565
	l0.339-0.389l-0.05-0.389l-0.163-0.125l-0.839,0.05l-0.514,0.113l-0.326-0.113l-0.113-0.226l0.225-0.565l0.012-0.953l0.389-0.163
	l0.789,0.175l0.289-0.163l0.163-0.389l-0.05-0.339l-0.326-0.452l-0.451-0.401l0.012-0.565l0.514-0.665v-0.565l-0.501-0.452
	l-1.453-0.464l-1.291-0.013l-1.127,1.054l-1.591,1.217l-0.564,0.1l-0.213-0.276l0.113-0.615l-0.326-0.565l0.063-0.502l0.339-1.016
	l-0.05-0.339l-0.326-0.226l-0.338,0.163l-0.351,0.953l-0.225,0.338l-0.564,0.389l-0.351,0.715l-0.727-0.063l-0.339-0.226
	l-0.213-0.276l-0.05-0.74l-0.275-0.276l-0.514-0.113l-0.05-0.565l-0.389-0.452l-0.776-0.402l-1.065-0.351l-0.339,0.05l-0.839,0.89
	l-0.401,0.113l-0.163-0.226l0.062-0.74l0.401-1.342l-0.1-0.276l-0.226-0.175l-0.339,0.05l-0.852,1.004l-0.626,0.953l-0.401,0.213
	l-0.113,0.79l-0.226,0.113l-0.226-0.063l-0.614-0.565l-0.226,0.05l-0.388,0.389l-0.289-0.063l-0.275-0.565l-0.213-0.163l-0.451,0.05
	l-0.401,0.502l-0.226-0.113l-0.05-0.226l-0.276-0.627l-0.727-0.452l-0.226-0.226l-0.038-0.84l-0.226-0.113l-0.739,0.263h-0.839
	l-0.326-0.175l-0.513,0.1l-0.339,0.276l-0.564,0.113l-0.501-0.063l-0.275-0.289l-0.163-0.339h-0.514l-0.564,0.226l-0.339,0.213
	l-0.339,0.05l-0.163-0.05l-0.501-0.063l-0.389-0.289l0.05-0.276l0.463-0.339l0.501,0.012l0.564-0.05l0.163-0.113l0.289-0.163
	l0.338-0.339l0.451-0.213l0.225-0.289l-0.05-0.389l-0.389-0.677l-0.05-0.565l-0.326-0.339l-0.839-0.175l-0.289-0.226l0.012-0.339
	l0.953-0.276l1.629-0.088l0.965-0.891l0.175-0.339l-0.062-0.338l-0.439-0.389l-0.501-0.125l-1.918,0.376l-1.015,0.276l-1.003,0.151
	l-0.564-0.113l-0.225-0.226l0.012-0.565l0.514-0.778l0.339-0.79l0.903-0.376l0.564-0.452l0.175-0.326l-0.665-0.74l-2.055-1.367
	l-0.451-0.113l-0.451,0.163l-0.175,0.502l0.1,0.79l-0.739,0.991h-0.389l-0.614-0.79l-0.338-0.113l-0.552,0.163l-0.351,0.502
	l-0.451,0.89l-0.226,0.113l-0.288-0.063l0.012-0.677l0.965-1.443l1.817-2.007l-0.101-0.452l-0.339-0.226l-0.681-0.111l-1.228-0.075
	l-1.115-0.464l-0.451,0.113l-0.401,0.502l-0.351,0.891l-0.225,0.226l-0.326-0.063l-0.175-0.226l0.012-0.502l0.175-0.389
	l-0.063-0.289l-0.113-0.113l-0.213,0.05l-0.351,0.79l-0.339,0.552l-0.451,0.339l-0.514-0.012l-0.2-1.631l-0.05-0.953l-0.326-0.339
	l-0.175-0.063l-0.501,0.276l-0.138,1.405l-0.564,1.117l-0.351,0.339l-0.777,0.326l-0.789-0.012l-0.226-0.276l-0.05-0.79l-0.1-0.502
	l0.175-0.677l0.514-0.615l0.389-0.326l0.175-0.389l0.062-0.515l0.063-0.1l-0.113-0.401l-0.275-0.226l-0.451-0.113l-0.614-0.74
	l-0.777-0.452l-0.677,0.038l-0.388,0.226l-0.238,0.565l-0.289,1.166l0.05,0.953l-0.626,0.79l-0.451-0.063l-0.614-0.514l-0.439-0.79
	l-0.226-0.175l-0.1-0.677l-0.564-0.226l-0.213-0.163L230.159,93l0.226-0.565l-0.05-0.338l-0.338-0.113l-0.339,0.163l-0.677,0.941
	l-0.915,0.953l-0.777,0.1l-0.175-0.113l0.012-0.565l1.128-1.054l0.288-0.552l-0.05-0.79l-0.439-1.016l-0.325-0.175l-1.579,0.263
	l-0.339-0.226l-0.038-1.004l-0.727-0.74l-0.952-0.402l-0.451,0.05l-0.564,0.326l-0.777-0.063l-0.614-0.452l-0.564-0.125
	l-0.388-0.276l-0.564-0.125l-0.664,0.113l-0.903,0.439l-0.739,0.602l-0.564,0.677l-0.175,0.552l0.15,0.677l-0.062,0.615
	l-0.451,0.615l0.213,0.677l0.05,1.179l-0.288,0.439l-0.226,0.175l-0.339-0.063l0.025-1.907l-0.339-0.452l-0.552-0.125l-0.288,0.163
	l-0.289,0.84l-0.162,0.175l-0.339-0.125l-0.113-0.226l0.013-0.615l0.225-0.665l-0.388-0.238l-0.401,0.289l-0.288,0.715l-0.363,2.246
	v0.339l-0.289,0.665l-0.275,0.289l-0.451-0.063l-0.276-0.339l-0.113-0.677l0.188-1.117l0.463-1.066l-0.063-0.502l-0.551-0.627
	l0.125-0.565l0.289-0.552l-0.05-0.627l-0.714-1.467l-0.439-1.116l-0.614-0.69l-0.953-0.289l-0.213-0.452l-0.05-1.292l-0.877-1.405
	l-0.439-0.401l-0.626-0.063h0L206.99,81.862z M169.233,82.025l-1.015,0.552l-0.401,0.113l-0.451,0.213l-0.113,0.401l0.326,0.677
	l0.226,0.05l2.657-1.204l0.225-0.339l-0.113-0.339l-0.226-0.113L169.233,82.025L169.233,82.025L169.233,82.025z M165.687,82.828
	l-0.338,0.113l-0.339,0.452l-0.063,0.213l-0.389,0.175l-0.401-0.063l-0.439-0.238l-0.514,0.226l-0.175,0.728l0.326,1.016
	l0.388,0.502l0.05,0.339l-0.339,0.163l-0.326-0.276l-0.339-0.175l-0.677,0.1l-0.225,0.226l-0.175,0.565v0.163l0.489,1.016
	l0.339,0.565l0.275,0.063l0.226-0.113l0.388-0.05l0.226,0.226l0.113,0.339l-0.238,0.615l0.338,0.452l0.05,0.338l-0.288,0.452
	l-0.012,1.179l-0.289,0.502l-0.451,0.276l-0.839-0.012l-0.275-0.226l-0.602-1.97l-0.376-0.627l-0.451-0.452l-0.564-0.125
	l-0.614,0.502l-0.626,1.066l0.038,1.066l0.489,1.179l0.614,0.74l0.1,1.229l0.163,0.514l0.276,0.276l0.676,0.175l0.664,0.966
	l0.664,0.063l0.226,0.175l0.664,1.179l0.715,0.79l1.378,3.048l-0.012,0.79l0.213,0.502l0.288,0.238l1.053,0.565l0.501,0.063
	l0.338-0.113l0.451-0.276l0.351-0.665l0.012-1.681l0.225-0.226l0.451-0.05l0.614,0.565l0.226,0.063l0.564-0.276l1.19-1.166
	l0.677-0.05l0.338-0.226l0.063-0.326l-0.339-0.79l-0.05-0.74l0.351-0.552l0.063-0.339l-0.226-0.452v-0.389l0.576-0.778l-0.05-0.904
	l-0.213-1.242l-0.213-0.163l-0.339,0.113l-0.401,0.439l-0.338-0.063l-0.225-0.339l0.062-0.552l0.125-0.452l-0.05-0.615l-0.275-0.677
	l-0.1-0.903l-1.466-0.012l-0.676,0.376h-0.326l-0.113-0.276l1.027-1.681L169.886,89l0.965-1.004l0.401-0.552l-0.226-0.452
	l-0.05-0.339l0.288-0.226l0.677-0.276l0.339-0.389l-0.05-0.452l-0.451-0.615l-0.326-0.79l-0.213-0.226l-0.451,0.05l-0.739,0.326
	l-0.677,0.213l-0.339,0.063l-0.676,0.439l-0.564,0.213l-0.451,0.113l-0.551-0.063l-0.501-0.401v-0.79l-0.163-0.226l-0.1-0.502
	l-0.338-0.289l0,0L165.687,82.828z M150.989,82.853l-0.564,0.1l-0.739,0.728l-0.451,0.326l-0.062,0.615l0.225,0.339l0.326,0.289
	l0.389,0.615l0.325,0.79l0.163,0.565l1.541,2.709l0.226,0.012l0.226-0.226l0.062-0.728l0.464-0.615l0.915-1.894l0.802-1.004
	l-0.113-0.565l-0.551-0.677l-0.389-0.351l-0.225-0.452l-0.501-0.389l-0.664-0.063l-0.79-0.125H150.989L150.989,82.853
	L150.989,82.853z M71.896,84.772l-0.339,0.213l-0.226,0.452L71.106,85.6l-0.677,0.163L70.041,85.7l-0.614-0.452l-0.677,0.05
	l-0.727,0.276l-0.514-0.063l-0.614-0.238l-0.339,0.113l-0.388,0.05L65.768,85.6v0.514l0.389,0.389l0.15,1.518l0.388,0.339
	l0.677,0.063l1.855-0.426l1.579-0.489l1.466-0.602l0.501-0.389l-0.05-0.226l-0.551-0.502l-0.05-0.904L71.896,84.772L71.896,84.772
	L71.896,84.772L71.896,84.772z M172.662,89.866l-0.451,0.05l-0.338,0.339l-0.175,0.84l0.213,0.339h0.79l0.401-0.828l-0.05-0.452
	L172.662,89.866L172.662,89.866L172.662,89.866z M237.568,96.099l-0.339,0.063l-0.626,0.439l-0.113,0.452l0.163,0.338h0.388
	l1.077-0.828l-0.05-0.289L237.568,96.099L237.568,96.099L237.568,96.099z M223.597,111.844l-0.514,0.276l-0.351,0.778l-0.564,0.565
	l-0.062,0.389h0.451l1.027-0.991l0.275-0.163l0.339-0.452l-0.05-0.226l-0.113-0.113h-0.163L223.597,111.844L223.597,111.844
	L223.597,111.844z M219.937,112.095l-0.451,0.213l-0.276,0.339l-0.339,0.1l-0.727-0.175l-0.576,0.615l-0.338,0.113l-0.113,0.213
	l0.05,0.289l0.614,0.289l0.614,0.627l0.339,0.113l0.113-0.063l0.113-0.163l-0.05-0.05l0.113-0.452l1.127-0.89l0.125-0.389
	l-0.05-0.615L219.937,112.095L219.937,112.095L219.937,112.095z M198.546,113.211l-0.614,0.502l-0.062,0.502l0.325,0.339
	l1.579,0.012l0.163-0.389l-0.05-0.502l-0.276-0.226l-0.551-0.125l-0.338-0.113L198.546,113.211L198.546,113.211L198.546,113.211z
	 M228.066,113.237l-0.514,0.113l-0.113,0.113l-0.113,0.05l-0.451,0.452l-0.063,0.502l0.1,0.677l0.339,0.339l0.389,0.113l0.288-0.226
	l0.012-0.89l0.501-0.565l-0.05-0.502L228.066,113.237L228.066,113.237L228.066,113.237z M223.329,115.043l-0.401,0.276l-0.175,1.004
	l-0.463,1.242l-0.175,0.727l-0.012,0.665l0.339,0.226l0.514-0.213l0.388-0.439l0.401-0.79l0.025-1.518l0.113-0.552l-0.05-0.515
	l-0.05-0.113H223.329L223.329,115.043L223.329,115.043L223.329,115.043z M168.607,116.774l-0.401,0.05l-0.564,0.728l-0.677,0.602
	l-0.288,0.452l-0.289,0.778l0.088,1.631l-0.275,0.452l-0.339,0.276l-0.514,0.276l-0.789,0.163l-0.564,0.263l-0.339,0.452
	l-0.012,0.615l0.163,0.514l0.338,0.339l0.451,0.063l0.727-0.339l0.276,0.226l0.162,0.565l0.451,0.351l1.278,0.514l0.614,0.514
	l0.79,0.063l0.601,0.74l1.127,0.289l1.003,0.565l0.664,0.175l0.903-0.264l0.401-0.276l0.339-0.339l0.576-0.89l1.002-0.326
	l0.351-0.502l-0.05-0.615l-0.339-0.338l-0.339,0.05l-0.388,0.163l-0.339-0.338l-0.263-1.405l-0.501-0.853l-0.552-0.615l-1.504-1.204
	l-0.376-0.79l-0.113-0.502l-0.501-0.565l-0.827-0.464l-0.388-0.389l-0.389-0.677L168.607,116.774L168.607,116.774L168.607,116.774z
	 M234.189,117.288l-0.238,0.226v1.066l0.99,0.966l0.677,0.338l0.226-0.326l-0.163-0.452l-0.614-0.74l-0.376-0.953l-0.113-0.063
	L234.189,117.288L234.189,117.288z M174.686,119.245l-0.401,0.113l-0.338,0.502v0.452l0.489,0.452l0.564,0.289l0.451-0.05
	l0.289-0.565l-0.05-0.502l-0.501-0.514L174.686,119.245L174.686,119.245L174.686,119.245z M233.851,120.538l-0.664,0.05
	l-1.641,0.778l-0.514,0.439l-0.113,0.339l-0.113,0.163l-0.1,4.654l0.1,0.677l0.489,1.355l0.388,0.339l0.614,0.175l1.855-0.151
	l2.369-0.703l0.564-0.89l0.188-1.292l-0.05-0.84l-0.376-1.066l-0.827-1.242l-0.05-0.74l0.175-0.389l0.113-0.452l-0.05-0.502
	l-0.339-0.452l-1.454-0.012L233.851,120.538L233.851,120.538L233.851,120.538z M238.174,120.864l-0.288,0.452l-0.401,0.276
	l-0.05,0.502l0.162,0.514l0.665,0.615l1.566,0.025l1.291-0.376l0.401-0.389v-0.226l-0.1-0.401l-0.451-0.389l-1.742-0.025
	l-0.664-0.565L238.174,120.864L238.174,120.864L238.174,120.864z M160.883,123.26l-0.513,0.389l-0.113,0.502l0.376,1.179
	l0.339,0.125l0.288-0.113l0.339-0.565l0.113-0.552l0.063-0.113l-0.05-0.565l-0.275-0.289L160.883,123.26L160.883,123.26
	L160.883,123.26z M156.096,124.665l-0.339,0.339v0.389l0.389,0.565l0.213,0.175h0.451l0.288-0.439l-0.05-0.514l-0.501-0.502
	L156.096,124.665L156.096,124.665L156.096,124.665z M147.512,125.142l-0.226,0.338l0.1,0.615l0.501,0.339l0.163,0.063l0.339-0.163
	l0.175-0.401l-0.213-0.552l-0.339-0.239L147.512,125.142L147.512,125.142z M201.446,128.454l-0.225,0.226l-0.339,0.615l-0.012,0.728
	l0.827,1.97l0.226,0.063l0.225-0.226l0.238-1.907l-0.038-0.953l-0.226-0.338l-0.163-0.163L201.446,128.454L201.446,128.454
	L201.446,128.454z M212.047,144.571l-0.226,0.276l-0.063,0.163l0.163,0.515l1.003,0.903v0.677l0.213,0.226l0.451,0.113l0.614,0.401
	l1.454,0.012l0.339-0.326l-0.05-0.226l-0.552-0.577l-1.065-0.402l-1.103-1.079l-0.839-0.565L212.047,144.571L212.047,144.571
	L212.047,144.571z M209.516,145.826l-0.125,0.338l0.501,0.904l0.101,0.79l0.714,1.129h0.289l0.501-0.552l-0.05-0.289l-0.664-1.066
	l-0.376-0.853l-0.451-0.389L209.516,145.826L209.516,145.826L209.516,145.826z M207.423,147.268l-0.401,0.439l-0.238,0.677
	l-0.012,1.568l-0.113,0.389l-0.063,0.74l0.589,2.697l-0.125,1.117l-0.05,4.102l0.162,1.016l0.263,0.665l0.05,0.627l-0.275,0.502
	l-1.027,1.217l-0.514,0.84l-0.175,0.79l-0.739,0.778l-0.012,0.665l0.175,0.226l0.664,0.012l0.339-0.339l1.14-0.653l0.953-0.113
	l0.451-0.276l0.903-0.326l0.777,0.239l0.451,0.565l-0.012,1.128l0.313,1.844l0.389,0.351l0.727,0.113l1.191-0.653l0.451-0.389
	l0.288-0.502l0.576-2.02l0.626-1.067l1.416-0.828l0.226-0.615l-0.1-0.665l0.012-1.067l0.676-0.677l0.351-0.602l0.501-0.502
	l0.339-0.05l0.339,0.339l-0.339,0.502l-0.012,0.326l0.175,0.175l0.614,0.113l0.664-0.101l1.015,0.175l0.439,0.352v0.326
	l-0.451,0.276v0.339l0.664,0.577l2.97,0.527l0.777,0.351l0.789,0.012l0.564-0.727l0.853-0.552l0.401-0.389l0.226-0.565l0.626-0.941
	l-0.1-0.402l-0.451-0.389l-0.89-0.301l-0.501-0.677h-0.564l-0.514,0.665l-0.839-0.063l-0.551-0.113l-0.451,0.213l-0.514,0.502
	l-0.451-0.063l-0.339-0.339l0.063-0.502l0.689-0.452l-0.113-0.439l-1.215-2.044l-0.777-0.79l-0.94-0.627l-0.903-0.175l-1.892-1.092
	l-1.955-1.481l-0.664-0.175l-0.903-0.063l-0.777-0.514l-0.89-1.016h-0.501l-0.339,0.163l-0.075,1.568l-0.288,0.276l-0.439-0.063
	l-0.451-0.677l-0.602-1.292l-0.764-1.417l-0.501-0.79l-0.501-0.514h-0.552l0,0L207.423,147.268z M286.234,149.276l-0.451,0.213
	l-0.339,0.502l-0.012,0.339l0.388,0.289h0.514l0.564-0.552l0.113-0.226l-0.113-0.339L286.234,149.276L286.234,149.276
	L286.234,149.276z M288.002,156.478l-0.275,0.05l-0.226,0.338l-0.514,0.552l-0.175,0.339l0.175,0.226l0.777,0.125l0.777,0.514
	l0.564,0.226l0.614,0.062l0.289-0.276l-0.275-0.74l-0.05-0.389l-0.889-0.966L288.002,156.478L288.002,156.478L288.002,156.478z
	 M263.654,157.067l-0.338,0.1l-0.012,0.289l0.388,0.452l0.451,0.339l1.003,0.627l1.115,0.012l0.401-0.502l-0.05-0.565l-0.163-0.113
	l-0.05-0.05l-0.903-0.402l-0.564-0.012l-0.664-0.175L263.654,157.067L263.654,157.067L263.654,157.067z M240.298,158.284l-0.501,0.1
	l-0.238,0.163l-0.05,0.288l0.213,0.276l0.839,0.175l0.839,0.627l0.389,0.062l0.564-0.1l0.288-0.276l-0.05-0.339l-0.339-0.351
	l-0.389-0.163l-0.564-0.063L240.298,158.284L240.298,158.284L240.298,158.284L240.298,158.284z M237.191,160.492l-0.677,0.276
	l-0.564,0.439l-0.062,0.452l0.501,0.402l0.614,0.113l0.275,0.226l0.275,0.452l0.275,0.289l0.79,0.012l0.739-0.565l0.226-0.89
	l-0.1-0.502l-0.226-0.226l-0.614-0.239l-0.789-0.225L237.191,160.492L237.191,160.492z M293.71,164.619l-0.401,0.05l-0.226,0.339
	l0.226,0.226l0.551,0.063l0.213,0.062l0.351,0.113l-0.05-0.502l-0.088-0.05L293.71,164.619L293.71,164.619L293.71,164.619z
	 M223.962,168.044l-0.614,0.389l-1.291,0.326l-0.576,0.389l-0.451,0.44l-0.451-0.063l-0.551-0.514l-0.339,0.063l-0.401,0.489
	l-0.113,1.129l-0.351,1.178l-0.802,1.105l-0.012,0.627l0.953,1.066l0.15,0.854l0.113,0.112l0.225,0.051l0.289-0.214l0.163-0.451
	l0.351-0.326h0.839l0.89-0.101l0.351-0.163l0.113-0.84l0.965-1.117l1.203-1.669l0.175-1.003l-0.038-1.467l-0.226-0.276
	L223.962,168.044L223.962,168.044L223.962,168.044z M281.551,169.825l-0.389,0.05l-0.451,0.452l-0.063,0.163l-0.063,1.016
	l-0.514,0.827l-0.012,0.627l0.501,0.389l0.677,0.012l0.689-1.228l0.289-1.004l-0.05-0.627L281.551,169.825L281.551,169.825
	L281.551,169.825z M234.472,170.402l-0.388,0.051l-0.113,0.112h-0.451l-0.564,0.326l-0.463,0.665l-0.339,1.066l-0.012,0.615
	l0.1,0.841l0.326,0.79l0.564,0.577l1.04,1.581l0.401,0.275l0.839-0.715l0.063-0.677l-0.1-0.225l-0.05-0.552l0.289-1.292l-0.05-0.727
	l-0.589-2.082L234.472,170.402L234.472,170.402L234.472,170.402z M319.588,183.859l-0.339,0.175l-0.175,1.004l0.501,0.79
	l0.275-0.225l0.125-0.276l-0.05-1.066L319.588,183.859L319.588,183.859L319.588,183.859z M4.061,192.014l-0.163,0.113l-0.401,0.552
	l-0.903,0.727l-0.288,0.502l-0.238,1.506l-0.627,0.727l-0.125,0.389l0.451,0.853l0.05,0.44l-0.238,0.288l-0.226,0.44l0.113,0.339
	l0.1,1.016l0.163,0.225l0.727-0.1l0.726,0.451l0.501,0.063l0.288-0.226l0.627-0.891l0.564-0.439l0.338-0.389l1.303-1.117
	l0.965-0.665l0.965-0.552l0.338-0.389l-0.163-0.339l-0.952-0.226L7.394,195.3l-0.451,0.339l-0.464,0.891l-0.839,0.502l-0.564,0.213
	l-0.564,0.101l-0.564-0.062l-2.267,2.367l1.829-3.095l2.306-0.476l0.226-0.289l0.238-0.44l-0.05-0.903l-0.226-0.452l-1.002-0.401
	l-0.1-0.954l-0.439-0.627H4.061L4.061,192.014L4.061,192.014z M12.798,199.064l-0.564,0.113l-0.226,0.162l0.113,0.276l0.89,1.079
	l0.388,0.113l0.339-0.326l0.113-0.226l-0.05-0.389l-0.05-0.112L12.798,199.064L12.798,199.064L12.798,199.064z M1.556,200.683
	l-0.451,0.451l0.05,0.276l0.226,0.289l-0.063,0.339l-0.163,0.213l-0.012,0.564l0.263,1.129l0.038,2.245l0.163,0.677l0.038,2.02
	l0.426,1.242l0.451,0.339l0.451,0.062l0.226-0.112l-0.05-0.502l-0.564-0.464l0.025-2.521l-0.263-1.129l-0.72,0.873l-0.135-5.861
	l0.447,2.711l1.173-0.91l0.501-0.275l1.015,0.012l0.113-0.226l-0.275-0.614l-1.003-0.239l-0.839-0.012L1.556,200.683L1.556,200.683
	L1.556,200.683z M13.901,201.435l-0.288,0.226l0.038,2.182l-0.063,0.225l0.05,0.677l-0.125,0.778l0.163,1.016l0.213,0.288
	l0.288,0.051l0.113-0.113l0.113-0.326l0.401-0.615l-0.05-0.401l-0.226-0.502l-0.05-0.677l-0.05-0.163l-0.138-2.132L13.901,201.435
	L13.901,201.435L13.901,201.435z M11.583,202.364l-0.338,0.677l0.15,1.004l0.326,0.904l0.113,0.84l0.376,0.904l0.338,0.012
	l0.175-0.339l-0.05-1.179l-0.263-1.128l-0.05-0.954l-0.326-0.451L11.583,202.364L11.583,202.364L11.583,202.364z M367.248,204.91
	l-0.739,0.101l-0.389,0.276l-0.175,0.339l-0.175,0.163l-0.614,0.05l-0.451,0.451l-0.463,1.456l-0.689,1.731l-0.301,1.568l0.15,0.903
	l0.05,1.405l0.163,0.727l-0.125,0.954l-0.351,0.891l0.501,0.677l0.05,0.401l-0.113,0.339l-0.062,0.502l0.439,0.904l0.163,0.677
	l0.15,1.179l0.276,0.677l0.689,3.036l0.1,1.292l-0.113,0.778l-0.075,1.128l0.552,1.016l0.338,0.225l0.501-0.112l0.339,0.012
	l0.275,0.275l0.05,0.904l-0.289,0.275h-0.727l-0.175,0.163l0.2,2.635l0.163,0.677l0.05,0.903l-0.401,0.777l-0.614-0.401
	l-0.451,0.339l-0.626,0.941l-0.063,0.289l0.113,0.163l0.501,0.012l1.516-0.778l0.514-0.665l0.915-0.614l0.163,0.175l0.05,0.451
	l-0.175,0.665l-0.289,0.402l-0.075,2.295l-0.526,1.28l-0.401,0.677l-0.063,0.552l0.226,0.452l0.501,0.288l0.226,0.226l0.263,0.965
	l0.839,0.175l0.627-0.112l0.789-0.376l0.564-0.677l0.401-0.602l0.401-0.452l0.501-0.326l0.576-0.841l1.516-0.941l0.739-0.1
	l0.839-0.326l1.529-1.217h1.128l0.727-0.49l0.401-0.05l0.564-0.226l0.451-0.439l0.226-0.79l0.351-0.502l1.241-1.104l0.802-1.279
	l0.225-0.677l0.401-0.389l0.339-0.05l0.501,0.401l0.275,0.452l-0.012,1.228l0.163,0.226l0.275,0.062l0.576-0.552l0.727-0.225
	l0.401-0.214l0.062-0.502l-0.388-0.577l-0.113-0.389l0.175-0.389l2.481-1.268l0.225,0.175l0.05,0.665l-0.639,1.117l-0.226,0.79
	l-0.188,1.229l-0.012,0.954l-0.339,0.79l-0.576,0.891l-0.401,0.665l-0.113,0.389l0.275,0.289l1.015,0.062l1.692-1.38l0.739-1.004
	l0.075-0.727l-0.326-2.032l-0.038-0.954l0.225-0.552l0.915-1.116l0.288-0.565l-0.05-0.777l-0.601-1.467l-0.263-1.129l0.05-0.339
	l0.339-0.326h0.401l0.551,0.226l2.118,2.044l0.388,0.565l0.589,2.534l0.439,0.74l0.551,0.565l0.501,0.062l0.351-0.339l0.063-1.568
	l-0.15-1.342l0.288-0.339h0.564l0.276,0.289l0.313,1.58l0.839,0.514l0.715,0.791l0.451,0.062l0.226-0.175l0.063-0.665l0.175-0.564
	l0.514-0.326l0.339-0.452l-0.05-1.066l-0.426-1.128l-0.501-0.904l-0.251-2.02l-0.94-1.856l-0.439-0.464l-0.677-0.288l-0.439-0.452
	l-0.626,0.05l-0.113,0.276l0.226,0.564l0.777,0.69l-0.125,0.502l-0.451,0.552l-0.125,0.841l-0.275,0.275h-0.451l-0.614-0.74
	l-0.275-0.677l0.025-1.731l-0.439-0.903l0.062-0.39l0.226-0.677l-0.113-0.226l-0.326-0.175l-0.288,0.063l-0.451,0.665l-0.225,0.552
	l0.038,1.242l0.1,0.615l-0.012,1.58l0.263,1.117l-0.163,0.288l-0.514-0.012l-0.94-0.577l-0.339-0.389l0.012-1.129l-0.551-0.564
	h-0.614l-0.564,0.163l-0.288-0.062l-0.213-0.339l0.062-0.339l1.366-1.669v-1.016l0.401-0.276l0.226-0.439l-0.138-1.97l-0.388-0.401
	h-0.401l-0.225,0.339l-0.238,1.004l-0.389,0.451l-0.075,1.117l-0.225,0.225l-0.839,0.101l-0.351,0.439h-0.388l-0.326-0.339
	l0.175-0.777v-0.402l-0.388-0.288h-0.339l-0.451,0.275h-0.388l-0.501-0.451l-0.113-0.452l0.062-0.677l0.414-2.02l-0.163-0.564
	l-0.439-0.276l-0.677-0.238l-1.629,0.376l-3.27,1.656l-0.113,0.326l-0.012,1.016l-0.514,0.727l-0.739,0.716l-0.226,0.564
	l-0.339,0.163l-0.339-0.113l-0.113-0.338l-0.151-0.904l-0.339-0.276l-0.226,0.163l-0.113,0.326l-0.063,0.514l-0.513,0.502
	l-0.289,0.389l-0.564,0.163l-1.566-0.301l-0.389-0.452l-0.163-0.339l-0.677,0.101l-0.163-0.051l-0.113-0.288l0.226-0.339
	l0.225-0.101l0.401-0.389l0.125-0.502l0.451-0.79l-0.05-0.565l-0.326-0.452l-0.339,0.063l-0.576,0.941l-1.291,0.665l-0.401,0.05
	l-0.276-0.627l-0.451,0.225l-0.226,0.339l0.15,1.292l-0.463,1.731l0.326,1.354l-0.289,0.214l-0.339-0.163l-0.326-0.514l-0.263-1.179
	l-0.501-0.514v-0.502l0.125-0.451l-0.275-0.904l-0.138-2.521l-0.275-1.242l-0.439-0.84l-0.664-0.79l0.012-0.514l0.226-0.214
	l0.664,0.39l0.062-0.101l0.012-1.405l-0.363-2.145l-0.288-0.226l-0.226,0.051l-0.677,0.84h-0.451l-0.226-0.339l0.013-0.451
	l1.24-0.941l0.238-0.791l-0.05-0.953l-0.325-0.339l0,0L367.248,204.91z M17.606,205.35l-0.451,0.276l-0.113,0.451l0.276,0.276
	l0.952-0.264l0.451-0.275l-0.05-0.226l-0.226-0.112l-0.338-0.063L17.606,205.35L17.606,205.35z M16.165,208.698l-0.839,0.778
	l-0.451,0.225l-0.351,0.502l-0.05,0.225l-0.301,1.28l-0.063,0.615l0.614,0.74l0.1,0.451l0.339,0.502l0.326,0.063l0.401-0.39
	l0.238-0.84l0.915-1.443l-0.113-0.564l-0.275-0.401l-0.15-0.841v-0.903L16.165,208.698L16.165,208.698z M13.221,211.646
	l-0.451,0.276l-0.188,1.843l0.564,0.012l0.163-0.112l0.113-0.113l0.012-0.615l0.113-0.225l-0.05-0.777L13.221,211.646
	L13.221,211.646L13.221,211.646z M247.797,215.56l-0.401,0.389l-0.188,1.631l-0.401,0.665l-0.777,0.163l-0.125,0.615l-0.865,1.731
	v0.389l0.225,0.225l0.564-0.213l0.289-0.615l0.339-0.451l0.338,0.012l0.05,0.84l0.163,0.226l0.339-0.163l0.576-1.067l0.339-0.727
	l0.162-0.088l0.05-0.038l0.075-0.038l0.226-0.225l0.113-0.502l-0.163-0.677l-0.389-0.564l-0.213-0.778l-0.05-0.514L247.797,215.56
	L247.797,215.56L247.797,215.56z M248.888,218.32l-0.038,1.38l0.125-0.539l0.05-0.44L248.888,218.32L248.888,218.32L248.888,218.32z
	 M248.474,219.085l-0.326,1.367l0.238-0.539l0.175-0.314l0.025-0.251L248.474,219.085L248.474,219.085L248.474,219.085z
	 M249.639,216.652l-0.125,0.438l0.063,0.452l0.213,0.112l0.113-0.1l0.063-0.175l-0.113-0.502L249.639,216.652L249.639,216.652z
	 M245.028,217.831l-0.463,0.389l-0.163,0.565l0.1,0.225l0.689-0.665l0.113-0.175l-0.05-0.339H245.028L245.028,217.831
	L245.028,217.831z M19.796,218.897l-0.739,0.163l-0.338,0.163l-0.79,0.213l-0.163,0.063l-1.354,0.151l-0.338,0.163v0.614
	l0.226,0.125l0.451-0.225l0.614,0.012l0.677-0.276l1.003-0.163l0.401-0.213l0.79-0.163l-0.113-0.401L19.796,218.897L19.796,218.897
	L19.796,218.897z M202.695,221.532l-0.101,0.163l-0.251,0.301l0.238-0.313L202.695,221.532L202.695,221.532z M9.157,227.714
	l-0.288,0.163l-0.288,0.451v0.891l0.539,1.305l0.551,0.614l0.564,0.125l0.727-0.112l0.338,0.175l0.05,0.401l-0.226,0.389
	l-0.564,0.213l-0.677-0.175l-0.338,0.163l-0.288,0.841l-0.501,0.615l-0.012,0.389l0.451,0.339l0.551,0.062l0.226,0.125l0.163,0.276
	l0.614,0.627l0.226,0.163l0.163,0.514l-0.226,0.552l0.376,0.791l0.451,0.351l0.727,0.175l0.388,0.275l-0.012,1.016l0.388,0.727
	l0.213,0.853l-0.226,0.276l-0.677,0.213l-0.226,0.339l-0.063,0.565l0.163,0.502l0.777,0.514l0.501,0.062l0.439,0.452l0.05,1.455
	l0.551,0.627v0.389l-0.401,0.339l-0.113,0.339l0.601,0.953l0.276,1.129l0.275,0.062l0.514-0.452l0.113-0.05l0.614,0.226l0.551,0.564
	l0.05,0.74l-0.514,0.552l-0.063,0.452l0.777,1.128l0.388,0.401l0.275,0.615l0.276,0.175l0.226,0.276l0.326,0.853l0.439,0.339
	l0.388,0.175l1.328,1.919l1.115,0.854h0.226l0.338-0.44l0.789-0.389l0.288-0.226l-0.05-1.004l-0.439-1.192l-0.1-0.665l0.414-2.421
	l-0.1-0.614l-0.275-0.677l-0.877-1.242l-0.839-0.965l-0.601-0.615l-0.564-0.464l-0.213-0.564l-0.1-0.891l0.063-0.514l0.113-0.213
	l0.012-1.694l-0.275-0.841l-0.188-2.634l-0.213-0.966l-0.777-0.954l-0.501-0.514l-0.163-0.288l-1.604-1.756l-1.453-1.242
	l-1.279-1.367l-0.977-1.92l-0.163-0.727l-1.003-0.965l-1.165-0.966l-1.341-0.351l0,0L9.157,227.714z M249.925,229.107l-0.564,0.113
	l-1.19,0.941v0.389l0.326,0.238l0.225-0.062l0.689-0.778l0.839-0.213l0.063-0.112l-0.063-0.276L249.925,229.107L249.925,229.107
	L249.925,229.107z M343.767,238.512l-1.855,0.539l-1.227-0.175l-0.965-0.012l-0.89,0.213l-3.221,1.431l-1.354,0.376l-0.275,0.389
	l0.213,0.226l1.178,0.075l0.451-0.112l1.855-0.038l0.564,0.125l0.777,0.452l0.727,0.564l0.552,0.063l0.676-0.163l1.241,0.125
	l1.291,0.012l1.791-0.476l1.529-0.603l2.13-0.426l0.965-0.326l0.226-0.175l0.288-0.44l-0.113-0.564l-0.389-0.452l-0.952-0.238
	l-1.403-0.012l-0.777,0.101l-0.339-0.051l-0.451-0.238l-1.065-0.062l-0.451-0.113l-0.727-0.012l0,0L343.767,238.512z
	 M11.915,239.026l-0.727,0.326l-0.175,0.389l0.05,0.502l0.614,0.401l0.275-0.163l0.238-0.614l-0.05-0.728L11.915,239.026
	L11.915,239.026z M22.352,244.746l-0.288,0.112l-0.113,0.553l0.927,1.417l0.451,0.514l0.338,0.113l0.113-0.452l-1.103-1.969
	l-0.326-0.289L22.352,244.746z M243.586,245.486l-2.807,0.653l-0.514,0.389l-0.225,0.326l-0.012,0.565l0.338,0.451l0.552,0.175
	l2.306,0.138l0.501,0.225l0.564,0.125l0.889-0.163l0.727,0.452l0.401,0.012l0.501,0.163l0.89,0.012l0.175-0.276l-0.05-0.389
	l-0.388-0.514l-0.451-0.339l-1.441-1.643l-0.552-0.339L243.586,245.486L243.586,245.486L243.586,245.486z M357.188,249.714
	l-0.401,0.213l-0.288,0.615l-0.401,0.502l-0.339,0.903l-0.025,1.681l0.163,0.451l0.388,0.289l0.451-0.062l0.739-0.376l0.113-0.226
	l-0.05-0.225l-0.839-0.175l-0.288-0.289l0.063-0.451l0.238-0.553l0.063-0.614l0.514-0.778l0.451-0.275l0.163-0.226l-0.05-0.401
	h-0.663V249.714L357.188,249.714z M365.519,251.206l-0.501,0.101l-0.226,0.225l-0.125,0.502l0.275,0.74l-0.238,1.117l-0.125,2.07
	l-0.087,2.534l-0.414,1.342l0.175,0.389l0.05,0.389l-0.125,0.677l0.225,0.514l0.99,1.242l0.84,0.853l0.501,0.163l0.953-0.213
	l0.727-0.326l0.576-0.665l0.226-0.163l1.127-0.665l1.077-1.004l0.576-1.117l0.063-0.953l0.175-0.727l0.852-0.941l-0.113-0.225
	l-0.552-0.289l-0.275-0.401l0.226-0.665l-0.113-0.225h-0.439l-1.867,0.928l-0.339-0.113l-0.163-0.288h-0.225l-0.965,0.727
	l-0.439-0.012l-0.226-0.339l0.025-1.681l-0.339-0.903l0.012-0.677l-0.551-0.565l-0.564-0.289l-0.275-0.275l-0.113-0.339
	L365.519,251.206L365.519,251.206L365.519,251.206z M255.183,251.671l-0.564,0.225l-0.852,0.941l-0.012,0.841l0.275-0.05
	l0.626-0.552l0.677-0.44l0.401-0.564l-0.05-0.226L255.183,251.671L255.183,251.671L255.183,251.671z M359.608,259.949l-2.481,1.556
	l-0.401,0.665l-0.339,0.225l-0.451,0.101l-0.727,0.05l-0.626,0.552l-0.451,0.113l-0.614,0.05l-0.677,0.49l-0.238,0.113l-1.115-0.013
	l-0.401,0.226l-0.388,0.615l-0.451-0.063l-0.551-0.627l-0.401-0.175l-0.839-0.063l-0.113-0.05l-0.213-0.401l-0.05-1.066
	l-0.439-0.515l-0.401,0.175l-0.125,1.456l-0.289,1.066l0.1,0.44l0.276,0.351l0.739,0.062l0.551,0.113l0.777,0.577l0.626,0.113
	l0.677-0.326h0.275l0.275,0.451l0.275,0.063l1.579-0.264h0.727l1.065-0.101l0.401-0.389l0.451-0.665l0.451-0.163l0.226,0.163
	l0.05,0.677l0.339,0.225l1.968-0.137l0.501-0.175l0.564-0.603l-0.05-0.451l-0.338-0.113l-0.552,0.101l-0.388-0.389v-0.175
	l0.05-0.226l0.401-0.502l0.113-0.326l-0.213-0.401l-0.05-0.339l0.175-0.502l0.727-0.502l0.463-0.665l-0.063-0.389l-0.388-0.012l0,0
	H359.608z M382.452,270.009l-0.451,0.062l-0.401,0.552l-0.451,0.339l-0.113,0.163l-0.175,0.502l0.275,0.225l0.451-0.163l1.253-1.217
	l-0.05-0.339L382.452,270.009L382.452,270.009L382.452,270.009z M341.639,286.707l-0.451,0.276l-0.113,0.401l0.275,0.225
	l0.226-0.112l0.113-0.113l0.401-0.326l-0.113-0.225L341.639,286.707L341.639,286.707z M240.705,304.909l-0.564,0.051l-0.05,0.062
	l-0.012,0.213l0.839,0.69l0.339-0.113l0.163-0.163l-0.05-0.401L240.705,304.909L240.705,304.909L240.705,304.909z M252.87,305.148
	l-0.677,0.777l-0.614,0.113l-0.564-0.239l-0.952,0.214l-0.451,0.339l-0.289,0.275l-0.614,0.05l-1.855-0.301l-0.339,0.112
	l-0.389,0.39l-0.012,0.389l0.226,0.225l2.243,0.025l2.293,0.251l1.341,0.401l1.241,0.076l0.163,0.225l0.339,0.062l0.338-0.339
	l0.401-0.552l0.063-1.066l0.125-0.565l-0.05-0.389l-0.226-0.175l-0.389,0.05l-0.351,0.339l-0.275-0.062l-0.225-0.289l-0.163-0.339
	h-0.339l0,0L252.87,305.148z M244.386,306.578l-0.226,0.276l0.05,0.564l0.339,0.175l0.388-0.112l0.175-0.226l-0.05-0.451
	l-0.451-0.226H244.386L244.386,306.578z"/>
</svg>
