<?xml version="1.0" encoding="utf-8"?>
<!-- Generator: Adobe Illustrator 17.0.0, SVG Export Plug-In . SVG Version: 6.00 Build 0)  -->
<!DOCTYPE svg PUBLIC "-//W3C//DTD SVG 1.1//EN" "http://www.w3.org/Graphics/SVG/1.1/DTD/svg11.dtd">
<svg version="1.1" id="Layer_1" xmlns="http://www.w3.org/2000/svg" xmlns:xlink="http://www.w3.org/1999/xlink" x="0px" y="0px"
	 width="1439px" height="263px" viewBox="0 0 1439 263" enable-background="new 0 0 1439 263" xml:space="preserve">
<g>
	<g>
		<path fill="#37979B" d="M1515.056,38.48c-16.69,0-30.34-8.66-31.423-19.609h-0.154c-1.083,10.949-14.733,19.609-31.423,19.609
			s-30.34-8.66-31.423-19.609h-0.154c-1.083,10.949-14.733,19.609-31.423,19.609s-30.34-8.66-31.423-19.609h-0.154
			c-1.083,10.949-14.733,19.609-31.423,19.609s-30.34-8.66-31.423-19.609h-0.154c-1.083,10.949-14.733,19.609-31.423,19.609
			s-30.34-8.66-31.423-19.609h-0.154c-1.083,10.949-14.733,19.609-31.423,19.609s-30.34-8.66-31.423-19.609h-0.154
			c-1.083,10.949-14.733,19.609-31.423,19.609s-30.34-8.66-31.422-19.609h-0.155c-1.082,10.949-14.732,19.609-31.422,19.609
			s-30.34-8.66-31.422-19.609h-0.155c-1.082,10.949-14.732,19.609-31.422,19.609c-16.69,0-30.34-8.66-31.422-19.609h-0.155
			c-1.082,10.949-14.732,19.609-31.422,19.609s-30.34-8.66-31.422-19.609h-0.155C915.4,29.82,901.75,38.48,885.06,38.48
			s-30.34-8.66-31.422-19.609h-0.155c-1.082,10.949-14.732,19.609-31.422,19.609s-30.34-8.66-31.422-19.609h-0.155
			c-1.082,10.949-14.732,19.609-31.422,19.609s-30.34-8.66-31.422-19.609l-1.147,4.791l-2.295,176.027h837.368V29.272
			C1555.893,34.83,1525.892,38.48,1515.056,38.48z"/>
		<path fill="#37979B" d="M759.036,39.248c-16.703,0-30.363-8.66-31.447-19.609h-0.154c-1.084,10.949-14.745,19.609-31.447,19.609
			c-16.703,0-30.363-8.66-31.447-19.609h-0.154c-1.084,10.949-14.745,19.609-31.447,19.609c-16.703,0-30.363-8.66-31.447-19.609
			h-0.154c-1.084,10.949-14.745,19.609-31.447,19.609c-16.703,0-30.363-8.66-31.447-19.609h-0.154
			c-1.084,10.949-14.745,19.609-31.447,19.609c-16.703,0-30.363-8.66-31.447-19.609h-0.154
			c-1.084,10.949-14.745,19.609-31.447,19.609c-16.703,0-30.363-8.66-31.447-19.609h-0.154
			c-1.084,10.949-14.745,19.609-31.447,19.609c-16.703,0-30.364-8.66-31.447-19.609h-0.155
			c-1.083,10.949-14.743,19.609-31.447,19.609c-16.703,0-30.364-8.66-31.447-19.609h-0.155
			c-1.083,10.949-14.743,19.609-31.447,19.609c-16.703,0-30.364-8.66-31.447-19.609h-0.155
			c-1.083,10.949-14.743,19.609-31.447,19.609s-30.364-8.66-31.447-19.609h-0.155c-1.083,10.949-14.743,19.609-31.447,19.609
			s-30.364-8.66-31.447-19.609H96.95c-1.09,10.948-14.751,19.609-31.454,19.609s-30.364-8.66-31.447-19.609h-0.155
			C32.811,30.588,19.151,39.248,2.447,39.248c-16.703,0-24.009-7.403-31.447-19.609l17-5.828v186.645h797.116V30.039
			C779.444,35.597,769.88,39.248,759.036,39.248z"/>
	</g>
	<g>
		<path fill="#3A9EA2" d="M1519.162,67.225h-0.154c-0.38,3.84-2.309,7.396-5.369,10.398v-0.011
			c-5.668,5.558-15.225,9.209-26.061,9.209c-14.6,0-26.873-6.627-30.442-15.617c-0.508-1.282-0.839-2.612-0.974-3.979h-0.004
			c0-0.005-0.002-0.011-0.002-0.015h-0.154c-1.084,10.95-14.734,19.61-31.424,19.61c-14.6,0-26.873-6.627-30.442-15.617
			c-0.508-1.282-0.839-2.612-0.974-3.979h-0.004c0-0.005-0.002-0.011-0.002-0.015h-0.154c-1.084,10.95-14.734,19.61-31.424,19.61
			c-14.6,0-26.874-6.627-30.443-15.618c-0.507-1.282-0.838-2.611-0.973-3.978h-0.004c0-0.005-0.002-0.011-0.002-0.015h-0.154
			c-1.084,10.95-14.734,19.61-31.424,19.61c-14.6,0-26.874-6.627-30.443-15.618c-0.507-1.282-0.838-2.611-0.973-3.978h-0.004
			c0-0.005-0.002-0.011-0.002-0.015h-0.154c-1.084,10.95-14.734,19.61-31.424,19.61c-14.6,0-26.873-6.627-30.442-15.617
			c-0.508-1.282-0.839-2.612-0.974-3.979h-0.004c0-0.005-0.002-0.011-0.002-0.015h-0.154c-1.084,10.95-14.734,19.61-31.424,19.61
			c-14.6,0-26.873-6.627-30.442-15.617c-0.508-1.282-0.839-2.612-0.974-3.979h-0.004c0-0.005-0.002-0.011-0.002-0.015h-0.154
			c-1.084,10.95-14.734,19.61-31.424,19.61c-14.6,0-26.873-6.627-30.443-15.617c-0.507-1.282-0.838-2.612-0.973-3.979h-0.004
			c0-0.005-0.002-0.011-0.002-0.015h-0.155c-1.082,10.95-14.732,19.61-31.422,19.61c-14.6,0-26.874-6.627-30.443-15.617
			c-0.507-1.282-0.838-2.612-0.973-3.979h-0.004c0-0.005-0.001-0.011-0.002-0.015h-0.155c-1.082,10.95-14.732,19.61-31.422,19.61
			c-14.6,0-26.874-6.627-30.443-15.617c-0.507-1.282-0.838-2.612-0.973-3.979h-0.004c0-0.005-0.001-0.011-0.002-0.015h-0.155
			c0,0.004-0.002,0.01-0.002,0.015h-3.278v8.012c-5.178,6.868-15.829,11.584-28.142,11.584c-16.69,0-30.34-8.66-31.422-19.61h-0.155
			c-1.082,10.95-14.732,19.61-31.422,19.61s-30.34-8.66-31.422-19.61h-0.155c-1.082,10.95-14.732,19.61-31.422,19.61
			s-30.34-8.66-31.422-19.61h-0.155c-1.082,10.95-14.732,19.61-31.422,19.61c-2.774,0-5.461-0.244-8.023-0.693v83.206h225.165v0.016
			H1563V86.141C1550.148,83.887,1520.065,76.354,1519.162,67.225z"/>
		<path fill="#3A9EA2" d="M763.162,66.993h-0.154c-0.38,3.84-2.31,7.396-5.369,10.397v-0.011
			c-5.668,5.558-15.225,9.209-26.061,9.209c-14.6,0-26.873-6.627-30.442-15.617c-0.508-1.282-0.839-2.612-0.974-3.979h-0.004
			c0-0.005-0.002-0.011-0.002-0.015h-0.154c-1.084,10.95-14.734,19.61-31.424,19.61c-14.6,0-26.873-6.627-30.442-15.617
			c-0.508-1.282-0.839-2.612-0.974-3.979h-0.004c0-0.005-0.002-0.011-0.002-0.015h-0.154c-1.084,10.95-14.734,19.61-31.424,19.61
			c-14.6,0-26.874-6.627-30.443-15.618c-0.507-1.282-0.838-2.611-0.973-3.978h-0.004c0-0.005-0.002-0.011-0.002-0.015h-0.154
			c-1.084,10.95-14.734,19.61-31.424,19.61c-14.6,0-26.874-6.627-30.443-15.618c-0.507-1.282-0.838-2.611-0.973-3.978h-0.004
			c0-0.005-0.002-0.011-0.002-0.015h-0.154c-1.084,10.95-14.734,19.61-31.424,19.61c-14.6,0-26.873-6.627-30.442-15.617
			c-0.508-1.282-0.839-2.612-0.974-3.979h-0.004c0-0.005-0.002-0.011-0.002-0.015h-0.154c-1.084,10.95-14.734,19.61-31.424,19.61
			c-14.6,0-26.873-6.627-30.442-15.617c-0.508-1.282-0.839-2.612-0.974-3.979h-0.004c0-0.005-0.002-0.011-0.002-0.015h-0.154
			c-1.084,10.95-14.734,19.61-31.424,19.61c-14.6,0-26.873-6.627-30.443-15.617c-0.507-1.282-0.838-2.612-0.973-3.979h-0.004
			c0-0.005-0.002-0.011-0.002-0.015h-0.155c-1.082,10.95-14.732,19.61-31.422,19.61c-14.6,0-26.874-6.627-30.443-15.617
			c-0.507-1.282-0.838-2.612-0.973-3.979h-0.004c0-0.005-0.001-0.011-0.002-0.015h-0.155c-1.082,10.95-14.732,19.61-31.422,19.61
			c-14.6,0-26.874-6.627-30.443-15.617c-0.507-1.282-0.838-2.612-0.973-3.979h-0.004c0-0.005-0.001-0.011-0.002-0.015h-0.155
			c-0.001,0.004-0.001,0.01-0.002,0.015h-3.278v8.012c-5.178,6.868-15.829,11.584-28.142,11.584c-16.69,0-30.34-8.66-31.422-19.61
			h-0.155c-1.082,10.95-14.732,19.61-31.422,19.61s-30.34-8.66-31.422-19.61h-0.155c-1.082,10.95-14.732,19.61-31.422,19.61
			S8.243,77.92,7.161,66.97H7.006C5.924,77.92-7.726,86.58-24.416,86.58c-2.774,0,14.983-0.244,12.421-0.693v83.206h204.721v0.016
			h593.835v-83.2C773.704,83.654,764.065,76.122,763.162,66.993z"/>
	</g>
	<g>
		<path fill="#3CA4A8" d="M1520.325,136.356c-14.6,0-26.873-6.628-30.443-15.617c-0.508-1.282-0.839-2.613-0.974-3.979h-0.004
			c0-0.005-0.002-0.011-0.002-0.015h-0.154c-1.084,10.95-14.734,19.61-31.424,19.61c-14.6,0-26.873-6.628-30.443-15.617
			c-0.508-1.282-0.839-2.613-0.974-3.979h-0.004c0-0.005-0.002-0.011-0.002-0.015h-0.154c-1.084,10.95-14.734,19.61-31.424,19.61
			c-14.6,0-26.874-6.628-30.443-15.618c-0.507-1.282-0.838-2.612-0.973-3.978h-0.004c0-0.005-0.002-0.011-0.002-0.015h-0.154
			c-1.084,10.95-14.734,19.61-31.424,19.61c-14.6,0-26.874-6.628-30.443-15.618c-0.507-1.282-0.838-2.612-0.973-3.978h-0.004
			c0-0.005-0.002-0.011-0.002-0.015h-0.154c-1.084,10.95-14.734,19.61-31.424,19.61c-14.6,0-26.873-6.628-30.442-15.617
			c-0.508-1.282-0.839-2.613-0.974-3.979h-0.004c0-0.005-0.002-0.011-0.002-0.015h-0.154c-1.084,10.95-14.734,19.61-31.424,19.61
			c-14.6,0-26.873-6.628-30.442-15.617c-0.508-1.282-0.839-2.613-0.974-3.979h-0.004c0-0.005-0.002-0.011-0.002-0.015h-0.154
			c-1.084,10.95-14.734,19.61-31.424,19.61c-14.6,0-26.874-6.628-30.443-15.617c-0.507-1.282-0.838-2.613-0.973-3.979h-0.004
			c0-0.005-0.001-0.011-0.002-0.015h-0.155c-1.082,10.95-14.732,19.61-31.422,19.61c-14.601,0-26.874-6.628-30.443-15.617
			c-0.507-1.282-0.838-2.613-0.973-3.979h-0.004c0-0.005-0.002-0.011-0.002-0.015h-0.155c-1.082,10.95-14.732,19.61-31.422,19.61
			c-14.601,0-33.52-11.596-33.52-19.61c0,7.775-17.167,19.61-29.48,19.61c-16.69,0-30.34-8.66-31.422-19.61h-0.155
			c-1.082,10.95-14.732,19.61-31.422,19.61s-30.34-8.66-31.422-19.61h-0.155c-1.082,10.95-14.732,19.61-31.422,19.61
			s-30.34-8.66-31.422-19.61h-0.155c-1.082,10.95-14.732,19.61-31.422,19.61s-30.34-8.66-31.422-19.61h-3.441v102.123h252.006v0.015
			H1563v-88.663C1557.303,134.01,1529.005,136.356,1520.325,136.356z"/>
		<path fill="#3CA4A8" d="M764.164,136.124c-14.706,0-27.068-6.628-30.664-15.617c-0.511-1.282-0.845-2.613-0.981-3.979h-0.004
			c0-0.005-0.002-0.011-0.002-0.015h-0.155c-1.092,10.95-14.841,19.61-31.652,19.61c-14.706,0-27.068-6.628-30.664-15.617
			c-0.511-1.282-0.845-2.613-0.981-3.979h-0.004c0-0.005-0.002-0.011-0.002-0.015H668.9c-1.092,10.95-14.841,19.61-31.652,19.61
			c-14.706,0-27.069-6.628-30.664-15.618c-0.511-1.282-0.844-2.612-0.98-3.978H605.6c0-0.005-0.002-0.011-0.002-0.015h-0.155
			c-1.092,10.95-14.841,19.61-31.652,19.61c-14.706,0-27.069-6.628-30.664-15.618c-0.511-1.282-0.844-2.612-0.98-3.978h-0.004
			c0-0.005-0.002-0.011-0.002-0.015h-0.155c-1.092,10.95-14.841,19.61-31.652,19.61c-14.706,0-27.068-6.628-30.664-15.617
			c-0.512-1.282-0.845-2.613-0.981-3.979h-0.004c0-0.005-0.002-0.011-0.002-0.015h-0.155c-1.092,10.95-14.841,19.61-31.652,19.61
			c-14.706,0-27.068-6.628-30.664-15.617c-0.511-1.282-0.845-2.613-0.981-3.979h-0.004c0-0.005-0.002-0.011-0.002-0.015h-0.155
			c-1.092,10.95-14.841,19.61-31.652,19.61c-14.706,0-27.069-6.628-30.664-15.617c-0.511-1.282-0.844-2.613-0.98-3.979h-0.004
			c0-0.005-0.001-0.011-0.002-0.015h-0.156c-1.09,10.95-14.839,19.61-31.651,19.61c-14.707,0-27.069-6.628-30.664-15.617
			c-0.511-1.282-0.844-2.613-0.98-3.979h-0.004c-0.001-0.005-0.002-0.011-0.002-0.015h-0.156c-1.09,10.95-14.839,19.61-31.651,19.61
			c-14.707,0-33.763-11.596-33.763-19.61c0,7.775-17.292,19.61-29.694,19.61c-16.812,0-30.561-8.66-31.651-19.61h-0.156
			c-1.09,10.95-14.839,19.61-31.651,19.61s-30.561-8.66-31.651-19.61h-0.156c-1.09,10.95-14.839,19.61-31.651,19.61
			s-30.561-8.66-31.651-19.61h-0.156c-1.09,10.95-14.839,19.61-31.651,19.61s-22.967-8.18-31.651-19.61L-12,111.56v107.076h233.392
			v0.015h565.164v-88.663C780.817,133.777,772.907,136.124,764.164,136.124z"/>
	</g>
	<g>
		<path fill="#40ADB2" d="M1519.162,161.17h-0.154c-0.38,3.839-2.309,7.395-5.369,10.397v-0.012
			c-5.668,5.559-15.225,9.209-26.061,9.209c-14.6,0-26.873-6.627-30.442-15.616c-0.508-1.283-0.839-2.613-0.974-3.979h-0.004
			c0-0.005-0.002-0.011-0.002-0.016h-0.154c-1.084,10.951-14.734,19.61-31.424,19.61c-14.6,0-26.873-6.627-30.442-15.616
			c-0.508-1.283-0.839-2.613-0.974-3.979h-0.004c0-0.005-0.002-0.011-0.002-0.016h-0.154c-1.084,10.951-14.734,19.61-31.424,19.61
			c-14.6,0-26.874-6.627-30.443-15.617c-0.507-1.283-0.838-2.612-0.973-3.978h-0.004c0-0.005-0.002-0.011-0.002-0.016h-0.154
			c-1.084,10.951-14.734,19.61-31.424,19.61c-14.6,0-26.874-6.627-30.443-15.617c-0.507-1.283-0.838-2.612-0.973-3.978h-0.004
			c0-0.005-0.002-0.011-0.002-0.016h-0.154c-1.084,10.951-14.734,19.61-31.424,19.61c-14.6,0-26.873-6.627-30.442-15.616
			c-0.508-1.283-0.839-2.613-0.974-3.979h-0.004c0-0.005-0.002-0.011-0.002-0.016h-0.154c-1.084,10.951-14.734,19.61-31.424,19.61
			c-14.6,0-26.873-6.627-30.442-15.616c-0.508-1.283-0.839-2.613-0.974-3.979h-0.004c0-0.005-0.002-0.011-0.002-0.016h-0.154
			c-1.084,10.951-14.734,19.61-31.424,19.61c-14.6,0-26.874-6.627-30.443-15.616c-0.507-1.283-0.838-2.613-0.973-3.979h-0.004
			c0-0.005-0.001-0.011-0.002-0.016h-0.155c-1.082,10.951-14.732,19.61-31.422,19.61c-14.6,0-26.874-6.627-30.443-15.616
			c-0.507-1.283-0.838-2.613-0.973-3.979h-0.004c0-0.005-0.001-0.011-0.002-0.016h-0.155c-1.082,10.951-14.732,19.61-31.422,19.61
			c-14.6,0-32.773-4.847-32.773-19.61c0,12.389-17.914,19.61-30.227,19.61c-16.69,0-30.34-8.659-31.422-19.61h-0.155
			c-1.082,10.951-14.732,19.61-31.422,19.61s-30.34-8.659-31.422-19.61h-0.155c-1.082,10.951-14.732,19.61-31.422,19.61
			s-30.34-8.659-31.422-19.61h-0.155c-1.082,10.951-14.732,19.61-31.422,19.61c-2.774,0-5.461-0.244-8.023-0.693v83.207h225.165
			v0.015H1563v-83.207C1550.148,177.831,1520.065,170.299,1519.162,161.17z"/>
		<path fill="#40ADB2" d="M763.162,160.937h-0.154c-0.38,3.839-2.31,7.395-5.369,10.397v-0.012
			c-5.668,5.559-15.225,9.209-26.061,9.209c-14.6,0-26.873-6.627-30.442-15.616c-0.508-1.283-0.839-2.613-0.974-3.979h-0.004
			c0-0.005-0.002-0.011-0.002-0.016h-0.154c-1.084,10.951-14.734,19.61-31.424,19.61c-14.6,0-26.873-6.627-30.442-15.616
			c-0.508-1.283-0.839-2.613-0.974-3.979h-0.004c0-0.005-0.002-0.011-0.002-0.016h-0.154c-1.084,10.951-14.734,19.61-31.424,19.61
			c-14.6,0-26.874-6.627-30.443-15.617c-0.507-1.283-0.838-2.612-0.973-3.978h-0.004c0-0.005-0.002-0.011-0.002-0.016h-0.154
			c-1.084,10.951-14.734,19.61-31.424,19.61c-14.6,0-26.874-6.627-30.443-15.617c-0.507-1.283-0.838-2.612-0.973-3.978h-0.004
			c0-0.005-0.002-0.011-0.002-0.016h-0.154c-1.084,10.951-14.734,19.61-31.424,19.61c-14.6,0-26.873-6.627-30.442-15.616
			c-0.508-1.283-0.839-2.613-0.974-3.979h-0.004c0-0.005-0.002-0.011-0.002-0.016h-0.154c-1.084,10.951-14.734,19.61-31.424,19.61
			c-14.6,0-26.873-6.627-30.442-15.616c-0.508-1.283-0.839-2.613-0.974-3.979h-0.004c0-0.005-0.002-0.011-0.002-0.016h-0.154
			c-1.084,10.951-14.734,19.61-31.424,19.61c-14.6,0-26.874-6.627-30.443-15.616c-0.507-1.283-0.838-2.613-0.973-3.979h-0.004
			c0-0.005-0.001-0.011-0.002-0.016h-0.155c-1.082,10.951-14.732,19.61-31.422,19.61c-14.6,0-26.874-6.627-30.443-15.616
			c-0.507-1.283-0.838-2.613-0.973-3.979h-0.004c0-0.005-0.001-0.011-0.002-0.016h-0.155c-1.082,10.951-14.732,19.61-31.422,19.61
			c-14.6,0-32.773-4.847-32.773-19.61c0,12.389-17.914,19.61-30.227,19.61c-16.69,0-30.34-8.659-31.422-19.61h-0.155
			c-1.082,10.951-14.732,19.61-31.422,19.61s-30.34-8.659-31.422-19.61h-0.155c-1.082,10.951-14.732,19.61-31.422,19.61
			s-30.34-8.659-31.422-19.61H7.005c-1.082,10.951-14.732,19.61-31.422,19.61c-2.774,0,14.983-0.244,12.421-0.693v83.207h204.721
			v0.023H786.56v-83.207C773.704,177.598,764.065,170.066,763.162,160.937z"/>
	</g>
</g>
</svg>
