<?xml version="1.0" encoding="utf-8"?>
<!-- Generator: Adobe Illustrator 17.0.0, SVG Export Plug-In . SVG Version: 6.00 Build 0)  -->
<!DOCTYPE svg PUBLIC "-//W3C//DTD SVG 1.1//EN" "http://www.w3.org/Graphics/SVG/1.1/DTD/svg11.dtd">
<svg version="1.1" xmlns="http://www.w3.org/2000/svg" xmlns:xlink="http://www.w3.org/1999/xlink" x="0px" y="0px" width="137px"
	 height="165px" viewBox="0 0 137 165" enable-background="new 0 0 137 165" xml:space="preserve">
<g id="Layer_1" display="none">
	<g display="inline">
		<path fill="#C4A165" d="M114.876,153.337c0,0,33.954-14.04,17.498-54.586l-3.664,2.892c0,0-9.432-25.528-30.293-17.869
			l-14.537,26.165l18.421,7.021L114.876,153.337z"/>
		<path fill="#B59857" d="M90.722,66.477L35.448,97.611v66.841l46.649,0.38c23.865,0,36.824-4.953,36.824-21.513
			C118.921,120.866,105.912,79.61,90.722,66.477z"/>
		<path fill="#D6BD76" d="M41.951,164.832c0.028-0.289,0.046-0.601,0.046-0.956v-42.961c0.424-7.431,6.478-13.327,13.905-13.327
			c7.671,0,13.889,6.284,13.943,14.055v30.055c0,5.35,0.069,9.672,0.201,13.133H95.16V61.995H62.428
			c-25.266,0-45.748,20.482-45.748,45.748v57.089H41.951z"/>
		<path fill="#C4A165" d="M41.345,165.099c2.155,0,3.741-2.077,3.112-4.138c-1.959-6.417-7.851-11.079-14.818-11.079
			c-6.967,0-12.859,4.662-14.818,11.079c-0.629,2.061,0.957,4.138,3.112,4.138H41.345z"/>
		<path fill="#C4A165" d="M95.378,165.099c1.519,0,2.63-1.411,2.306-2.895c-1.541-7.049-7.734-12.322-15.143-12.322
			c-7.409,0-13.603,5.272-15.143,12.322c-0.324,1.484,0.787,2.895,2.306,2.895H95.378z"/>
		<path fill="#D6BD76" d="M61.895,0.304c-21.69,0-41.408,7.907-41.408,7.907v43.488c0,15.814,10.352,22.98,21.69,31.628h39.436
			c11.338-8.648,21.69-15.814,21.69-31.628V8.211C103.303,8.211,83.585,0.304,61.895,0.304z"/>
		<path fill="#B59857" d="M67.811,97.13H55.98c-8.712,0-15.775-7.063-15.775-15.775V65.581h43.38v15.775
			C83.585,90.067,76.523,97.13,67.811,97.13z"/>
		<path fill="#B59857" d="M34.704,19.941L23.004,69.872c-0.677,2.887-4.07,3.529-5.676,1.074L2.215,47.831
			c-2.434-3.723-2.466-8.715-0.08-12.341L20.361,7.798c1.689-2.567,5.052-2.842,7.167-0.587l5.354,5.709
			C34.592,14.741,35.291,17.437,34.704,19.941z"/>
		<path fill="#B59857" d="M88.501,19.621l10.571,50.145c0.611,2.9,3.969,3.608,5.616,1.184l15.501-22.813
			c2.497-3.674,2.634-8.664,0.34-12.335l-17.522-28.04c-1.624-2.599-4.959-2.94-7.108-0.727l-5.439,5.602
			C88.723,14.426,87.971,17.107,88.501,19.621z"/>
		<circle fill="#FFFFFF" cx="44.336" cy="36.852" r="8.047"/>
		<circle fill="#FFFFFF" cx="79.048" cy="36.852" r="8.046"/>
		<circle fill="#020202" cx="79.111" cy="37.256" r="5.683"/>
		<circle cx="79.048" cy="36.852" r="5.271"/>
		<circle fill="#FFFFFF" cx="80.92" cy="34.254" r="2.062"/>
		<circle fill="#020202" cx="44.619" cy="37.131" r="5.683"/>
		<circle cx="44.555" cy="36.728" r="5.271"/>
		<circle fill="#FFFFFF" cx="46.427" cy="34.129" r="2.062"/>
		<path fill="#C4A165" d="M61.692,43.891L61.692,43.891c-4.101,0-7.925,1.853-10.187,4.953
			c-5.667,7.766-15.919,22.248-15.919,25.383c0,4.334,8.702,19.502,26.106,10.835c17.404,8.668,26.106-6.501,26.106-10.835
			c0-3.136-10.251-17.617-15.919-25.383C69.616,45.744,65.793,43.891,61.692,43.891z"/>
		<path fill="#050505" d="M76.032,65.499c0,6.84-13.933,12.385-13.933,12.385S48.166,72.34,48.166,65.499
			c0-6.84,6.238-9.908,13.933-9.908S76.032,58.659,76.032,65.499z"/>
	</g>
</g>
<g id="Layer_2" display="none">
	<g display="inline">
		<path fill="#8C7873" d="M114.5,153.337c0,0,33.954-14.04,17.498-54.586l-3.664,2.892c0,0-9.432-25.528-30.293-17.869
			l-14.537,26.165l18.421,7.021L114.5,153.337z"/>
		<path fill="#605554" d="M90.345,66.477L35.072,97.611v66.841l46.649,0.38c23.865,0,36.824-4.953,36.824-21.513
			C118.545,120.866,105.535,79.61,90.345,66.477z"/>
		<path fill="#564D4D" d="M41.574,164.832c0.028-0.289,0.046-0.601,0.046-0.956v-42.961c0.424-7.431,6.478-13.327,13.905-13.327
			c7.671,0,13.889,6.284,13.943,14.055v30.055c0,5.35,0.069,9.672,0.201,13.133h25.115V61.995H62.052
			c-25.266,0-45.748,20.482-45.748,45.748v57.089H41.574z"/>
		<path fill="#8C7873" d="M38.969,165.099c2.155,0,3.741-2.077,3.112-4.138c-1.959-6.417-7.851-11.079-14.818-11.079
			c-6.967,0-12.859,4.662-14.818,11.079c-0.629,2.061,0.957,4.138,3.112,4.138H38.969z"/>
		<path fill="#8C7873" d="M100.002,165.099c1.519,0,2.63-1.411,2.306-2.895c-1.541-7.049-7.734-12.322-15.143-12.322
			c-7.409,0-13.603,5.272-15.143,12.322c-0.324,1.484,0.787,2.895,2.306,2.895H100.002z"/>
		<path fill="#605554" d="M61.519,0.304c-21.69,0-41.408,7.907-41.408,7.907v43.488c0,15.814,10.352,22.98,21.69,31.628h39.436
			c11.338-8.648,21.69-15.814,21.69-31.628V8.211C102.927,8.211,83.209,0.304,61.519,0.304z"/>
		<path fill="#605554" d="M67.435,97.13H55.604c-8.712,0-15.775-7.063-15.775-15.775V65.581h43.38v15.775
			C83.209,90.067,76.147,97.13,67.435,97.13z"/>
		<path fill="#564D4D" d="M34.328,19.941L22.627,69.872c-0.677,2.887-4.07,3.529-5.676,1.074L1.839,47.831
			c-2.434-3.723-2.466-8.715-0.08-12.341L19.985,7.798c1.689-2.567,5.052-2.842,7.167-0.587l5.354,5.709
			C34.215,14.741,34.914,17.437,34.328,19.941z"/>
		<path fill="#564D4D" d="M88.125,19.621l10.571,50.145c0.611,2.9,3.969,3.608,5.616,1.184l15.501-22.813
			c2.497-3.674,2.634-8.664,0.34-12.335L102.63,7.762c-1.624-2.599-4.959-2.94-7.108-0.727l-5.44,5.602
			C88.347,14.426,87.595,17.107,88.125,19.621z"/>
		<circle fill="#FFFFFF" cx="43.959" cy="36.852" r="8.047"/>
		<circle fill="#FFFFFF" cx="78.672" cy="36.852" r="8.046"/>
		<circle fill="#A5A225" cx="78.735" cy="37.256" r="5.683"/>
		<circle cx="78.671" cy="36.852" r="5.271"/>
		<circle fill="#FFFFFF" cx="80.543" cy="34.254" r="2.062"/>
		<circle fill="#A5A225" cx="44.243" cy="37.131" r="5.683"/>
		<circle cx="44.179" cy="36.728" r="5.271"/>
		<circle fill="#FFFFFF" cx="46.051" cy="34.129" r="2.062"/>
		<path fill="#8C7873" d="M61.315,43.891L61.315,43.891c-4.101,0-7.925,1.853-10.187,4.953
			c-5.667,7.766-15.919,22.248-15.919,25.383c0,4.334,8.702,19.502,26.106,10.835c17.404,8.668,26.106-6.501,26.106-10.835
			c0-3.136-10.251-17.617-15.919-25.383C69.24,45.744,65.417,43.891,61.315,43.891z"/>
		<path fill="#3F3A3A" d="M75.656,65.499c0,6.84-13.933,12.385-13.933,12.385S47.79,72.34,47.79,65.499
			c0-6.84,6.238-9.908,13.933-9.908S75.656,58.659,75.656,65.499z"/>
	</g>
</g>
<g id="Layer_3">
	<g>
		<path fill="#C4A165" d="M114.876,153.337c0,0,33.954-14.04,17.498-54.586l-3.664,2.892c0,0-9.432-25.528-30.293-17.869
			l-14.537,26.165l18.421,7.021L114.876,153.337z"/>
		<path fill="#B59857" d="M90.722,66.477L35.448,97.611v66.841l46.649,0.38c23.865,0,36.824-4.953,36.824-21.513
			C118.921,120.866,105.912,79.61,90.722,66.477z"/>
		<path fill="#D6BD76" d="M41.951,164.832c0.028-0.289,0.046-0.601,0.046-0.956v-42.961c0.424-7.431,6.478-13.327,13.905-13.327
			c7.671,0,13.889,6.284,13.943,14.055v30.055c0,5.35,0.069,9.672,0.201,13.133H95.16V61.995H62.428
			c-25.266,0-45.748,20.482-45.748,45.748v57.089H41.951z"/>
		<path fill="#C4A165" d="M39.345,165.099c2.155,0,3.741-2.077,3.112-4.138c-1.959-6.417-7.851-11.079-14.818-11.079
			c-6.967,0-12.859,4.662-14.818,11.079c-0.629,2.061,0.957,4.138,3.112,4.138H39.345z"/>
		<path fill="#C4A165" d="M100.378,165.099c1.519,0,2.63-1.411,2.306-2.895c-1.541-7.049-7.734-12.322-15.143-12.322
			c-7.409,0-13.603,5.272-15.143,12.322c-0.324,1.484,0.787,2.895,2.306,2.895H100.378z"/>
		<path fill="#D6BD76" d="M61.895,0.304c-21.69,0-41.408,7.907-41.408,7.907v43.488c0,15.814,10.352,22.98,21.69,31.628h39.436
			c11.338-8.648,21.69-15.814,21.69-31.628V8.211C103.303,8.211,83.585,0.304,61.895,0.304z"/>
		<path fill="#605554" d="M67.811,97.13H55.98c-8.712,0-15.775-7.063-15.775-15.775V65.581h43.38v15.775
			C83.585,90.067,76.523,97.13,67.811,97.13z"/>
		<path fill="#B59857" d="M34.704,19.941L23.004,69.872c-0.677,2.887-4.07,3.529-5.676,1.074L2.215,47.831
			c-2.434-3.723-2.466-8.715-0.08-12.341L20.361,7.798c1.689-2.567,5.052-2.842,7.167-0.587l5.354,5.709
			C34.592,14.741,35.291,17.437,34.704,19.941z"/>
		<path fill="#B59857" d="M88.501,19.621l10.571,50.145c0.611,2.9,3.969,3.608,5.616,1.184l15.501-22.813
			c2.497-3.674,2.634-8.664,0.34-12.335l-17.522-28.04c-1.624-2.599-4.959-2.94-7.108-0.727l-5.439,5.602
			C88.723,14.426,87.971,17.107,88.501,19.621z"/>
		<circle fill="#FFFFFF" cx="44.336" cy="36.852" r="8.047"/>
		<circle fill="#FFFFFF" cx="79.048" cy="36.852" r="8.046"/>
		<circle fill="#020202" cx="79.111" cy="37.256" r="5.683"/>
		<circle cx="79.048" cy="36.852" r="5.271"/>
		<circle fill="#FFFFFF" cx="80.92" cy="34.254" r="2.062"/>
		<circle fill="#020202" cx="44.619" cy="37.131" r="5.683"/>
		<circle cx="44.555" cy="36.728" r="5.271"/>
		<circle fill="#FFFFFF" cx="46.427" cy="34.129" r="2.062"/>
		<g>
			
				<rect x="90.544" y="105.762" transform="matrix(0.5965 -0.8026 0.8026 0.5965 -55.813 120.7829)" fill="#F7C526" width="3.364" height="20.284"/>
			<path fill="#B29E83" d="M88.076,78.703l-3.803,38.714c11.351-11.351,14.919-27.166,10.228-39.829L88.076,78.703z"/>
			<path fill="#8C7762" d="M51.844,84.988l36.232-6.285l1.667,3.643c5.449,11.904,3.722,25.879-5.47,35.071
				c-14.915,14.915-37.613,16.469-50.657,3.426c-2.948-2.948-4.376-6.844-4.285-10.718c0.13-5.56,0.52-22.245,0.52-22.245
				l12.442-12.442L51.844,84.988L51.844,84.988z"/>
			<path fill="#F7C526" d="M28.461,86.556L16.857,98.16c-1.636,1.636-4.289,1.636-5.925,0s-1.636-4.289,0-5.925l5.343-5.343
				C20.02,89.178,24.819,89.067,28.461,86.556z"/>
			<path fill="#FFAD61" d="M81.281,66.836l13.22,10.753l0.22-0.22c4.868-4.868,4.868-12.761,0-17.629L81.281,66.836z"/>
			<path fill="#F7C526" d="M49.641,104.82l14.234-23.75l23.75-14.234c3.116,3.116,5.404,6.78,6.876,10.753l-27.23,27.23
				C62.401,109.689,54.509,109.687,49.641,104.82z"/>
			<path fill="#555843" d="M17.278,66.282l19.075,19.075l6.344-9.516l-9.559-9.559C28.759,61.903,21.659,61.902,17.278,66.282z"/>
			<path fill="#5D734F" d="M28.38,71.04l11.145,11.145l-9.27,6.098l-1.756-1.753c-0.013,0.009-0.025,0.016-0.038,0.025
				c-3.641,2.512-8.441,2.623-12.187,0.336c-0.747-0.455-1.45-1.005-2.095-1.651c-2.19-2.19-3.285-5.058-3.285-7.928
				c-0.002-2.872,1.094-5.741,3.284-7.931l3.099-3.099C19.03,64.53,24.001,66.661,28.38,71.04z"/>
			<path fill="#F7C526" d="M103.388,121.312l-15.221,15.221c-0.657,0.657-1.722,0.657-2.379,0c-0.657-0.657-0.657-1.722,0-2.379
				l15.221-15.221c0.657-0.657,1.722-0.657,2.379,0C104.045,119.59,104.045,120.655,103.388,121.312z"/>
			<path fill="#594B44" d="M80.33,56.502l-4.758,4.758l17.627,0l4.758-4.758C93.09,51.635,85.198,51.635,80.33,56.502z"/>
			<path fill="#87635C" d="M93.199,61.26L49.64,104.82c-4.867-4.867-4.867-12.759,0.002-17.628L75.572,61.26
				C80.44,56.393,88.332,56.393,93.199,61.26z"/>
			<circle fill="#4D3D36" cx="18.77" cy="77.441" r="2.023"/>
		</g>
		<path fill="#C4A165" d="M61.692,43.891L61.692,43.891c-4.101,0-7.925,1.853-10.187,4.953
			c-5.667,7.766-15.919,22.248-15.919,25.383c0,4.334,8.702,19.502,26.106,10.835c17.404,8.668,26.106-6.501,26.106-10.835
			c0-3.136-10.251-17.617-15.919-25.383C69.616,45.744,65.793,43.891,61.692,43.891z"/>
		<path fill="#050505" d="M76.032,65.499c0,6.84-13.933,12.385-13.933,12.385S48.166,72.34,48.166,65.499
			c0-6.84,6.238-9.908,13.933-9.908S76.032,58.659,76.032,65.499z"/>
	</g>
</g>
</svg>
